<svg width="300" height="296" viewBox="0 0 300 296" fill="none" xmlns="http://www.w3.org/2000/svg">
<path d="M81.5788 285.077C79.4565 286.183 77.7983 288.011 76.9019 290.23C74.5772 287.765 73.2187 284.545 73.0754 281.16C71.7589 281.719 70.6504 282.677 69.9053 283.898C69.1602 285.119 68.8158 286.542 68.9203 287.969L56.6097 276.477C55.9784 280.999 55.3342 285.521 54.6771 290.043C52.3218 283.323 48.9169 277.017 44.589 271.362C44.4988 276.485 44.4108 281.604 44.3249 286.719C38.3781 274.79 29.5532 264.531 18.6472 256.867C21.8682 263.992 25.0892 271.188 26.719 278.841C23.6609 272.731 18.6567 267.813 12.4951 264.862C19.1523 273.817 23.8655 284.063 26.3325 294.946L85.386 294.984C85.386 294.984 82.8736 288.484 87.2541 286.294L81.5788 285.077Z" fill="#EBEBEB"/>
<path d="M81.4462 83.8968C96.4401 68.903 96.4401 44.5931 81.4462 29.5993C66.4524 14.6055 42.1426 14.6055 27.1487 29.5993C12.1549 44.5931 12.1549 68.903 27.1487 83.8968C42.1426 98.8906 66.4524 98.8906 81.4462 83.8968Z" fill="#EBEBEB"/>
<path d="M299.413 238.289C293.187 241.805 287.855 246.711 283.833 252.623C279.811 258.536 277.207 265.297 276.222 272.379C276.41 260.484 278.353 248.682 281.988 237.354C273.391 247.823 268.31 260.734 267.468 274.254L265.844 251.849C260.536 262.156 260.047 274.151 259.712 285.721C257.434 280.924 254.274 276.599 250.396 272.972C251.891 280.058 253.411 288.008 254.906 295.113L285.537 295.042L284.964 288.922C283.175 270.822 288.341 252.719 299.413 238.289Z" fill="#EBEBEB"/>
<path d="M271.482 98.0338C271.894 95.0641 267.707 92.629 264.563 92.3713C263.062 92.2554 261.503 92.4809 260.053 91.9848C256.974 90.9155 255.744 86.9343 252.742 85.6653C250.494 84.7183 247.91 85.5622 245.733 86.6573C243.556 87.7525 241.404 89.1375 238.969 89.2921C236.856 89.4274 234.556 88.6479 232.707 89.6786C231.329 90.4452 230.601 92.0364 229.332 92.9704C228.063 93.9045 226.465 94.0849 224.919 94.1687C223.373 94.2524 221.782 94.2653 220.377 94.9095C218.973 95.5537 217.801 97.0418 218.097 98.5621L271.482 98.0338Z" fill="#F5F5F5"/>
<path d="M191.42 44.1862C191.775 41.6094 188.135 39.4836 185.397 39.2646C184.109 39.1615 182.737 39.3612 181.5 38.9296C178.82 37.9955 177.75 34.5362 175.141 33.4346C173.209 32.61 170.935 33.3444 169.041 34.2978C167.147 35.2512 165.279 36.4494 163.159 36.5847C161.317 36.7007 159.294 36.0178 157.71 36.9197C156.511 37.5639 155.88 38.9682 154.772 39.7864C153.664 40.6045 152.279 40.7527 150.907 40.83C149.56 40.7946 148.218 41.0131 146.951 41.4742C145.727 42.0346 144.716 43.3294 144.967 44.6501L191.42 44.1862Z" fill="#EBEBEB"/>
<path d="M90.8355 147.566C91.3316 143.965 86.2424 141.002 82.4223 140.693C80.6057 140.545 78.7117 140.822 76.9853 140.223C73.249 138.934 71.7544 134.09 68.1018 132.55C65.3769 131.397 62.2332 132.421 59.592 133.755C56.9508 135.088 54.3353 136.757 51.3785 136.976C48.8017 137.137 46.0188 136.184 43.7705 137.44C42.0956 138.374 41.1937 140.306 39.6734 141.447C38.1531 142.587 36.1948 142.793 34.3201 142.896C32.4455 142.999 30.5065 143.018 28.7994 143.798C27.0923 144.577 25.675 146.375 26.0293 148.23L90.8355 147.566Z" fill="#EBEBEB"/>
<path d="M254.832 146.661C264.334 143.326 269.332 132.92 265.996 123.418C262.661 113.917 252.255 108.919 242.753 112.254C233.252 115.59 228.254 125.996 231.589 135.497C234.925 144.999 245.331 149.997 254.832 146.661Z" fill="#EBEBEB"/>
<path d="M243.748 130.232C243.232 130.516 242.642 130.641 242.055 130.591C241.467 130.541 240.907 130.317 240.446 129.949C239.986 129.581 239.644 129.084 239.466 128.522C239.287 127.96 239.28 127.357 239.444 126.79C239.608 126.224 239.936 125.718 240.387 125.338C240.838 124.958 241.392 124.72 241.978 124.655C242.565 124.59 243.157 124.7 243.681 124.971C244.205 125.242 244.636 125.663 244.921 126.18C245.111 126.522 245.231 126.899 245.275 127.289C245.319 127.678 245.285 128.073 245.176 128.449C245.068 128.826 244.885 129.177 244.64 129.483C244.395 129.789 244.092 130.043 243.748 130.232Z" fill="white"/>
<path d="M249.25 122.365C248.95 122.53 248.607 122.602 248.266 122.573C247.925 122.543 247.6 122.413 247.333 122.199C247.066 121.984 246.868 121.696 246.764 121.369C246.661 121.043 246.657 120.693 246.752 120.364C246.847 120.035 247.038 119.742 247.3 119.521C247.562 119.3 247.883 119.162 248.223 119.124C248.564 119.086 248.908 119.149 249.212 119.307C249.516 119.464 249.767 119.708 249.933 120.008C250.043 120.207 250.113 120.427 250.139 120.653C250.164 120.88 250.144 121.109 250.081 121.328C250.018 121.547 249.911 121.752 249.769 121.93C249.626 122.108 249.45 122.256 249.25 122.365Z" fill="white"/>
<path d="M237.435 116.156C237.197 116.381 216.364 109.881 215.5 114.99C214.637 120.098 230.111 131.063 247.42 138.149C264.73 145.235 283.663 149.983 285.222 144.971C286.781 139.959 268.196 129.426 268.196 129.426L268.028 132.003C268.028 132.003 279.521 138.233 278.799 142.6C278.078 146.968 263.925 143.444 248.219 136.12C232.514 128.795 219.707 120.408 221.163 117.219C222.619 114.03 235.554 118.179 235.554 118.179L237.435 116.156Z" fill="#E0E0E0"/>
<path d="M256.323 114.5C256.24 114.719 254.719 114.139 252.194 113.927C248.923 113.612 245.632 114.26 242.724 115.79C239.816 117.32 237.418 119.666 235.825 122.54C234.569 124.743 234.182 126.321 233.957 126.27C233.731 126.218 233.835 124.55 234.936 122.082C235.592 120.642 236.46 119.309 237.513 118.127C240.105 115.158 243.712 113.263 247.627 112.812C249.198 112.617 250.79 112.658 252.349 112.935C254.984 113.424 256.401 114.365 256.323 114.5Z" fill="white"/>
<path d="M281.231 72.1687C287.466 69.9818 290.747 63.155 288.56 56.9206C286.373 50.6862 279.546 47.4051 273.312 49.592C267.077 51.7789 263.796 58.6057 265.983 64.8401C268.17 71.0745 274.997 74.3556 281.231 72.1687Z" fill="#E0E0E0"/>
<path d="M281.17 56.3356C281.181 55.956 281.304 55.5882 281.523 55.2781C281.742 54.968 282.048 54.7294 282.402 54.5919C282.756 54.4545 283.143 54.4244 283.514 54.5054C283.885 54.5864 284.224 54.7749 284.488 55.0473C284.753 55.3198 284.931 55.6641 285.001 56.0373C285.071 56.4105 285.029 56.7961 284.882 57.1459C284.734 57.4956 284.486 57.7941 284.17 58.004C283.853 58.2139 283.482 58.3259 283.102 58.3261C282.844 58.3262 282.588 58.2744 282.349 58.1737C282.111 58.0729 281.895 57.9254 281.715 57.7397C281.535 57.5541 281.394 57.3341 281.3 57.0929C281.206 56.8517 281.162 56.5942 281.17 56.3356Z" fill="#F5F5F5"/>
<path d="M285.074 60.845C285.079 60.6209 285.15 60.4033 285.279 60.2198C285.408 60.0362 285.588 59.895 285.797 59.814C286.006 59.7329 286.235 59.7157 286.454 59.7644C286.673 59.8132 286.872 59.9257 287.027 60.0878C287.182 60.2499 287.285 60.4543 287.324 60.6752C287.363 60.896 287.335 61.1234 287.245 61.3285C287.154 61.5337 287.005 61.7074 286.816 61.8278C286.626 61.9481 286.406 62.0096 286.182 62.0046C286.033 62.0021 285.885 61.97 285.749 61.9102C285.612 61.8504 285.489 61.7641 285.386 61.6562C285.282 61.5484 285.202 61.4211 285.148 61.2819C285.095 61.1426 285.069 60.9942 285.074 60.845Z" fill="#F5F5F5"/>
<path d="M283.554 64.3488C283.609 64.3488 283.663 64.3599 283.714 64.3815C283.764 64.4031 283.81 64.4347 283.848 64.4745C283.886 64.5142 283.915 64.5613 283.934 64.6127C283.954 64.6642 283.962 64.7191 283.96 64.774C283.96 64.8851 283.915 64.9916 283.837 65.0701C283.758 65.1486 283.652 65.1927 283.541 65.1927C283.43 65.1927 283.323 65.1486 283.245 65.0701C283.166 64.9916 283.122 64.8851 283.122 64.774C283.121 64.7174 283.132 64.6611 283.153 64.6087C283.175 64.5563 283.207 64.5088 283.247 64.4691C283.287 64.4293 283.335 64.3982 283.388 64.3775C283.441 64.3568 283.497 64.3471 283.554 64.3488Z" fill="#F5F5F5"/>
<path d="M292.044 295.01C292.044 295.1 229.377 295.178 152.086 295.178C74.7956 295.178 12.1152 295.1 12.1152 295.01C12.1152 294.92 74.7698 294.843 152.086 294.843C229.403 294.843 292.044 294.92 292.044 295.01Z" fill="#263238"/>
<path d="M55.5083 295.01C55.4666 294.907 55.4384 294.799 55.4246 294.688C55.373 294.443 55.3151 294.134 55.2442 293.767C55.1025 292.962 54.8706 291.802 54.5549 290.378C53.7396 286.665 52.5993 283.031 51.1471 279.517C50.3283 277.593 49.3991 275.717 48.3642 273.9C47.8617 273.082 47.4108 272.283 46.9212 271.581L46.2319 270.55C45.9935 270.228 45.7681 269.906 45.5877 269.629C45.1625 269.03 44.7374 268.527 44.3702 268.076C44.003 267.625 43.6873 267.245 43.4103 266.942L42.7661 266.234C42.6879 266.155 42.6207 266.066 42.5664 265.97C42.5664 265.97 42.663 266.041 42.8176 266.189L43.4618 266.833C43.8292 267.188 44.1755 267.565 44.499 267.96C44.8726 268.398 45.3171 268.894 45.7874 269.487L46.4316 270.395C46.6699 270.724 46.9019 271.04 47.1466 271.426C47.6491 272.128 48.1129 272.921 48.6283 273.745C49.678 275.569 50.6181 277.453 51.4434 279.388C52.9033 282.923 54.0187 286.591 54.7739 290.34C55.0638 291.776 55.2571 292.916 55.3602 293.76C55.4052 294.134 55.4439 294.443 55.4761 294.694C55.5026 294.797 55.5134 294.904 55.5083 295.01Z" fill="#263238"/>
<path d="M37.5804 275.632C37.9101 275.705 38.2316 275.811 38.5403 275.947C38.912 276.081 39.2755 276.236 39.629 276.411C40.0413 276.617 40.5309 276.824 41.0269 277.126C41.5843 277.431 42.1241 277.766 42.6438 278.131C43.2236 278.498 43.7841 278.969 44.3896 279.42C46.9638 281.575 49.0425 284.26 50.4837 287.292C50.7975 287.949 51.077 288.622 51.3211 289.308C51.545 289.903 51.7364 290.509 51.8945 291.125C52.062 291.685 52.1393 292.207 52.2359 292.658C52.3198 293.044 52.3779 293.436 52.4098 293.83C52.4667 294.162 52.4905 294.499 52.4807 294.835C52.4098 294.835 52.3003 293.405 51.6626 291.189C51.4948 290.584 51.2948 289.988 51.0635 289.405C50.8444 288.761 50.5223 288.116 50.2067 287.427C49.4815 285.951 48.6188 284.547 47.6299 283.233C46.6101 281.936 45.469 280.739 44.2221 279.658C43.6294 279.181 43.0819 278.711 42.515 278.37C42.0076 277.998 41.4808 277.654 40.9367 277.339C38.9204 276.16 37.5547 275.703 37.5804 275.632Z" fill="#263238"/>
<path d="M53.9946 256.332C54.0241 256.463 54.0392 256.597 54.0397 256.731C54.0397 257.028 54.059 257.408 54.0977 257.872C54.1363 258.864 54.2072 260.294 54.3167 262.065C54.5357 265.596 54.9609 270.479 55.7661 275.819C56.5714 281.159 57.5892 285.959 58.4202 289.399C58.8325 291.125 59.1804 292.517 59.4381 293.47C59.5476 293.921 59.6442 294.288 59.7151 294.578C59.7544 294.706 59.7803 294.838 59.7924 294.971C59.7328 294.851 59.6853 294.726 59.6506 294.597C59.5604 294.314 59.4509 293.953 59.3092 293.509C59.0193 292.555 58.665 291.177 58.1883 289.457C55.8861 280.495 54.5089 271.321 54.0783 262.078C54.001 260.307 53.9624 258.857 53.9688 257.878V256.731C53.9625 256.598 53.9711 256.464 53.9946 256.332Z" fill="#263238"/>
<path d="M31.4988 285.289C31.6707 285.335 31.8339 285.409 31.982 285.508C32.2847 285.669 32.7035 285.92 33.2124 286.255C34.5368 287.143 35.7557 288.178 36.8456 289.341C37.9285 290.516 38.8711 291.813 39.6543 293.206C39.9507 293.741 40.1761 294.179 40.2985 294.495C40.3882 294.648 40.4514 294.816 40.4853 294.991C40.1036 294.457 39.753 293.902 39.4353 293.329C38.6054 291.997 37.6521 290.746 36.588 289.592C35.5112 288.447 34.3317 287.404 33.0642 286.474C32.1044 285.734 31.473 285.334 31.4988 285.289Z" fill="#263238"/>
<path d="M41.7284 284.381C41.8418 284.889 41.9065 285.407 41.9216 285.927C42.0183 286.893 42.1471 288.214 42.321 289.676C42.495 291.138 42.6882 292.459 42.8235 293.412C42.9285 293.926 42.9846 294.448 42.991 294.971C42.8003 294.482 42.6663 293.971 42.5916 293.451C42.3983 292.504 42.1664 291.184 41.9861 289.715C41.8057 288.246 41.7219 286.913 41.6833 285.946C41.64 285.424 41.6551 284.899 41.7284 284.381Z" fill="#263238"/>
<path d="M138.326 261.189C138.343 261.305 138.343 261.422 138.326 261.537L138.268 262.529C138.204 263.386 138.133 264.629 138.062 266.169C137.697 274.181 138.201 282.21 139.563 290.114C139.82 291.634 140.052 292.858 140.207 293.702C140.278 294.095 140.342 294.417 140.387 294.675C140.413 294.789 140.428 294.906 140.432 295.023C140.38 294.919 140.343 294.808 140.323 294.694L140.078 293.728C139.872 292.89 139.608 291.673 139.318 290.159C138.569 286.209 138.068 282.215 137.817 278.203C137.57 274.191 137.57 270.168 137.817 266.156C137.92 264.617 138.03 263.373 138.133 262.516C138.178 262.117 138.223 261.795 138.255 261.531C138.264 261.414 138.288 261.3 138.326 261.189Z" fill="#263238"/>
<path d="M143.538 279.536C143.445 280.286 143.312 281.03 143.138 281.765C142.881 283.131 142.559 285.031 142.327 287.144C142.095 289.257 141.998 291.183 141.953 292.575C141.963 293.33 141.929 294.085 141.85 294.836C141.8 294.638 141.774 294.434 141.773 294.23C141.773 293.844 141.721 293.277 141.715 292.575C141.699 290.75 141.791 288.926 141.992 287.112C142.192 285.296 142.497 283.494 142.906 281.714C143.067 281.031 143.216 280.483 143.325 280.109C143.367 279.909 143.438 279.715 143.538 279.536Z" fill="#263238"/>
<path d="M207.029 264.81C207.059 264.91 207.072 265.014 207.068 265.119C207.068 265.357 207.1 265.653 207.113 266.001C207.152 266.826 207.197 267.934 207.248 269.261C207.371 272.018 207.59 275.819 207.963 280C208.337 284.181 208.814 287.968 209.194 290.693C209.381 292.02 209.535 293.109 209.645 293.914C209.696 294.262 209.735 294.559 209.761 294.797C209.778 294.899 209.778 295.004 209.761 295.106C209.719 295.01 209.691 294.908 209.677 294.803C209.632 294.571 209.567 294.282 209.497 293.934C209.348 293.18 209.155 292.078 208.936 290.713C208.504 287.988 207.996 284.206 207.615 280.013C207.235 275.819 207.055 272.012 206.971 269.255C206.971 267.876 206.933 266.755 206.971 265.988C206.971 265.632 206.971 265.336 206.971 265.099C206.98 265.001 207 264.904 207.029 264.81Z" fill="#263238"/>
<path d="M214.251 279.704C214.296 279.704 214.026 280.554 213.658 281.92C213.18 283.695 212.823 285.501 212.589 287.325C212.367 289.15 212.273 290.988 212.306 292.826C212.306 294.237 212.389 295.113 212.338 295.119C212.272 294.924 212.233 294.72 212.222 294.514C212.164 294.114 212.112 293.541 212.067 292.832C211.966 290.98 212.029 289.121 212.254 287.279C212.485 285.438 212.879 283.62 213.433 281.849C213.645 281.172 213.832 280.631 213.987 280.264C214.142 279.897 214.225 279.691 214.251 279.704Z" fill="#263238"/>
<path d="M300 259.257C299.899 259.356 299.789 259.447 299.671 259.527L298.679 260.242L297.958 260.751C297.7 260.945 297.436 261.177 297.14 261.396C296.566 261.879 295.851 262.388 295.207 263.051L294.118 264.056C293.738 264.41 293.391 264.816 293.004 265.216C292.212 266.002 291.471 266.936 290.678 267.896C287.3 272.162 284.837 277.078 283.444 282.338C283.161 283.556 282.858 284.709 282.71 285.811C282.626 286.358 282.51 286.886 282.465 287.402C282.42 287.917 282.362 288.407 282.317 288.877C282.194 289.818 282.22 290.674 282.188 291.454C282.188 291.827 282.156 292.182 282.188 292.504C282.22 292.826 282.188 293.148 282.188 293.38C282.188 293.882 282.188 294.288 282.227 294.604C282.24 294.745 282.24 294.888 282.227 295.029C282.191 294.892 282.171 294.752 282.169 294.61C282.169 294.295 282.111 293.889 282.072 293.386C282.072 293.116 282.033 292.826 282.008 292.504C281.982 292.182 282.008 291.86 282.008 291.454C282.008 290.694 282.008 289.83 282.098 288.877C282.136 288.4 282.175 287.904 282.22 287.389C282.265 286.874 282.368 286.339 282.446 285.785C282.587 284.67 282.877 283.511 283.161 282.28C283.862 279.637 284.823 277.07 286.027 274.614C287.275 272.18 288.755 269.872 290.447 267.722C291.258 266.755 292.012 265.828 292.817 265.042C293.21 264.649 293.564 264.236 293.951 263.895L295.065 262.89C295.755 262.246 296.463 261.737 297.056 261.267C297.352 261.041 297.623 260.816 297.893 260.623L298.628 260.133L299.659 259.489C299.764 259.399 299.878 259.322 300 259.257Z" fill="#263238"/>
<path d="M296.18 276.766C296.219 276.817 295.214 277.532 293.771 278.898C292.932 279.699 292.14 280.549 291.4 281.442C290.498 282.538 289.672 283.694 288.926 284.902C288.2 286.121 287.555 287.386 286.994 288.69C286.542 289.759 286.153 290.854 285.828 291.969C285.274 293.901 285.094 295.093 285.036 295.08C285.031 294.79 285.059 294.501 285.119 294.217C285.158 293.94 285.209 293.605 285.293 293.218C285.377 292.832 285.461 292.381 285.596 291.93C285.893 290.785 286.268 289.662 286.717 288.567C287.807 285.906 289.311 283.434 291.175 281.243C291.934 280.35 292.752 279.508 293.623 278.724C293.99 278.383 294.351 278.08 294.653 277.854C294.913 277.626 295.184 277.411 295.465 277.21C295.686 277.035 295.926 276.886 296.18 276.766Z" fill="#263238"/>
<path d="M138.339 275.091C137.373 286.854 127.897 296.401 108.919 294.842C99.7066 294.088 90.2369 290.732 84.1621 285.649L86.4168 274.208L91.1967 274.376C95.9187 278.589 102.663 281.34 109.595 281.907C117.28 282.551 122.292 279.697 122.737 274.286C123.162 269.068 120.025 265.37 107.972 264.384L90.9841 262.993L97.4648 225.881L137.991 229.198L136.98 241.535L109.279 239.267L107.199 251.803L112.61 252.248C132.245 253.858 139.299 263.322 138.339 275.091Z" fill="#427CAF"/>
<g opacity="0.4">
<path d="M138.339 275.091C137.373 286.854 127.897 296.401 108.919 294.842C99.7066 294.088 90.2369 290.732 84.1621 285.649L86.4168 274.208L91.1967 274.376C95.9187 278.589 102.663 281.34 109.595 281.907C117.28 282.551 122.292 279.697 122.737 274.286C123.162 269.068 120.025 265.37 107.972 264.384L90.9841 262.993L97.4648 225.881L137.991 229.198L136.98 241.535L109.279 239.267L107.199 251.803L112.61 252.248C132.245 253.858 139.299 263.322 138.339 275.091Z" fill="black"/>
</g>
<path d="M133.521 274.678C132.554 286.448 123.078 295.988 104.1 294.436C94.8947 293.682 85.4185 290.326 79.3438 285.243L86.3719 273.97C91.0875 278.176 97.8386 280.927 104.764 281.5C112.455 282.145 117.461 279.291 117.905 273.88C118.331 268.662 115.2 264.964 103.14 263.978L86.1529 262.587L92.64 225.475L133.16 228.792L132.149 241.129L104.448 238.861L102.374 251.397L107.785 251.842C127.427 253.459 134.487 262.915 133.521 274.678Z" fill="#427CAF"/>
<g opacity="0.2">
<path d="M113.57 280.167L120.386 285.121L121.436 287.846L121.603 283.24L116.766 277.487C116.027 278.71 114.903 279.653 113.57 280.167Z" fill="black"/>
</g>
<g opacity="0.2">
<path d="M117.848 274.466C117.848 274.466 121.275 278.757 121.758 278.943C122.241 279.13 129.624 281.159 129.624 281.159L131.118 283.092L132.258 280.187L130.654 279.001L124.026 277.713L117.938 271.87L117.848 274.466Z" fill="black"/>
</g>
<g opacity="0.2">
<path d="M117.519 270.492L123.69 272.798C124.044 272.515 130.132 271.935 130.744 271.8C131.356 271.664 133.669 272.444 133.669 272.444L133.186 268.959L123.735 270.853L116.372 268.347L117.519 270.492Z" fill="black"/>
</g>
<g opacity="0.2">
<path d="M128.245 259.405L122.067 264.095L113.744 266.285L115.348 267.303L120.366 266.936H127.285L132.284 265.197L131.324 263.316C131.324 263.316 122.306 265.892 123.033 265.139C123.761 264.385 129.437 260.507 129.437 260.507L128.245 259.405Z" fill="black"/>
</g>
<g opacity="0.2">
<path d="M124.2 256.312L119.69 261.943L111.831 265.698L109.898 264.906L116.005 259.901L120.025 254.348C121.474 254.873 122.871 255.531 124.2 256.312Z" fill="black"/>
</g>
<g opacity="0.2">
<path d="M86.9199 259.997C86.9199 259.997 90.1409 262.168 91.9511 262.162C93.7613 262.155 102.941 258.496 102.941 258.496L110.671 258.773L117.294 254.747L110.208 256.68L103.534 256.177L95.7068 258.11L87.8411 254.174L86.9199 259.997Z" fill="black"/>
</g>
<g opacity="0.2">
<path d="M102.316 251.23L94.2568 249.71L88.1885 251.146L88.7876 248.067L96.125 247.52L102.709 249.194L102.316 251.23Z" fill="black"/>
</g>
<g opacity="0.2">
<path d="M89.7471 242.391C89.7471 242.391 98.8882 245.658 100.132 245.767C101.375 245.877 103.256 246.205 103.256 246.205L103.591 244.272L97.5612 242.507L90.7069 236.433L90.417 239.009L93.2579 241.928L90.037 240.697L89.7471 242.391Z" fill="black"/>
</g>
<g opacity="0.2">
<path d="M91.4678 232.774C91.4678 232.774 98.5539 237.683 100.39 237.638C102.226 237.592 106.903 237.038 106.903 237.038L120.006 239.97L126.093 240.736L111.728 235.454C111.728 235.454 103.321 232.98 103.282 233.199C103.244 233.418 98.6828 233.792 98.6828 233.792L92.4147 227.607L91.4678 232.774Z" fill="black"/>
</g>
<g opacity="0.2">
<path d="M100.145 226.273L105.704 231.35L118.627 233.218L127.967 238.455L121.358 232.632L111.798 230.486L105.917 226.48L100.145 226.273Z" fill="black"/>
</g>
<g opacity="0.2">
<path d="M81.251 282.719C81.251 282.719 87.184 281.43 87.6929 281.533C88.2019 281.636 97.678 286.99 97.678 286.99C97.678 286.99 108.114 286.751 108.481 286.764C108.848 286.777 115.567 291.068 115.567 291.068L110.137 284.626L97.3817 284.381L90.5081 277.752L83.4863 278.602L81.251 282.719Z" fill="black"/>
</g>
<g opacity="0.2">
<path d="M85.8633 289.257C85.8633 289.257 88.9941 288.033 90.3211 288.349C91.6482 288.665 96.2026 290.971 96.2026 290.971L102.992 290.616L109.731 291.544L115.864 293.818C115.864 293.818 112.043 294.301 110.607 294.52L106.568 292.755L98.1932 292.272L93.4519 292.459L90.3404 290.178L87.3127 290.069L85.8633 289.257Z" fill="black"/>
</g>
<g opacity="0.2">
<path d="M122.737 227.955L126.383 232.812L132.594 235.892L132.767 233.746L127.717 231.923L125.746 228.065L122.737 227.955Z" fill="black"/>
</g>
<path d="M146.501 262.594C143.706 240.523 154.303 226.435 170.762 224.335C187.292 222.215 201.039 233.18 203.861 255.256C206.682 277.333 196.13 291.396 179.626 293.515C163.122 295.634 149.329 284.67 146.501 262.594ZM188.258 257.247C186.326 242.057 180.154 236.433 172.417 237.425C164.681 238.417 160.229 245.393 162.175 260.616C164.12 275.838 170.279 281.43 177.919 280.451C185.662 279.433 190.204 272.443 188.258 257.247Z" fill="#427CAF"/>
<g opacity="0.4">
<path d="M146.501 262.594C143.706 240.523 154.303 226.435 170.762 224.335C187.292 222.215 201.039 233.18 203.861 255.256C206.682 277.333 196.13 291.396 179.626 293.515C163.122 295.634 149.329 284.67 146.501 262.594ZM188.258 257.247C186.326 242.057 180.154 236.433 172.417 237.425C164.681 238.417 160.229 245.393 162.175 260.616C164.12 275.838 170.279 281.43 177.919 280.451C185.662 279.433 190.204 272.443 188.258 257.247Z" fill="black"/>
</g>
<path d="M140.852 263.836C138.03 241.76 148.653 227.678 165.093 225.571C181.533 223.465 195.37 234.422 198.185 256.493C201 278.563 190.455 292.639 173.951 294.752C157.517 296.858 143.706 285.907 140.852 263.836ZM182.609 258.49C180.676 243.293 174.505 237.676 166.768 238.661C159.031 239.647 154.58 246.636 156.525 261.852C158.471 277.068 164.629 282.666 172.276 281.687C179.922 280.708 184.554 273.68 182.609 258.49Z" fill="#427CAF"/>
<g opacity="0.2">
<path d="M159.166 292.8C159.166 292.8 165.144 290.171 165.608 290.042C166.072 289.914 175.097 291.634 175.097 291.634L182.898 288.355L188.883 288.181L190.68 286.428L181.359 285.179L173.106 288.245L162.303 287.749L156.196 291.273L159.166 292.8Z" fill="black"/>
</g>
<g opacity="0.2">
<path d="M152.827 288.812L160.88 285.057L169.177 285.546L160.893 283.427L152.744 286.029L149.51 285.482L152.827 288.812Z" fill="black"/>
</g>
<g opacity="0.2">
<path d="M178.383 279.008C178.383 279.008 183.691 279.439 184.606 279.504C185.521 279.568 191.653 276.553 191.653 276.553L196.317 277.197L196.961 275.316L191.602 274.788L184.567 278.009L180.148 276.953L178.383 279.008Z" fill="black"/>
</g>
<g opacity="0.2">
<path d="M162.413 277.977L157.955 278.054L152.009 279.787L145.555 279.562L144.131 276.54L150.425 277.043L157.234 275.284L161.009 276.122L162.413 277.977Z" fill="black"/>
</g>
<g opacity="0.2">
<path d="M182.357 271.245L188.265 271.058L195.621 266.278L198.52 266.922C198.52 266.922 198.72 263.469 198.617 261.627L193.695 263.766L187.421 268.745L182.841 268.945C182.724 269.72 182.563 270.488 182.357 271.245Z" fill="black"/>
</g>
<g opacity="0.2">
<path d="M158.941 272.025L152.467 272.218L147.442 272.946L142.45 271.703L141.896 269.596L146.482 271.22L150.959 269.332L158.297 270.208L158.941 272.025Z" fill="black"/>
</g>
<g opacity="0.2">
<path d="M140.852 263.837C140.852 263.837 145.58 265.963 146.327 265.866C147.075 265.77 154.657 265.622 154.657 265.622L157.195 265.918L156.809 263.798L151.082 263.019L145.625 263.18L140.472 258.89L140.852 263.837Z" fill="black"/>
</g>
<g opacity="0.2">
<path d="M183.085 265.151L186.158 264.564L192.046 259.495L195.685 254.283L198.037 255.423L197.85 254.219L193.907 252.524L189.527 258.805L182.988 262.071L183.085 265.151Z" fill="black"/>
</g>
<g opacity="0.2">
<path d="M150.199 232.104L156.306 235.756L165.512 232.593L175.523 235.189L182.854 232.084L174.382 232.336L167.013 230.042L157.041 232.845L153.671 229.521L150.199 232.104Z" fill="black"/>
</g>
<g opacity="0.2">
<path d="M140.594 252.718C140.594 252.718 151.12 258.304 151.545 258.561C151.97 258.819 156.216 258.426 156.216 258.426L156.138 255.972L152.234 255.495L141.283 248.209L140.594 252.718Z" fill="black"/>
</g>
<g opacity="0.2">
<path d="M180.554 249.272L183.942 245.613L194.03 241.818L195.551 245.407L186.796 247.474L181.861 254.619L180.554 249.272Z" fill="black"/>
</g>
<g opacity="0.2">
<path d="M142.404 244.047L148.453 249.851L156.557 249.613L157.35 246.598L150.631 246.797L144.111 240.021L142.404 244.047Z" fill="black"/>
</g>
<g opacity="0.2">
<path d="M165.66 238.855L168.881 237.464L178.892 237.818L187.801 232.941L189.805 235.145L179.137 241.303L174.679 240.498C174.679 240.498 171.6 237.702 165.66 238.855Z" fill="black"/>
</g>
<g opacity="0.2">
<path d="M146.205 236.555C146.205 236.555 154.818 242.507 154.644 242.024C154.47 241.541 148.453 233.798 148.453 233.798L146.205 236.555Z" fill="black"/>
</g>
<path d="M85.9916 122.442L86.1268 122.41C85.3794 122.405 84.6408 122.572 83.9688 122.9C83.3319 123.201 82.7348 123.579 82.1908 124.027C81.0506 124.929 80.0521 126.011 78.8345 126.804C76.9305 128.04 74.6256 128.501 72.3926 128.092C73.4362 129.883 75.7682 130.553 77.8232 130.282C79.8781 130.012 81.727 128.994 83.5758 128.047C86.6033 126.535 89.7357 125.243 92.9489 124.182C91.9748 123.422 90.8525 122.875 89.6543 122.576C88.4561 122.276 87.2084 122.231 85.9916 122.442Z" fill="#427CAF"/>
<g opacity="0.3">
<path d="M85.9916 122.442L86.1268 122.41C85.3794 122.405 84.6408 122.572 83.9688 122.9C83.3319 123.201 82.7348 123.579 82.1908 124.027C81.0506 124.929 80.0521 126.011 78.8345 126.804C76.9305 128.04 74.6256 128.501 72.3926 128.092C73.4362 129.883 75.7682 130.553 77.8232 130.282C79.8781 130.012 81.727 128.994 83.5758 128.047C86.6033 126.535 89.7357 125.243 92.9489 124.182C91.9748 123.422 90.8525 122.875 89.6543 122.576C88.4561 122.276 87.2084 122.231 85.9916 122.442Z" fill="black"/>
</g>
<path d="M188.38 160.141C188.38 160.141 192.722 161.719 196.233 160.411C199.744 159.103 201.561 158.536 201.561 158.536L202.901 158.446L203.822 166.724L201.393 169.713L199.924 167.993L199.383 163.226C199.383 163.226 192.162 164.708 187.35 163.407L188.38 160.141Z" fill="#263238"/>
<path d="M261.49 185.483C266.682 195.565 263.661 208.797 246.673 217.552C238.298 221.861 228.487 223.994 220.564 222.892L216.602 211.702L220.467 209.531C226.754 210.614 234.085 209.319 240.321 206.111C247.246 202.542 250.062 197.523 247.556 192.653C245.224 188.144 240.437 187.023 232.578 191.075L226.258 194.296L221.556 185.174L226.709 164.914L201.251 178.024L195.53 166.918L237.403 145.356L242.028 154.33L236.45 176.658C248.065 172.838 256.954 176.684 261.49 185.483Z" fill="#427CAF"/>
<g opacity="0.4">
<path d="M261.49 185.483C266.682 195.565 263.661 208.797 246.673 217.552C238.298 221.861 228.487 223.994 225.26 222.705L216.602 211.754L220.467 209.583C226.754 210.665 234.085 209.37 240.321 206.162C247.246 202.593 250.062 197.575 247.556 192.705C245.224 188.196 240.437 187.075 232.578 191.127L226.258 194.348L221.556 185.174L226.709 164.914L201.251 178.024L195.53 166.918L237.403 145.356L242.028 154.33L236.45 176.658C248.065 172.838 256.954 176.684 261.49 185.483Z" fill="black"/>
</g>
<path d="M257.599 187.661C262.792 197.743 259.77 210.975 242.783 219.729C234.408 224.039 224.591 226.171 216.674 225.07L216.596 211.702C222.884 212.791 230.221 211.496 236.457 208.288C243.375 204.719 246.197 199.701 243.685 194.831C241.353 190.322 236.599 189.201 228.714 193.253L222.388 196.474L217.678 187.332L222.832 167.072L197.335 180.214L191.614 169.108L233.487 147.547L238.106 156.521L232.527 178.848C244.2 175.015 253.064 178.861 257.599 187.661Z" fill="#427CAF"/>
<g opacity="0.2">
<path d="M241.913 204.307L249.882 207.27L251.647 209.628L250.552 205.118L244.2 200.764C243.688 202.089 242.91 203.295 241.913 204.307Z" fill="black"/>
</g>
<g opacity="0.2">
<path d="M244.541 199.089C244.541 199.089 249.54 199.623 250.049 199.507C250.558 199.391 257.863 196.873 257.863 196.873L259.879 197.852C259.924 196.653 259.87 195.453 259.718 194.264L257.509 194.515L251.26 197.227L244.174 195.997C244.517 196.989 244.642 198.044 244.541 199.089Z" fill="black"/>
</g>
<g opacity="0.2">
<path d="M242.641 193.253L249.231 191.12C249.367 190.682 254.121 186.746 254.552 186.283C255.094 185.907 255.708 185.65 256.356 185.529C255.654 184.517 254.952 183.474 254.353 183.158L248.181 189.458L240.605 191.546C241.386 191.981 242.076 192.56 242.641 193.253Z" fill="black"/>
</g>
<g opacity="0.2">
<path d="M242.054 177.386L239.587 184.71L234.034 191.152C234.788 190.947 235.561 190.815 236.34 190.759L239.78 188.034L245.546 184.086L249.347 179.203C248.645 178.858 247.922 178.558 247.182 178.307C247.182 178.307 240.798 186.037 240.979 185C241.159 183.963 243.691 177.495 243.691 177.495L242.054 177.373" fill="black"/>
</g>
<g opacity="0.2">
<path d="M236.469 177.812L235.825 185.297L232.069 191.739L228.726 193.227L231.566 185.632L232.539 178.855C233.824 178.419 235.137 178.07 236.469 177.812Z" fill="black"/>
</g>
<g opacity="0.2">
<path d="M224.926 186.257L218.838 189.768L220.197 192.28L226.504 187.745L229.712 180.633L224.926 186.257Z" fill="black"/>
</g>
<g opacity="0.2">
<path d="M233.319 175.82L225.724 179.131L217.774 186.933L219.089 181.76L226.039 176.233L233.886 173.392L233.319 175.82Z" fill="black"/>
</g>
<g opacity="0.2">
<path d="M235.058 168.683C235.058 168.683 227.057 172.162 225.814 172.355C224.57 172.549 220.66 175.576 220.66 175.576L221.755 171.26L228.197 168.948L237.396 159.626L236.565 162.737L232.494 168.11L235.664 166.654L235.058 168.683Z" fill="black"/>
</g>
<g opacity="0.2">
<path d="M195.717 176.941C195.717 176.941 204.408 177.025 205.921 175.943C207.435 174.861 211.017 171.743 211.017 171.743L223.624 166.763L229.138 163.941L214.148 167.684C214.148 167.684 205.728 170.39 205.818 170.596C205.909 170.802 202.32 173.695 202.32 173.695L193.108 172.007L195.717 176.941Z" fill="black"/>
</g>
<g opacity="0.2">
<path d="M198.011 165.817L206.791 167.678L218.638 161.906L229.409 160.979L220.583 159.864L211.384 163.498L203.57 162.956L198.011 165.817Z" fill="black"/>
</g>
<g opacity="0.2">
<path d="M216.608 220.966C216.608 220.966 221.594 216.984 222.078 216.849C222.561 216.714 233.538 217.558 233.538 217.558C233.538 217.558 242.969 212.868 243.31 212.72C243.652 212.572 251.646 213.609 251.646 213.609L243.916 210.04L232.179 215.316L223.057 212.23L216.615 216.263L216.608 220.966Z" fill="black"/>
</g>
<g opacity="0.2">
<path d="M216.692 225.025C216.692 225.025 220.351 221.333 221.717 221.159C223.083 220.986 228.204 221.469 228.204 221.469L234.459 218.647L241.14 217.05L247.633 216.869C247.633 216.869 244.535 218.873 243.124 219.549L238.614 219.356L230.581 221.971L226.188 223.904L222.4 222.873L218.741 225.321L216.692 225.025Z" fill="black"/>
</g>
<g opacity="0.2">
<path d="M219.089 155.181L224.88 157.165L235.458 156.096L230.742 154.33L225.492 155.67L221.653 153.57L219.089 155.181Z" fill="black"/>
</g>
<path d="M164.158 127.048L160.068 106.434C160.068 106.434 139.499 67.7824 134.094 54.061C128.689 40.3396 132.805 0 132.805 0C104.287 30.8377 109.498 72.7685 109.498 72.7685C130.821 96.7777 127.31 122.043 127.31 122.043L164.158 127.048ZM122.73 48.289C122.542 48.2099 122.376 48.0873 122.244 47.9312C122.113 47.7752 122.02 47.5902 121.974 47.3914C121.929 47.1927 121.93 46.9858 121.98 46.788C122.03 46.5901 122.126 46.4069 122.26 46.2533L123.548 44.7652C124.798 43.3093 127.072 43.4768 128.502 43.4253C129.932 43.3738 130.435 49.1586 128.257 49.6354C126.866 49.9317 124.379 49.004 122.73 48.289Z" fill="#455A64"/>
<g opacity="0.3">
<path d="M127.723 122.044C127.723 122.044 142.636 124.62 144.948 122.881C147.261 121.142 151.77 115.318 151.77 115.318L158.715 104.006L152.885 92.7197C152.885 92.7197 154.334 108.58 147.332 112.49C140.329 116.4 127.465 117.766 127.465 117.766L127.723 122.044Z" fill="black"/>
</g>
<g opacity="0.2">
<path d="M127.6 113.842C134.36 110.17 140.749 105.855 146.682 100.958C147.377 100.385 148.118 99.3864 147.532 98.6972C147.107 98.1947 146.308 98.3364 145.677 98.5232L127.066 104.005C126.7 104.07 126.366 104.256 126.119 104.534C125.921 104.935 125.891 105.398 126.035 105.822L127.871 114.544" fill="white"/>
</g>
<g opacity="0.2">
<path d="M143.614 75.2555C142.062 78.6246 140.232 82.3416 137.172 84.7316C134.112 87.1216 130.473 88.7127 126.788 90.072C125.815 90.4327 124.649 91.0447 124.739 92.0046C124.829 92.9644 126.086 93.3896 127.11 93.5184C134.5 94.4648 142.007 93.2989 148.761 90.1557C149.051 90.0608 149.319 89.9094 149.55 89.7104C149.781 89.5114 149.971 89.2687 150.108 88.9962C150.212 88.4768 150.113 87.9372 149.831 87.4888C148.407 84.5383 145.586 79.5651 143.627 75.249" fill="white"/>
</g>
<g opacity="0.2">
<path d="M118.968 85.3821C121.216 89.5436 124.901 78.3604 127.574 74.4308C128.236 73.5757 128.73 72.603 129.03 71.5641C129.174 71.0433 129.179 70.4939 129.045 69.9706C128.91 69.4473 128.641 68.9683 128.264 68.5815C127.845 68.2589 127.353 68.0443 126.832 67.9567C126.311 67.869 125.776 67.9111 125.275 68.079C124.277 68.4198 123.327 68.8851 122.447 69.464C118.59 71.6552 114.223 72.7865 109.788 72.743C109.788 72.743 116.81 81.3945 118.968 85.3821Z" fill="white"/>
</g>
<g opacity="0.2">
<path d="M133.642 52.8174C131.31 53.4616 128.894 55.4586 126.298 56.0384C123.702 56.6181 120.997 56.7856 118.568 57.7906C117.582 58.19 116.5 59.0081 116.706 60.0517C116.912 61.0953 118.059 61.411 119.038 61.5849C125.097 62.6352 131.295 62.5959 137.34 61.4689C135.923 58.248 134.873 56.2445 133.674 52.8303" fill="white"/>
</g>
<g opacity="0.2">
<path d="M110.297 48.9848C116.076 46.1108 121.469 42.5201 126.35 38.2976C126.801 37.9591 127.163 37.5172 127.407 37.0092C127.521 36.7513 127.542 36.4621 127.468 36.1901C127.395 35.918 127.23 35.6796 127.001 35.5147C126.6 35.3533 126.155 35.3396 125.745 35.476L112.448 38.2654C111.521 42.0017 110.799 45.5963 110.297 48.9913" fill="white"/>
</g>
<g opacity="0.2">
<path d="M131.272 27.7133C127.482 27.4176 123.848 26.0799 120.771 23.8481C123.561 21.194 127.626 20.247 131.478 19.416C131.317 21.9413 131.298 25.2975 131.272 27.739" fill="white"/>
</g>
<path d="M128.592 121.734C128.154 113.308 127.69 104.759 124.978 96.771C121.893 87.7072 116.037 79.8157 109.421 72.8906C120.785 86.2899 126.814 104.456 126.054 122.036L128.592 121.734Z" fill="#263238"/>
<path d="M270.528 35.4564C228.655 32.8796 196.787 46.7169 174.098 75.6349C174.098 75.6349 157.452 108.882 150.488 117.244C143.698 125.399 129.874 128.504 129.874 128.504L167.688 146.432L171.676 152.314L188.296 163.4C188.296 163.4 194.809 151.901 190.693 140.113C182.105 115.479 196.735 104.147 196.735 104.147C201.675 89.1306 212.241 76.6118 226.214 69.2187C235.458 48.9845 270.528 35.4564 270.528 35.4564ZM193.682 97.3637C193.409 97.5926 193.063 97.7143 192.707 97.706C192.351 97.6977 192.011 97.56 191.749 97.3186C191.508 97.0587 191.368 96.7217 191.352 96.3677C191.337 96.0137 191.448 95.6658 191.665 95.386L191.955 95.1283C192.255 94.94 192.615 94.8704 192.964 94.933C193.312 94.9957 193.625 95.1861 193.841 95.4672C194.057 95.7482 194.16 96.0996 194.131 96.4527C194.101 96.8058 193.941 97.1352 193.682 97.3766V97.3637ZM197.772 91.6368C196.381 91.9395 193.907 90.9926 192.245 90.2968C192.057 90.2174 191.89 90.0941 191.758 89.9373C191.627 89.7804 191.534 89.5945 191.489 89.3949C191.444 89.1953 191.446 88.9877 191.497 88.7895C191.548 88.5912 191.646 88.4079 191.781 88.2547L193.07 86.7731C194.319 85.3172 196.593 85.4847 198.024 85.4332C199.454 85.3816 199.956 91.1665 197.772 91.6368Z" fill="#455A64"/>
<g opacity="0.2">
<path d="M186.589 67.518C187.087 68.0514 187.691 68.4756 188.362 68.7639C189.033 69.0522 189.756 69.1983 190.486 69.193C191.946 69.1733 193.395 68.9322 194.783 68.4779C201.44 66.6077 207.909 64.1256 214.109 61.0632C214.908 60.6702 215.848 59.8521 215.397 59.0791C215.224 58.8701 215.003 58.7059 214.753 58.6005C214.503 58.4951 214.231 58.4515 213.961 58.4735C209.761 58.1514 204.298 57.8293 200.085 57.5137L186.589 67.518Z" fill="white"/>
</g>
<g opacity="0.2">
<path d="M247.42 43.4511C247.42 43.4511 240.154 39.7791 241.726 39.1027C243.297 38.4263 252 37.9561 252 37.9561L247.42 43.4511Z" fill="white"/>
</g>
<g opacity="0.2">
<path d="M216.061 47.0589C219.914 52.5326 225.724 56.3153 232.288 57.6237C232.619 57.737 232.971 57.7772 233.319 57.7417C233.667 57.7061 234.004 57.5955 234.305 57.4175C235.162 56.7089 234.73 55.3368 234.234 54.3447C232.812 51.5103 231.387 48.6736 229.956 45.8349C229.618 44.9404 229.007 44.1745 228.211 43.6446C227.206 43.1164 226.452 43.6446 225.073 44.0956C222.007 45.1392 216.055 47.0524 216.055 47.0524" fill="white"/>
</g>
<path d="M199.924 162.151C199.407 162.086 198.898 161.972 198.404 161.809C198.404 161.809 192.013 165.088 189.514 164.102C187.014 163.117 176.894 153.885 177.989 147.572C181.429 143.868 183.51 138.38 175.258 132.492C160.441 121.946 130.905 121.785 130.905 121.785C127.414 121.608 123.916 121.645 120.43 121.895C114.954 122.307 110.4 119.84 108.835 118.931C107.269 118.023 101.529 113.243 101.529 113.243C101.529 113.243 120.855 100.327 120.488 99.9276C120.121 99.5282 92.5621 109.629 92.5621 109.629C92.5621 109.629 58.0267 126.552 54.3677 129.96C51.1918 132.923 52.2354 133.394 52.2354 133.394C67.5415 124.89 84.9928 122.719 86.3328 122.623C87.7002 122.594 89.0646 122.761 90.3847 123.119C90.3847 123.119 87.8659 123.879 79.4849 129.181C73.6872 132.833 63.7601 138.637 61.5054 140.377C59.2507 142.116 59.3989 142.367 60.8612 142.664C62.3235 142.96 87.634 132.704 91.306 131.248C95.519 129.586 101.729 127.531 101.729 127.531C107.746 132.962 122.079 140.229 122.079 140.229C122.079 140.229 134.925 143.449 144.336 142.76C154.334 143.218 161.833 144.493 170.104 150.246C170.104 150.246 178.878 164.727 185.307 166.834C188.959 168.116 192.949 168.047 196.555 166.641L197.276 171.607L198.629 173.108L201.625 171.343C201.625 171.343 200.124 169.572 199.924 162.151Z" fill="#455A64"/>
<path d="M95.0683 117.077C95.1041 117.611 94.9807 118.144 94.7135 118.608C94.4464 119.072 94.0475 119.446 93.5675 119.683C93.0875 119.921 92.5479 120.01 92.017 119.94C91.4861 119.871 90.9877 119.645 90.5851 119.292C90.1825 118.939 89.8936 118.475 89.7551 117.958C89.6167 117.44 89.6348 116.894 89.8072 116.387C89.9795 115.88 90.2985 115.435 90.7236 115.11C91.1487 114.784 91.6608 114.592 92.1951 114.558C92.5493 114.534 92.9046 114.581 93.2407 114.694C93.5768 114.808 93.8872 114.987 94.1541 115.221C94.4209 115.455 94.6391 115.74 94.7959 116.058C94.9528 116.376 95.0453 116.722 95.0683 117.077Z" fill="white"/>
<path d="M94.5915 117.095C94.6211 117.535 94.5196 117.974 94.2997 118.356C94.0798 118.739 93.7515 119.047 93.3563 119.243C92.9611 119.438 92.5168 119.512 92.0795 119.455C91.6422 119.398 91.2317 119.213 90.8998 118.922C90.568 118.632 90.3297 118.25 90.2152 117.824C90.1006 117.398 90.115 116.948 90.2564 116.53C90.3978 116.112 90.66 115.746 91.0096 115.477C91.3593 115.209 91.7808 115.05 92.2208 115.021C92.5128 115.001 92.8059 115.039 93.0833 115.132C93.3607 115.225 93.6168 115.373 93.8371 115.566C94.0574 115.758 94.2374 115.993 94.3669 116.255C94.4963 116.518 94.5727 116.803 94.5915 117.095Z" fill="#263238"/>
<path d="M68.3337 123.756C68.2242 123.789 73.4873 120.168 73.6806 120.497C73.8738 120.825 73.5517 122.352 68.3337 123.756Z" fill="#263238"/>
<path d="M199.351 173.077C199.351 173.077 201.245 175.454 201.373 175.389C201.502 175.325 204.446 175.357 204.446 175.357L200.394 171.949L199.351 173.077Z" fill="#263238"/>
<path d="M200.201 172.168C200.201 172.168 202.198 174.404 202.327 174.339C202.456 174.275 205.393 174.301 205.393 174.301L201.354 170.899L200.201 172.168Z" fill="#263238"/>
<path d="M201.038 171.524C201.038 171.524 203.576 173.199 203.679 173.103C203.782 173.006 206.585 172.11 206.585 172.11L201.772 170.068L201.038 171.524Z" fill="#263238"/>
<g opacity="0.7">
<path d="M117.892 134.662C117.757 134.816 117.662 134.999 117.612 135.197C117.562 135.395 117.56 135.602 117.606 135.801C117.652 135.999 117.745 136.184 117.876 136.34C118.007 136.496 118.174 136.619 118.362 136.698C120.005 137.413 122.517 138.341 123.915 138.038C126.118 137.568 125.603 131.776 124.166 131.834C122.73 131.892 120.443 131.718 119.18 133.174C118.723 133.709 118.278 134.224 117.892 134.662Z" fill="white"/>
</g>
<g opacity="0.2">
<path d="M103.964 123.609C103.985 123.726 104.033 123.836 104.105 123.931C104.176 124.026 104.269 124.103 104.376 124.155C104.483 124.207 104.6 124.233 104.719 124.231C104.838 124.229 104.954 124.199 105.059 124.144C105.987 123.654 107.327 122.855 107.694 122.108C108.287 120.935 105.465 119.054 104.969 119.731C104.473 120.407 103.552 121.38 103.758 122.481C103.835 122.887 103.906 123.28 103.964 123.609Z" fill="white"/>
</g>
<g opacity="0.2">
<path d="M95.0683 121.083C94.9338 121.236 94.8376 121.419 94.7876 121.617C94.7375 121.814 94.735 122.021 94.7802 122.22C94.8255 122.418 94.9173 122.603 95.048 122.76C95.1787 122.916 95.3446 123.039 95.5321 123.119C97.1748 123.834 99.6936 124.762 101.092 124.459C103.288 123.989 102.773 118.197 101.336 118.255C99.8998 118.313 97.6129 118.139 96.3502 119.595L95.0683 121.083Z" fill="white"/>
</g>
<g opacity="0.7">
<path d="M130.486 136.976C130.314 136.735 130.095 136.531 129.842 136.377C129.697 136.289 129.535 136.235 129.367 136.218C129.199 136.201 129.029 136.221 128.869 136.277C128.71 136.333 128.565 136.423 128.444 136.542C128.324 136.661 128.231 136.804 128.173 136.963C128.049 137.285 128.024 137.638 128.102 137.974C128.208 138.293 128.376 138.587 128.597 138.839C128.819 139.092 129.089 139.297 129.391 139.443C129.528 139.531 129.682 139.59 129.843 139.614C130.004 139.638 130.168 139.628 130.325 139.585C130.476 139.507 130.605 139.393 130.703 139.254C130.8 139.115 130.863 138.954 130.885 138.786C130.948 138.473 130.945 138.15 130.877 137.839C130.808 137.527 130.675 137.233 130.486 136.976Z" fill="white"/>
</g>
<g opacity="0.7">
<path d="M121.647 129.606C121.553 129.48 121.434 129.373 121.3 129.291C121.224 129.245 121.139 129.218 121.051 129.209C120.964 129.2 120.875 129.211 120.792 129.241C120.709 129.27 120.633 129.318 120.571 129.38C120.508 129.442 120.46 129.517 120.43 129.6C120.369 129.767 120.357 129.948 120.398 130.122C120.452 130.289 120.54 130.443 120.657 130.575C120.773 130.707 120.915 130.813 121.074 130.888C121.146 130.934 121.227 130.964 121.311 130.976C121.396 130.988 121.482 130.982 121.564 130.959C121.641 130.918 121.707 130.859 121.758 130.787C121.808 130.716 121.841 130.633 121.854 130.547C121.885 130.384 121.883 130.217 121.848 130.055C121.813 129.893 121.744 129.741 121.647 129.606Z" fill="white"/>
</g>
<g opacity="0.7">
<path d="M114.007 131.783C114.059 132.466 113.962 133.767 114.439 134.044C114.915 134.321 115.083 134.218 115.927 134.044C116.771 133.87 117.718 133.645 117.557 132.666C117.396 131.686 117.602 131.152 116.97 130.888C116.339 130.623 113.975 131.223 114.007 131.783Z" fill="white"/>
</g>
<g opacity="0.7">
<path d="M125.249 138.297C125.249 138.561 125.249 139.07 125.417 139.179C125.584 139.289 125.661 139.243 126.003 139.179C126.344 139.115 126.705 139.024 126.647 138.638C126.589 138.251 126.647 138.045 126.415 137.942C126.183 137.839 125.236 138.071 125.249 138.297Z" fill="white"/>
</g>
<g opacity="0.2">
<path d="M82.5645 117.566C82.6096 118.249 82.5194 119.55 82.9897 119.827C83.4599 120.104 83.6339 119.995 84.4842 119.827C85.3346 119.66 86.2751 119.428 86.114 118.449C85.953 117.47 86.1527 116.935 85.5278 116.671C84.9029 116.407 82.5065 117.006 82.5645 117.566Z" fill="white"/>
</g>
<path d="M74.7372 120.11C74.7759 120.11 74.8596 120.362 74.7759 120.787C74.6489 121.33 74.3535 121.819 73.932 122.185C73.5239 122.539 73.0575 122.82 72.5534 123.016C72.1733 123.17 71.9092 123.235 71.9092 123.196C71.9092 123.157 72.1024 123.022 72.4503 122.816C72.9079 122.573 73.3395 122.283 73.7387 121.953C74.1132 121.619 74.4007 121.199 74.5762 120.729C74.6921 120.362 74.6857 120.11 74.7372 120.11Z" fill="#263238"/>
<path d="M61.1387 142.49C61.1387 142.49 61.1902 142.445 61.3062 142.368L61.8086 142.046L63.7412 140.815L70.982 136.357L81.7659 129.774C83.859 128.427 86.0438 127.228 88.3044 126.186C89.5161 125.65 90.7786 125.238 92.073 124.955C92.7355 124.811 93.407 124.712 94.0829 124.659C94.4124 124.649 94.7402 124.608 95.0621 124.536C95.2023 124.509 95.3339 124.449 95.4459 124.36C95.558 124.272 95.6473 124.158 95.7063 124.028C95.7454 123.89 95.7468 123.745 95.7106 123.606C95.6743 123.468 95.6016 123.342 95.5001 123.242C95.2785 123.024 94.995 122.88 94.6884 122.829C94.0499 122.723 93.4001 122.702 92.7558 122.765C91.4625 122.89 90.1995 123.232 89.0195 123.776C86.7923 124.854 84.6401 126.081 82.5775 127.448L71.8452 134.077L64.598 138.516L62.6139 139.714L62.0985 140.017L61.9117 140.113C61.9647 140.069 62.0206 140.028 62.0792 139.991L62.5817 139.662L64.5143 138.412L71.7164 133.903L82.4165 127.197C84.4899 125.814 86.6551 124.575 88.8971 123.486C90.1179 122.924 91.4245 122.572 92.7623 122.443C93.4474 122.377 94.1383 122.4 94.8173 122.514C95.1854 122.581 95.5245 122.759 95.79 123.023C95.9284 123.166 96.0268 123.343 96.0754 123.536C96.124 123.73 96.1211 123.932 96.067 124.124C95.9892 124.306 95.868 124.465 95.7141 124.589C95.5603 124.712 95.3784 124.796 95.1845 124.833C94.8433 124.908 94.4963 124.953 94.1473 124.968C93.482 125.021 92.8212 125.12 92.1696 125.264C90.8954 125.54 89.6522 125.944 88.4591 126.469C86.2076 127.502 84.0294 128.688 81.9398 130.019L71.1495 136.544L63.825 140.925L61.8344 142.097L61.3126 142.4L61.1387 142.49Z" fill="#263238"/>
<path d="M64.8556 140.113C64.8169 140.19 64.3724 139.984 64.2114 139.469C64.0503 138.953 64.2114 138.496 64.2951 138.535C64.3789 138.573 64.3467 138.94 64.5077 139.366C64.6688 139.791 64.9071 140.035 64.8556 140.113Z" fill="#263238"/>
<path d="M67.69 138.245C67.69 138.328 67.2068 138.245 66.9491 137.755C66.6915 137.265 66.8718 136.834 66.9491 136.873C67.0264 136.911 67.0264 137.246 67.2261 137.607C67.4258 137.968 67.7415 138.148 67.69 138.245Z" fill="#263238"/>
<path d="M71.0265 136.434C70.9427 136.434 70.7752 136.106 70.5111 135.719C70.247 135.333 69.9893 135.036 70.0473 134.966C70.1053 134.895 70.4789 135.107 70.7752 135.545C71.0716 135.983 71.1102 136.415 71.0265 136.434Z" fill="#263238"/>
<path d="M74.0931 134.437C74.0093 134.437 73.8096 134.147 73.4489 133.832C73.0881 133.516 72.8047 133.323 72.8047 133.233C72.8047 133.142 73.2685 133.233 73.6486 133.606C74.0287 133.98 74.1768 134.411 74.0931 134.437Z" fill="#263238"/>
<path d="M77.7911 132.351C77.7203 132.402 77.4497 132.138 77.1147 131.829C76.7797 131.52 76.4705 131.275 76.5349 131.185C76.5994 131.094 76.9601 131.249 77.3273 131.584C77.6945 131.919 77.862 132.286 77.7911 132.351Z" fill="#263238"/>
<path d="M80.4959 130.862C80.4057 130.862 80.264 130.489 79.9741 130.083C79.6842 129.677 79.3621 129.439 79.4137 129.329C79.4652 129.22 79.8968 129.432 80.2318 129.902C80.5668 130.373 80.5732 130.856 80.4959 130.862Z" fill="#263238"/>
<path d="M84.9804 127.924C84.8902 127.924 84.8 127.525 84.5488 127.113C84.2975 126.7 83.9883 126.423 84.0399 126.346C84.0914 126.269 84.523 126.455 84.8193 126.951C85.1157 127.448 85.0835 127.924 84.9804 127.924Z" fill="#263238"/>
<path d="M88.8704 125.986C88.7867 125.986 88.7867 125.587 88.5805 125.181C88.3744 124.775 88.0781 124.537 88.1167 124.466C88.1554 124.395 88.6127 124.53 88.864 125.045C89.1152 125.561 88.9477 126.018 88.8704 125.986Z" fill="#263238"/>
<path d="M92.8138 124.942C92.7236 124.942 92.8138 124.363 92.5239 123.763C92.234 123.164 91.8153 122.823 91.8797 122.746C91.9441 122.668 92.5239 122.926 92.8331 123.641C93.1423 124.356 92.8653 124.975 92.8138 124.942Z" fill="#263238"/>
<path d="M96.9169 117.817C96.9169 117.849 96.7688 117.778 96.524 117.784C96.1735 117.821 95.8451 117.973 95.5899 118.216C95.2278 118.616 94.9022 119.047 94.6171 119.504C94.4046 119.79 94.1351 120.029 93.8258 120.205C93.5164 120.381 93.1739 120.491 92.8198 120.529C92.1143 120.605 91.4032 120.447 90.7971 120.078C90.312 119.785 89.8931 119.394 89.5666 118.931C89.2418 118.531 89.0087 118.065 88.8838 117.565C88.9353 117.565 89.1672 118.081 89.7406 118.796C90.0724 119.211 90.4787 119.561 90.9388 119.827C91.4967 120.147 92.1416 120.282 92.7812 120.213C93.0954 120.184 93.4002 120.089 93.6762 119.936C93.9523 119.783 94.1937 119.575 94.3852 119.324C94.6908 118.857 95.0472 118.424 95.4482 118.036C95.7468 117.779 96.1305 117.644 96.524 117.656C96.8074 117.694 96.9234 117.81 96.9169 117.817Z" fill="#263238"/>
<path d="M95.899 116.741C95.527 116.371 95.1764 115.98 94.849 115.569C94.4732 115.161 94.0199 114.833 93.5155 114.603C93.216 114.455 92.8876 114.375 92.5535 114.368C92.2195 114.361 91.8881 114.428 91.5829 114.564C91.0019 114.911 90.4781 115.345 90.0304 115.852C89.6296 116.297 89.108 116.615 88.5294 116.767C88.1275 116.855 87.7071 116.784 87.357 116.568C87.1122 116.4 87.0542 116.239 87.0671 116.233C87.08 116.226 87.1831 116.342 87.415 116.458C87.7463 116.617 88.1245 116.649 88.4779 116.548C89.0024 116.38 89.4689 116.067 89.8243 115.646C90.2801 115.091 90.8295 114.621 91.4476 114.255C91.7892 114.104 92.16 114.031 92.5332 114.041C92.9064 114.051 93.2728 114.144 93.6057 114.313C94.1343 114.573 94.6019 114.942 94.9778 115.395C95.229 115.692 95.4593 116.007 95.6671 116.336C95.7669 116.457 95.8453 116.594 95.899 116.741Z" fill="#263238"/>
<path d="M97.2515 118.319C97.2515 118.319 97.2515 118.48 97.142 118.738C96.9955 119.102 96.8004 119.444 96.5622 119.756C95.7777 120.816 94.6116 121.529 93.3106 121.744C92.0097 121.959 90.6761 121.66 89.592 120.909C89.265 120.689 88.9683 120.427 88.7095 120.13C88.5355 119.917 88.4582 119.788 88.4711 119.775C88.484 119.762 88.8898 120.226 89.708 120.722C90.7698 121.385 92.0366 121.639 93.2718 121.436C94.507 121.233 95.6263 120.588 96.4205 119.621C96.7226 119.203 97.0001 118.769 97.2515 118.319Z" fill="#263238"/>
<path d="M66.1182 124.472C67.0573 123.705 68.0618 123.021 69.1201 122.43C70.1228 121.748 71.1834 121.155 72.2896 120.658C71.3509 121.426 70.3464 122.109 69.2876 122.7C68.2841 123.381 67.2237 123.974 66.1182 124.472Z" fill="#263238"/>
<g opacity="0.3">
<path d="M139.138 133.471C147.222 136.744 156.531 136.087 164.674 139.269C170.078 141.369 174.704 145.163 178.53 149.525C182.247 153.827 185.608 158.425 188.58 163.272C187.008 156.83 185.449 150.349 182.138 144.59C178.827 138.831 173.338 133.999 166.857 132.569C157.98 130.637 144.987 136.988 139.46 133.304" fill="black"/>
</g>
<path d="M188.58 163.271C188.553 163.219 188.535 163.162 188.528 163.104C188.489 162.975 188.444 162.807 188.393 162.601C188.27 162.137 188.109 161.493 187.897 160.669C187.465 158.987 186.827 156.559 185.868 153.583C184.77 150.129 183.292 146.808 181.461 143.681C179.175 139.868 175.913 136.735 172.011 134.605C169.991 133.525 167.801 132.797 165.537 132.453C163.418 132.192 161.274 132.21 159.159 132.504C155.094 132.981 151.506 133.896 148.433 134.366C147.049 134.588 145.647 134.679 144.246 134.637C143.183 134.596 142.131 134.405 141.122 134.07C140.487 133.86 139.881 133.572 139.318 133.213L138.893 132.91L138.751 132.801C139.502 133.286 140.311 133.674 141.16 133.954C142.163 134.263 143.203 134.432 144.252 134.456C145.642 134.484 147.031 134.379 148.401 134.141C151.448 133.651 155.036 132.711 159.127 132.208C161.262 131.904 163.428 131.88 165.569 132.137C167.87 132.485 170.094 133.223 172.146 134.321C176.109 136.485 179.414 139.679 181.712 143.565C183.547 146.717 185.013 150.07 186.08 153.557C187.021 156.514 187.626 158.955 188.013 160.643C188.206 161.487 188.354 162.144 188.444 162.576L188.547 163.084C188.57 163.144 188.581 163.208 188.58 163.271Z" fill="#263238"/>
<g opacity="0.2">
<path d="M139.324 133.207C146.41 130.714 153.76 127.905 158.792 122.314C166.941 113.295 167.128 99.0645 175.174 89.9169C175.863 89.1309 176.713 88.345 177.75 88.2935C178.395 88.2935 179.077 88.5512 179.747 88.5641C181.281 88.5641 182.434 87.2177 183.348 85.9873C184.998 83.7519 186.653 79.861 185.146 77.5225C184.65 76.7559 179.825 78.7401 179.412 77.9284C179 77.1167 181.345 74.4948 180.623 74.25C175.328 80.0929 173.434 82.8049 169.775 87.237C165.311 92.6483 163.803 100.392 160.847 106.743C156.054 116.97 148.277 125.504 138.538 131.223" fill="black"/>
</g>
<path d="M132.412 129.399C133.539 131.648 135.633 133.026 139.138 133.207C139.138 133.207 157.014 120.613 158.463 119.44C159.913 118.268 171.173 87.8229 172.636 86.1802C174.098 84.5375 178.601 77.6446 178.601 77.6446L179.161 74.7715C179.161 74.7715 171.244 81.8061 170.658 82.869C170.072 83.932 154.74 112.283 150.488 116.309C145.637 120.896 140.02 129.013 132.412 129.399Z" fill="#263238"/>
<path d="M174.194 80.8142C174.413 80.6982 179.168 74.8038 179.168 74.8038C200.561 49.0359 232.211 35.714 270.528 35.5078C233.016 38.3358 200.639 50.6722 180.082 75.6606L176.397 80.6531L174.194 80.8142Z" fill="#263238"/>
<path d="M226.214 69.2188C226.046 69.2876 225.874 69.3457 225.699 69.3927L224.21 69.8436C223.566 70.0433 222.767 70.2623 221.833 70.4878C220.899 70.7133 219.849 71.0161 218.67 71.2866C213.968 72.4269 207.41 73.6766 200.169 75.0616C196.549 75.7638 193.083 76.4724 189.997 77.1746C188.445 77.5547 186.963 77.8832 185.591 78.2568L183.607 78.7786L181.79 79.3069C180.624 79.629 179.587 79.9511 178.679 80.2732L177.39 80.679L176.334 81.0655L174.871 81.5873C174.703 81.6572 174.528 81.7112 174.35 81.7484C174.511 81.6665 174.676 81.5934 174.846 81.5293L176.295 80.9496L177.339 80.5373L178.627 80.1057C179.535 79.79 180.56 79.4615 181.732 79.0943L183.549 78.5403L185.533 78.0056C186.905 77.6191 188.387 77.2777 189.933 76.8911C193.051 76.1761 196.491 75.4546 200.111 74.7524C207.358 73.3674 213.923 72.1756 218.625 71.0676C219.804 70.8099 220.867 70.5458 221.801 70.3203C222.735 70.0949 223.534 69.8952 224.185 69.7148L225.686 69.3218C225.858 69.2699 226.035 69.2354 226.214 69.2188Z" fill="#263238"/>
<path d="M196.749 104.148C196.598 104.082 196.451 104.007 196.31 103.922C196.027 103.774 195.628 103.516 195.087 103.239C193.57 102.428 191.996 101.729 190.377 101.146C187.988 100.267 185.493 99.7122 182.956 99.4965C182.241 99.4127 181.507 99.4321 180.76 99.4063C180.012 99.3805 179.246 99.4643 178.473 99.5867C176.875 99.7835 175.316 100.218 173.847 100.875C171.008 102.172 168.544 104.166 166.684 106.673C165.848 107.747 165.074 108.868 164.365 110.029C163.682 111.111 163.076 112.149 162.535 113.089C161.447 114.977 160.564 116.51 159.958 117.553C159.643 118.049 159.398 118.449 159.211 118.745C159.133 118.889 159.037 119.023 158.928 119.144C158.994 118.996 159.07 118.852 159.153 118.713L159.849 117.489L162.368 112.98C162.909 112.026 163.489 110.983 164.171 109.887C164.877 108.712 165.649 107.579 166.484 106.492C168.36 103.937 170.86 101.906 173.744 100.592C175.243 99.9294 176.832 99.4951 178.46 99.3032C179.229 99.2067 180.003 99.1508 180.779 99.1357C181.539 99.1357 182.286 99.1357 183.008 99.2324C185.567 99.4627 188.082 100.048 190.48 100.972C192.102 101.573 193.67 102.308 195.17 103.168C195.705 103.458 196.098 103.735 196.375 103.896C196.508 103.967 196.633 104.051 196.749 104.148Z" fill="#263238"/>
<path d="M134.686 129.265C134.417 129.444 134.111 129.559 133.79 129.6C133.031 129.767 132.247 129.793 131.478 129.677C130.711 129.557 129.971 129.301 129.294 128.923C128.785 128.62 128.521 128.369 128.54 128.337C129.486 128.812 130.491 129.156 131.529 129.361C132.581 129.468 133.642 129.435 134.686 129.265Z" fill="#263238"/>
<path d="M105.968 125.387C105.968 125.387 105.885 125.451 105.704 125.548C105.524 125.644 105.253 125.767 104.899 125.921C104.197 126.231 103.172 126.656 101.897 127.165C99.3524 128.189 95.8222 129.561 91.9119 131.03L81.8625 134.824L78.8154 135.945C78.0939 136.203 77.7074 136.357 77.6945 136.338C77.6816 136.319 77.7782 136.28 77.9651 136.19C78.1519 136.1 78.4224 135.984 78.7703 135.829C79.4789 135.533 80.5096 135.121 81.7852 134.612C84.3619 133.607 87.8728 132.241 91.7831 130.746L105.968 125.387Z" fill="#263238"/>
<path d="M272.654 186.147C272.791 186.474 272.899 186.813 272.976 187.159C273.073 187.487 273.182 187.887 273.285 188.363C273.389 188.84 273.517 189.375 273.614 189.974C273.865 191.382 274.035 192.804 274.123 194.232C274.215 195.982 274.196 197.735 274.065 199.482C273.917 201.227 273.652 202.959 273.273 204.668C272.962 206.065 272.567 207.442 272.087 208.791C271.9 209.371 271.681 209.88 271.501 210.331C271.321 210.782 271.153 211.162 271.005 211.464C270.869 211.791 270.71 212.108 270.528 212.411C270.624 212.071 270.747 211.74 270.896 211.419C271.024 211.104 271.179 210.717 271.34 210.266C271.501 209.815 271.701 209.3 271.875 208.72C272.319 207.371 272.691 205.999 272.989 204.61C273.347 202.909 273.601 201.188 273.749 199.457C273.878 197.722 273.906 195.982 273.833 194.245C273.759 192.828 273.613 191.415 273.395 190.013C273.318 189.414 273.195 188.872 273.112 188.402C273.028 187.932 272.938 187.52 272.86 187.191C272.768 186.848 272.699 186.5 272.654 186.147Z" fill="#263238"/>
<path d="M277.865 205.789C277.814 205.789 278.11 204.881 278.439 203.406C279.294 199.549 279.294 195.551 278.439 191.694C278.116 190.219 277.794 189.323 277.872 189.311C277.983 189.501 278.07 189.704 278.129 189.916C278.335 190.482 278.511 191.058 278.658 191.643C279.641 195.519 279.641 199.58 278.658 203.457C278.512 204.039 278.336 204.614 278.129 205.177C278.067 205.391 277.978 205.597 277.865 205.789Z" fill="#263238"/>
<path d="M191.472 192.428C191.318 192.441 191.164 192.425 191.015 192.383C190.606 192.317 190.205 192.211 189.817 192.067C189.236 191.861 188.679 191.593 188.155 191.269C186.86 190.461 185.776 189.357 184.992 188.048C184.673 187.521 184.412 186.962 184.212 186.379C184.069 185.989 183.966 185.585 183.903 185.175C183.858 184.885 183.845 184.724 183.903 184.724C183.961 184.724 184.071 185.368 184.451 186.302C184.677 186.858 184.953 187.393 185.275 187.9C185.674 188.513 186.131 189.087 186.641 189.613C187.163 190.128 187.732 190.591 188.342 190.998C188.847 191.323 189.379 191.603 189.933 191.836C190.848 192.261 191.479 192.37 191.472 192.428Z" fill="#263238"/>
<path d="M194.539 191.436C194.005 191.356 193.488 191.193 193.005 190.953C191.816 190.421 190.726 189.689 189.784 188.789C188.838 187.886 188.052 186.83 187.459 185.664C187.199 185.19 187.01 184.68 186.898 184.15C186.95 184.15 187.175 184.704 187.659 185.555C188.919 187.793 190.822 189.601 193.121 190.747C193.952 191.191 194.558 191.385 194.539 191.436Z" fill="#263238"/>
<path d="M53.1502 158.763V235.255L44.4987 226.874L40.4531 228.806C40.4531 228.806 49.4719 241.046 53.1245 245.845V294.997H63.8246V158.763H53.1502Z" fill="#455A64"/>
<path d="M127.032 191.578L13.4991 216.36L6.92188 186.205L120.449 161.423L122.71 171.794L118.11 177.173L124.114 178.211L127.032 191.578Z" fill="#455A64"/>
<path d="M120.449 161.423C120.449 161.423 120.262 161.481 119.882 161.571L118.207 161.964L111.765 163.42L87.769 168.734L6.97384 186.463L7.16066 186.173C8.18493 191.107 9.26718 196.325 10.3816 201.634L13.5124 216.74L13.2226 216.553L94.1788 198.703L118.259 193.446L124.765 192.048L126.453 191.694L127.033 191.591C127.033 191.591 126.84 191.649 126.466 191.739L124.785 192.138L118.297 193.62L94.2432 199.018L13.3256 217.056L13.0873 217.107L13.0357 216.869L9.89206 201.73C8.79048 196.441 7.70823 191.23 6.67107 186.27L6.62598 186.031L6.85789 185.98L87.6595 168.425L111.694 163.272L118.182 161.9L119.869 161.552L120.449 161.423Z" fill="#263238"/>
<path d="M124.592 183.036L123.406 183.223C122.627 183.365 121.474 183.461 120.011 183.771C115.875 184.602 111.805 185.739 107.836 187.172C102.792 188.924 96.9428 191.43 90.3784 194.058C87.0995 195.347 83.6208 196.635 79.9489 197.827C76.1681 199.045 72.2882 199.931 68.3534 200.475C64.4097 200.993 60.4261 201.14 56.455 200.913C52.5899 200.752 48.9179 200.404 45.3942 200.159C41.8704 199.914 38.5142 199.721 35.3769 199.792C32.464 199.833 29.5595 200.115 26.6932 200.636C22.5241 201.33 18.5307 202.831 14.9366 205.055C14.3755 205.401 13.8336 205.777 13.3132 206.182C12.9171 206.46 12.5364 206.759 12.173 207.078C11.5803 207.593 11.2646 207.857 11.2646 207.857C11.2646 207.857 11.561 207.574 12.1472 207.045C12.4371 206.775 12.7914 206.472 13.2745 206.124C13.7943 205.712 14.3362 205.33 14.8979 204.977C18.4871 202.716 22.4863 201.184 26.6674 200.468C29.5367 199.934 32.4458 199.641 35.364 199.592C38.5142 199.515 41.8704 199.695 45.4006 199.94C48.9308 200.185 52.6156 200.52 56.455 200.681C60.4154 200.908 64.3883 200.761 68.3212 200.243C72.2561 199.703 76.1362 198.819 79.9167 197.601C83.5822 196.455 87.0608 195.166 90.3398 193.852C96.8977 191.237 102.76 188.744 107.817 187.004C111.792 185.579 115.871 184.461 120.018 183.661C121.487 183.358 122.646 183.274 123.426 183.146L124.592 183.036Z" fill="#263238"/>
<path d="M121.383 171.383C121.383 171.383 120.971 171.331 120.191 171.209L116.764 170.674C112.57 170.014 108.345 169.569 104.105 169.341C98.7651 169.128 92.2458 169.263 85.4624 171.428C85.0373 171.563 84.6121 171.692 84.174 171.84L82.8856 172.336C82.0353 172.652 81.2043 173.038 80.3604 173.438C78.6597 174.273 77.0079 175.204 75.413 176.227C72.1404 178.288 68.9388 180.704 65.5696 183.049C62.3206 185.379 58.8714 187.416 55.2625 189.137C51.8836 190.71 48.396 192.038 44.8265 193.111C38.7708 194.867 32.5838 196.134 26.3252 196.899C20.9848 197.595 16.6622 197.93 13.6474 198.188C10.6325 198.445 8.9834 198.51 8.9834 198.51C8.9834 198.51 9.39568 198.465 10.188 198.4L13.6409 198.11C16.6365 197.853 20.9719 197.466 26.3058 196.783C32.5536 195.997 38.7293 194.718 44.775 192.957C48.3343 191.885 51.8113 190.556 55.1787 188.982C58.7885 187.268 62.2379 185.235 65.4859 182.907C68.8486 180.562 72.0567 178.147 75.3357 176.085C76.9384 175.059 78.5989 174.125 80.3089 173.289C81.1528 172.89 81.9902 172.504 82.847 172.188L84.1354 171.692C84.5606 171.544 84.9857 171.415 85.4238 171.273C92.2458 169.115 98.7844 168.993 104.105 169.218C108.348 169.465 112.576 169.932 116.77 170.616C119.753 171.073 121.383 171.383 121.383 171.383Z" fill="#263238"/>
<path d="M66.6075 174.056C66.6075 174.056 66.4529 174.217 66.1437 174.513L64.7844 175.801L63.8246 176.703C63.4509 177.032 63.0322 177.348 62.5877 177.728C61.6923 178.449 60.7131 179.319 59.5149 180.137L57.666 181.464C57.0219 181.921 56.3132 182.334 55.5982 182.797C54.1809 183.744 52.5705 184.595 50.8955 185.522C47.1841 187.423 43.3206 189.011 39.3451 190.27C35.3651 191.465 31.2927 192.327 27.1698 192.847C25.2372 193.034 23.4528 193.246 21.7521 193.272C20.9017 193.272 20.0772 193.356 19.2848 193.343L17.0172 193.291C15.5678 193.291 14.2665 193.137 13.1198 193.047C12.5465 192.995 12.0118 192.963 11.5222 192.905L10.1887 192.705L8.34635 192.422C7.92762 192.357 7.70215 192.312 7.70215 192.312L8.34635 192.383L10.1952 192.628L11.5287 192.815C12.0118 192.866 12.5465 192.892 13.1198 192.944C14.2665 193.014 15.5678 193.169 16.985 193.156L19.2526 193.195C20.045 193.195 20.8631 193.137 21.7134 193.111C23.4141 193.079 25.2179 192.86 27.1182 192.673C31.2579 192.146 35.3473 191.28 39.3451 190.083C43.2924 188.826 47.1298 187.247 50.8182 185.361C52.4931 184.44 54.1036 183.603 55.5209 182.662C56.2359 182.205 56.9445 181.792 57.5887 181.342L59.4376 180.053C60.6358 179.241 61.6214 178.378 62.5233 177.67C62.9678 177.309 63.393 176.98 63.7666 176.665L64.7651 175.756C65.332 175.241 65.7958 174.829 66.1437 174.507C66.4915 174.185 66.6075 174.056 66.6075 174.056Z" fill="#263238"/>
<path d="M29.0955 210.704C28.9321 210.896 28.7285 211.049 28.499 211.152C28.2696 211.256 28.0201 211.307 27.7684 211.303C27.1964 211.313 26.6294 211.411 26.0871 211.593C25.9294 211.661 25.7893 211.765 25.6777 211.895C25.566 212.026 25.4857 212.18 25.4429 212.347C25.412 212.435 25.3995 212.529 25.406 212.622C25.4125 212.715 25.4379 212.806 25.4807 212.89C25.5235 212.973 25.5827 213.046 25.6549 213.106C25.727 213.165 25.8105 213.21 25.9003 213.236C26.3293 213.302 26.7673 213.283 27.1887 213.178C27.6482 213.101 28.1185 212.998 28.5995 212.869C29.6217 212.593 30.6062 212.193 31.5305 211.677C32.0202 211.396 32.4424 211.011 32.7674 210.55C32.9282 210.311 33.0292 210.037 33.0617 209.751C33.0942 209.465 33.0574 209.176 32.9542 208.907C32.721 208.342 32.2874 207.883 31.7367 207.619C31.1618 207.357 30.544 207.202 29.9136 207.161C27.4838 206.965 25.0391 207.247 22.7179 207.992C20.8204 208.596 18.9847 209.379 17.2358 210.331C15.7413 211.136 14.5624 211.857 13.7572 212.36L12.8295 212.946C12.6169 213.081 12.501 213.139 12.501 213.139C13.9961 212.067 15.5559 211.088 17.1714 210.208C18.9208 209.234 20.7612 208.434 22.6664 207.818C25.0089 207.059 27.4784 206.77 29.9329 206.968C30.5886 207.011 31.2307 207.175 31.8269 207.451C32.4103 207.735 32.8689 208.223 33.1153 208.823C33.2303 209.118 33.2711 209.437 33.2341 209.752C33.197 210.066 33.0832 210.367 32.9027 210.627C32.5667 211.113 32.1265 211.518 31.6143 211.812C30.671 212.332 29.667 212.732 28.6252 213.004C28.1421 213.133 27.6654 213.229 27.2015 213.307C26.7559 213.413 26.2932 213.426 25.8423 213.345C25.7333 213.314 25.6322 213.26 25.5456 213.187C25.459 213.113 25.3889 213.023 25.3398 212.92C25.2546 212.716 25.2432 212.488 25.3076 212.276C25.3599 212.094 25.4516 211.926 25.5763 211.783C25.701 211.641 25.8556 211.527 26.0291 211.451C26.588 211.277 27.17 211.188 27.7556 211.187C28.1185 211.169 28.4728 211.07 28.7927 210.897C28.9 210.844 29.0014 210.779 29.0955 210.704Z" fill="#263238"/>
<path d="M36.2398 182.282C36.0755 182.399 35.8854 182.474 35.6858 182.501C35.3987 182.551 35.1038 182.532 34.8259 182.444C34.5479 182.357 34.2949 182.204 34.0882 181.999L34.0431 181.954L34.1011 181.915C35.7762 180.994 37.6098 180.398 39.5059 180.156C40.7714 179.957 42.0604 179.957 43.326 180.156C43.6762 180.239 43.9984 180.412 44.2601 180.659C44.3955 180.799 44.4848 180.977 44.5159 181.169C44.547 181.362 44.5184 181.559 44.434 181.735C44.0281 182.443 43.2293 182.611 42.5723 182.881C39.0084 184.192 35.2305 184.824 31.4341 184.743C29.8646 184.728 28.3003 184.56 26.7637 184.241L27.0858 184.273L28.0134 184.389C32.9109 184.96 37.8743 184.38 42.5078 182.694C43.152 182.437 43.938 182.237 44.2601 181.651C44.3281 181.51 44.3516 181.352 44.3274 181.198C44.3033 181.044 44.2326 180.901 44.1248 180.788C43.8863 180.565 43.5928 180.409 43.2744 180.337C42.0335 180.138 40.7699 180.125 39.5252 180.298C37.6455 180.53 35.8231 181.099 34.1462 181.979V181.902C34.3417 182.101 34.5809 182.252 34.8447 182.342C35.1086 182.433 35.3899 182.461 35.6665 182.424C35.863 182.402 36.0558 182.354 36.2398 182.282Z" fill="#263238"/>
<path d="M124.063 187.03C123.865 187.088 123.662 187.129 123.457 187.153C123.064 187.217 122.504 187.327 121.814 187.475C120.017 187.879 118.263 188.457 116.577 189.201C114.893 189.951 113.288 190.866 111.784 191.933C111.211 192.338 110.753 192.686 110.444 192.931C110.288 193.066 110.122 193.188 109.948 193.298C110.081 193.142 110.23 192.999 110.393 192.873C110.689 192.609 111.134 192.229 111.681 191.817C114.68 189.593 118.138 188.066 121.801 187.346C122.504 187.204 123.09 187.12 123.463 187.082C123.662 187.05 123.862 187.032 124.063 187.03Z" fill="#263238"/>
<path d="M121.628 166.609C121.489 166.644 121.346 166.661 121.203 166.661C120.932 166.661 120.558 166.693 120.043 166.661C118.759 166.624 117.484 166.427 116.249 166.074C115.016 165.724 113.83 165.225 112.718 164.586C112.381 164.389 112.054 164.174 111.739 163.942C111.619 163.866 111.507 163.777 111.404 163.678C111.404 163.646 111.926 163.987 112.783 164.451C113.903 165.051 115.084 165.528 116.307 165.875C117.528 166.221 118.783 166.437 120.049 166.519C121.022 166.603 121.628 166.57 121.628 166.609Z" fill="#263238"/>
<path d="M48.3631 190.889L48.7368 192.641L41.3994 194.194L39.4023 184.724L46.5594 183.242L46.9266 185.001L41.9212 186.019L42.3592 188.074L46.7526 187.146L47.1134 188.853L42.72 189.781L43.1773 191.971L48.3631 190.889Z" fill="white"/>
<path d="M56.513 191.005L54.1295 188.751H54.02L52.0874 189.15L52.6414 191.791L50.4511 192.249L48.4541 182.779L52.577 181.954C55.1087 181.42 56.9639 182.399 57.4149 184.531C57.5781 185.162 57.5419 185.827 57.3112 186.436C57.0804 187.046 56.6665 187.568 56.1265 187.932L58.8901 190.509L56.513 191.005ZM52.8346 183.752L51.0502 184.132L51.7459 187.43L53.5304 187.056C54.8703 186.773 55.4114 186.006 55.1988 184.982C54.9863 183.958 54.1617 183.468 52.8346 183.752Z" fill="white"/>
<path d="M66.4525 188.904L64.0689 186.656H63.9594L62.0268 187.062L62.5873 189.697L60.3906 190.16L58.3936 180.691L62.4971 179.821C65.0223 179.293 66.8841 180.266 67.335 182.398C67.4983 183.028 67.462 183.694 67.2313 184.303C67.0006 184.912 66.5867 185.435 66.0466 185.799L68.8167 188.376L66.4525 188.904ZM62.7741 181.657L60.9897 182.031L61.6854 185.335L63.4698 184.955C64.8098 184.672 65.3573 183.912 65.1383 182.881C64.9193 181.85 64.114 181.374 62.7741 181.657Z" fill="white"/>
<path d="M68.7712 183.474C68.1721 180.659 69.9243 178.115 72.9198 177.483C75.9153 176.852 78.5372 178.456 79.1299 181.284C79.7225 184.112 77.9574 186.65 74.9812 187.275C72.0051 187.9 69.3638 186.283 68.7712 183.474ZM76.9138 181.754C76.7781 181.174 76.4742 180.647 76.0401 180.239C75.6061 179.83 75.0612 179.559 74.4737 179.459C73.8863 179.359 73.2824 179.435 72.7377 179.676C72.193 179.918 71.7317 180.315 71.4117 180.818C71.0916 181.321 70.927 181.907 70.9385 182.502C70.95 183.098 71.137 183.677 71.4762 184.167C71.8154 184.657 72.2916 185.036 72.8452 185.257C73.3987 185.477 74.0051 185.53 74.5883 185.407C74.9879 185.333 75.368 185.178 75.7049 184.951C76.0418 184.724 76.3283 184.43 76.5465 184.087C76.7647 183.744 76.91 183.36 76.9732 182.959C77.0364 182.558 77.0162 182.148 76.9138 181.754Z" fill="white"/>
<path d="M87.8138 184.402L85.4303 182.147H85.3207L83.3882 182.553L83.9486 185.188L81.7519 185.651L79.7549 176.182L83.8584 175.318C86.3837 174.784 88.2454 175.763 88.6963 177.895C88.8609 178.528 88.8247 179.197 88.5927 179.809C88.3608 180.42 87.9445 180.945 87.4015 181.31L90.1715 183.886L87.8138 184.402ZM84.1354 177.148L82.351 177.528L83.0467 180.826L84.8312 180.453C86.1711 180.169 86.7186 179.403 86.4996 178.372C86.2806 177.341 85.4754 176.865 84.1354 177.148Z" fill="white"/>
<path d="M24.4575 206.968L24.6186 206.382C25.3243 206.774 26.1497 206.893 26.9377 206.717C28.1552 206.459 28.5804 205.834 28.4451 205.19C28.065 203.405 24.2836 205.351 23.7747 202.935C23.575 201.982 24.1419 201.003 25.7974 200.642C26.5122 200.482 27.2582 200.536 27.9426 200.796L27.8267 201.396C27.2217 201.161 26.5628 201.103 25.9263 201.228C24.7345 201.479 24.3158 202.123 24.4511 202.774C24.8247 204.565 28.6126 202.639 29.115 205.009C29.3148 205.969 28.7285 206.942 27.0601 207.303C26.1811 207.52 25.2528 207.4 24.4575 206.968Z" fill="white"/>
<path d="M34.6294 203.302L30.5323 204.166C30.666 204.64 30.9825 205.042 31.4125 205.284C31.8424 205.526 32.3507 205.587 32.8256 205.454C33.1089 205.404 33.3779 205.293 33.6138 205.128C33.8496 204.963 34.0467 204.749 34.1913 204.5L34.6552 204.848C34.3809 205.291 33.9824 205.642 33.5095 205.859C33.0365 206.076 32.5101 206.149 31.9961 206.069C31.482 205.988 31.003 205.758 30.6189 205.407C30.2348 205.056 29.9627 204.599 29.8366 204.095C29.7706 203.782 29.7669 203.459 29.8257 203.144C29.8845 202.83 30.0047 202.53 30.1794 202.262C30.3541 201.994 30.5798 201.763 30.8437 201.582C31.1077 201.402 31.4046 201.275 31.7176 201.209C32.0306 201.143 32.3536 201.139 32.668 201.198C32.9824 201.257 33.2822 201.377 33.5502 201.551C33.8182 201.726 34.0492 201.952 34.2299 202.216C34.4106 202.48 34.5376 202.777 34.6036 203.09C34.6101 203.154 34.6165 203.212 34.6294 203.302ZM30.4292 203.676L33.9015 202.942C33.7804 202.506 33.4978 202.132 33.1112 201.898C32.7245 201.663 32.2629 201.584 31.8204 201.678C31.3778 201.771 30.9876 202.03 30.7291 202.401C30.4707 202.773 30.3634 203.228 30.4292 203.676Z" fill="white"/>
<path d="M37.8956 199.805L38.0309 200.449C37.9772 200.452 37.9235 200.452 37.8698 200.449C36.8455 200.668 36.3624 201.454 36.5814 202.607L37.1032 205.1L36.459 205.242L35.4219 200.346L36.0661 200.211L36.2658 201.17C36.3672 200.804 36.5773 200.478 36.8683 200.234C37.1593 199.99 37.5176 199.84 37.8956 199.805Z" fill="white"/>
<path d="M43.4288 198.703L42.2822 204.063L41.638 204.205L38.417 199.76L39.1063 199.618L41.8248 203.399L42.7975 198.838L43.4288 198.703Z" fill="white"/>
<path d="M43.8866 196.964C43.8639 196.838 43.8917 196.707 43.964 196.601C44.0363 196.495 44.1473 196.422 44.2732 196.397C44.3345 196.382 44.3983 196.379 44.4608 196.388C44.5233 196.398 44.5833 196.42 44.6372 196.453C44.6912 196.486 44.7381 196.529 44.7751 196.58C44.8121 196.632 44.8386 196.69 44.8529 196.751C44.868 196.815 44.87 196.881 44.8589 196.945C44.8478 197.009 44.8238 197.071 44.7882 197.126C44.7527 197.18 44.7065 197.228 44.6522 197.264C44.598 197.3 44.537 197.325 44.4729 197.338C44.4098 197.352 44.3446 197.353 44.2809 197.342C44.2173 197.331 44.1564 197.308 44.1019 197.273C44.0474 197.238 44.0003 197.193 43.9634 197.14C43.9264 197.087 43.9004 197.027 43.8866 196.964ZM44.3633 198.478L45.0075 198.342L46.0383 203.238L45.3941 203.374L44.3633 198.478Z" fill="white"/>
<path d="M46.8949 200.5C46.8141 200.17 46.8024 199.827 46.8607 199.493C46.919 199.158 47.0459 198.839 47.2335 198.556C47.4211 198.272 47.6653 198.031 47.9507 197.847C48.2361 197.663 48.5566 197.54 48.8919 197.485C49.2642 197.383 49.6569 197.381 50.0303 197.48C50.4036 197.578 50.7443 197.773 51.0178 198.046L50.5926 198.484C50.3848 198.287 50.131 198.144 49.8542 198.07C49.5775 197.996 49.2865 197.992 49.0079 198.059C48.5013 198.166 48.0579 198.469 47.7752 198.903C47.4925 199.337 47.3937 199.865 47.5005 200.371C47.6072 200.878 47.9109 201.321 48.3446 201.604C48.7783 201.887 49.3066 201.986 49.8131 201.879C50.0968 201.833 50.364 201.715 50.5894 201.537C50.8149 201.359 50.9912 201.126 51.1015 200.861L51.662 201.093C51.5212 201.451 51.2889 201.767 50.9883 202.008C50.6876 202.248 50.3291 202.406 49.9484 202.465C49.6182 202.551 49.2737 202.568 48.9368 202.514C48.5998 202.46 48.2776 202.337 47.9906 202.152C47.7037 201.968 47.4581 201.726 47.2695 201.441C47.0809 201.157 46.9534 200.836 46.8949 200.5Z" fill="white"/>
<path d="M56.8605 198.613L52.7635 199.476C52.8282 199.711 52.9388 199.931 53.089 200.124C53.2392 200.316 53.426 200.477 53.6386 200.596C53.8512 200.716 54.0854 200.793 54.3277 200.821C54.57 200.85 54.8156 200.831 55.0504 200.764C55.333 200.713 55.6011 200.6 55.8358 200.434C56.0706 200.268 56.2664 200.054 56.4096 199.804L56.8734 200.152C56.601 200.597 56.2029 200.951 55.7294 201.17C55.2559 201.389 54.7282 201.463 54.2128 201.383C53.6973 201.302 53.2173 201.07 52.8333 200.717C52.4493 200.364 52.1784 199.905 52.0548 199.399C51.9692 199.079 51.9502 198.746 51.9991 198.419C52.048 198.092 52.1636 197.778 52.3389 197.498C52.5141 197.217 52.7452 196.976 53.0177 196.789C53.2903 196.602 53.5984 196.472 53.923 196.409C54.2447 196.335 54.5785 196.328 54.9031 196.389C55.2277 196.45 55.5361 196.578 55.8086 196.764C56.0812 196.951 56.312 197.192 56.4865 197.472C56.6609 197.753 56.7751 198.067 56.8219 198.394C56.8348 198.464 56.8412 198.542 56.8605 198.613ZM52.6539 198.986L56.1326 198.252C56.0028 197.825 55.7176 197.462 55.3333 197.235C54.949 197.008 54.4935 196.933 54.0567 197.025C53.62 197.117 53.2336 197.37 52.9739 197.733C52.7142 198.096 52.6001 198.543 52.6539 198.986Z" fill="white"/>
<path d="M64.5201 194.226L65.5509 199.128L64.9067 199.257L64.7134 198.361C64.5929 198.696 64.3847 198.992 64.1104 199.219C63.8361 199.446 63.5059 199.594 63.1544 199.65C62.8786 199.738 62.5865 199.763 62.2998 199.723C62.0131 199.683 61.739 199.579 61.4978 199.419C61.2566 199.258 61.0545 199.046 60.9064 198.797C60.7583 198.548 60.6679 198.27 60.6421 197.981L60.043 195.14L60.6872 195.005L61.2734 197.775C61.4924 198.819 62.143 199.237 63.0771 199.064C63.3112 199.027 63.5345 198.94 63.7313 198.808C63.9282 198.677 64.0938 198.503 64.2166 198.301C64.3393 198.098 64.4163 197.871 64.442 197.636C64.4678 197.4 64.4416 197.162 64.3655 196.938L63.8244 194.361L64.5201 194.226Z" fill="white"/>
<path d="M71.3164 194.941L71.9155 197.782L71.2713 197.924L70.6851 195.147C70.6773 194.934 70.6208 194.725 70.5198 194.537C70.4188 194.349 70.2761 194.186 70.1026 194.062C69.929 193.938 69.7293 193.855 69.5188 193.819C69.3082 193.784 69.0923 193.798 68.8878 193.859C68.6499 193.891 68.4221 193.976 68.2204 194.106C68.0187 194.236 67.8479 194.409 67.7202 194.612C67.5924 194.815 67.5108 195.044 67.481 195.282C67.4513 195.521 67.4741 195.763 67.5479 195.991L68.089 198.568L67.4448 198.709L66.4141 193.807L67.0583 193.678L67.2515 194.58C67.385 194.23 67.6094 193.922 67.9015 193.688C68.1936 193.453 68.543 193.301 68.9135 193.247C69.1843 193.178 69.4669 193.168 69.7418 193.218C70.0167 193.269 70.2773 193.379 70.5057 193.54C70.7341 193.701 70.9249 193.909 71.0648 194.151C71.2048 194.393 71.2906 194.663 71.3164 194.941Z" fill="white"/>
<path d="M76.7726 193.588L77.4168 196.622L76.7726 196.757L76.6116 195.99C76.4875 196.303 76.2814 196.576 76.015 196.782C75.7485 196.987 75.4316 197.116 75.0977 197.156C73.9897 197.395 73.1651 196.957 73.0105 196.113C72.8559 195.269 73.2038 194.618 74.6081 194.322L76.1606 193.993L76.1026 193.697C76.0798 193.512 76.015 193.334 75.9132 193.177C75.8114 193.02 75.6753 192.889 75.5151 192.793C75.3549 192.696 75.1749 192.638 74.9887 192.622C74.8025 192.605 74.6151 192.632 74.4406 192.699C73.8436 192.814 73.3084 193.141 72.9332 193.62L72.5273 193.188C73.0017 192.623 73.6575 192.241 74.3826 192.106C75.6581 191.835 76.5085 192.318 76.7726 193.588ZM76.4441 195.288L76.2701 194.489L74.7369 194.811C73.7835 195.011 73.5581 195.456 73.6611 195.952C73.7642 196.448 74.3053 196.776 75.0977 196.596C75.4303 196.545 75.7387 196.392 75.98 196.157C76.2214 195.923 76.3836 195.619 76.4441 195.288Z" fill="white"/>
<path d="M82.2032 190.496L81.0566 195.856L80.3802 195.998L77.1592 191.559L77.8485 191.411L80.5605 195.192L81.5333 190.631L82.2032 190.496Z" fill="white"/>
<path d="M87.0792 191.411L87.7234 194.451L87.0792 194.58L86.9182 193.82C86.7919 194.131 86.5851 194.403 86.3191 194.608C86.0531 194.813 85.7374 194.943 85.4043 194.986C84.2963 195.218 83.4717 194.786 83.3171 193.936C83.1625 193.086 83.5104 192.448 84.9147 192.152L86.4673 191.823L86.4093 191.527C86.3862 191.341 86.3213 191.163 86.2195 191.007C86.1178 190.85 85.9819 190.718 85.8219 190.621C85.6619 190.525 85.4821 190.465 85.296 190.448C85.1099 190.431 84.9223 190.456 84.7472 190.522C84.1519 190.642 83.6181 190.968 83.2398 191.443L82.834 191.011C83.3104 190.449 83.9652 190.067 84.6893 189.929C85.9648 189.684 86.8151 190.148 87.0792 191.411ZM86.7507 193.118L86.5768 192.313L85.0436 192.641C84.0902 192.841 83.8647 193.285 83.9678 193.781C84.0708 194.277 84.612 194.606 85.4043 194.426C85.7377 194.377 86.0471 194.224 86.2888 193.989C86.5304 193.755 86.692 193.45 86.7507 193.118Z" fill="white"/>
<path d="M88.0136 187.655C87.9909 187.529 88.0186 187.399 88.0909 187.293C88.1632 187.187 88.2742 187.113 88.4001 187.088C88.4615 187.073 88.5252 187.07 88.5878 187.08C88.6503 187.089 88.7102 187.111 88.7642 187.144C88.8182 187.177 88.865 187.221 88.902 187.272C88.9391 187.323 88.9655 187.381 88.9799 187.443C88.995 187.506 88.997 187.572 88.9859 187.637C88.9748 187.701 88.9507 187.762 88.9152 187.817C88.8797 187.872 88.8334 187.919 88.7792 187.955C88.725 187.992 88.664 188.017 88.5998 188.029C88.5368 188.043 88.4715 188.045 88.4079 188.034C88.3442 188.023 88.2834 187.999 88.2289 187.964C88.1744 187.929 88.1273 187.884 88.0904 187.831C88.0534 187.778 88.0273 187.718 88.0136 187.655ZM88.4903 189.169L89.1345 189.034L90.1716 193.93L89.5275 194.072L88.4903 189.169Z" fill="white"/>
<path d="M90.5713 186.631L91.2155 186.489L92.6714 193.401L92.0272 193.537L90.5713 186.631Z" fill="white"/>
<path d="M97.5929 189.195L98.2371 192.229L97.5929 192.364L97.4319 191.597C97.307 191.91 97.1008 192.184 96.8346 192.39C96.5685 192.596 96.252 192.727 95.918 192.77C94.81 193.002 93.9854 192.564 93.8308 191.72C93.6762 190.876 94.0176 190.232 95.4284 189.935L96.9809 189.607L96.9165 189.304C96.8946 189.119 96.8307 188.941 96.7296 188.784C96.6285 188.628 96.4928 188.496 96.3331 188.4C96.1734 188.303 95.9937 188.245 95.8079 188.228C95.6221 188.212 95.435 188.238 95.2609 188.306C94.6633 188.424 94.1269 188.75 93.7471 189.227L93.3477 188.795C93.822 188.23 94.4778 187.848 95.2029 187.713C96.472 187.449 97.3223 187.925 97.5929 189.195ZM97.2579 190.902L97.0904 190.096L95.5572 190.425C94.6038 190.625 94.3784 191.069 94.4814 191.565C94.5845 192.061 95.1256 192.39 95.918 192.209C96.2509 192.161 96.5599 192.008 96.8007 191.773C97.0414 191.539 97.2015 191.233 97.2579 190.902Z" fill="white"/>
<path d="M104.479 188.357C104.564 188.682 104.581 189.021 104.528 189.353C104.476 189.685 104.355 190.002 104.173 190.285C103.991 190.568 103.753 190.81 103.473 190.996C103.193 191.182 102.878 191.307 102.546 191.365C102.17 191.455 101.776 191.443 101.405 191.33C101.035 191.217 100.702 191.006 100.44 190.721L100.646 191.694L100.002 191.823L98.6104 184.943L99.2545 184.801L99.8987 187.745C100.033 187.394 100.256 187.084 100.547 186.846C100.837 186.608 101.184 186.449 101.554 186.385C101.877 186.312 102.211 186.305 102.536 186.365C102.861 186.426 103.17 186.552 103.444 186.737C103.718 186.922 103.952 187.161 104.13 187.44C104.308 187.718 104.427 188.03 104.479 188.357ZM103.835 188.492C103.742 188.138 103.548 187.819 103.275 187.575C103.003 187.33 102.665 187.171 102.303 187.117C101.941 187.063 101.572 187.117 101.24 187.271C100.908 187.425 100.629 187.673 100.437 187.985C100.245 188.296 100.149 188.657 100.16 189.023C100.172 189.389 100.29 189.743 100.501 190.042C100.712 190.341 101.006 190.571 101.347 190.705C101.687 190.838 102.06 190.868 102.418 190.792C102.666 190.742 102.9 190.641 103.108 190.496C103.315 190.351 103.489 190.164 103.621 189.948C103.752 189.732 103.837 189.491 103.871 189.241C103.904 188.99 103.885 188.735 103.815 188.492H103.835Z" fill="white"/>
<path d="M104.892 183.609L105.536 183.468L106.985 190.38L106.341 190.515L104.892 183.609Z" fill="white"/>
<path d="M112.648 186.843L108.55 187.706C108.616 187.941 108.727 188.161 108.877 188.352C109.028 188.544 109.215 188.705 109.427 188.824C109.639 188.944 109.873 189.021 110.115 189.05C110.357 189.079 110.603 189.06 110.837 188.995C111.122 188.947 111.393 188.836 111.629 188.67C111.866 188.504 112.062 188.287 112.203 188.035L112.667 188.383C112.394 188.827 111.996 189.182 111.523 189.401C111.049 189.62 110.522 189.693 110.006 189.613C109.491 189.532 109.011 189.301 108.627 188.948C108.243 188.595 107.972 188.136 107.848 187.629C107.715 186.997 107.838 186.337 108.191 185.796C108.544 185.255 109.097 184.876 109.729 184.743C110.361 184.61 111.021 184.733 111.562 185.086C112.103 185.438 112.482 185.992 112.615 186.624C112.628 186.695 112.635 186.772 112.648 186.843ZM108.447 187.217L111.92 186.482C111.799 186.046 111.516 185.673 111.129 185.438C110.743 185.203 110.281 185.125 109.839 185.218C109.396 185.312 109.006 185.571 108.747 185.942C108.489 186.313 108.382 186.769 108.447 187.217Z" fill="white"/>
</svg>
