<svg width="300" height="304" viewBox="0 0 300 304" fill="none" xmlns="http://www.w3.org/2000/svg">
<path d="M112.666 11.7328C113.021 9.18741 109.417 7.09243 106.715 6.87406C105.425 6.76487 104.088 6.96277 102.866 6.53968C100.225 5.61843 99.1677 2.19957 96.5814 1.08043C94.6502 0.268365 92.4323 0.991716 90.5625 1.93344C88.6928 2.87516 86.8366 4.06254 84.7485 4.19902C82.9333 4.31503 80.9543 3.63945 79.3643 4.52658C78.1769 5.20899 77.5559 6.5738 76.464 7.35857C75.3278 8.06113 74.0122 8.41906 72.6767 8.389C71.345 8.3529 70.0184 8.56821 68.7665 9.02364C67.5586 9.57639 66.5623 10.8593 66.8148 12.1627L112.666 11.7328Z" fill="#F5F5F5"/>
<path d="M293.852 162.347C294.438 158.109 288.454 154.622 283.957 154.261C281.814 154.083 279.589 154.411 277.556 153.701C273.161 152.172 271.414 146.488 267.108 144.673C263.901 143.308 260.202 144.529 257.09 146.092C253.979 147.655 250.908 149.627 247.427 149.852C244.404 150.043 241.122 148.924 238.474 150.405C236.502 151.504 235.472 153.776 233.656 155.114C231.841 156.451 229.562 156.704 227.351 156.826C225.14 156.949 222.861 156.963 220.855 157.884C218.848 158.805 217.183 160.928 217.599 163.098L293.852 162.347Z" fill="#EBEBEB"/>
<path d="M66.3368 58.9214C66.7804 55.68 62.2014 53.0118 58.7621 52.732C57.1243 52.6023 55.4251 52.8548 53.8693 52.3089C50.505 51.1351 49.1607 46.7882 45.8715 45.4029C43.4216 44.3657 40.5896 45.2937 38.208 46.488C35.8264 47.6822 33.479 49.2176 30.8176 49.3677C28.5042 49.511 25.993 48.6853 23.9935 49.784C22.4854 50.6302 21.7006 52.3635 20.3085 53.3871C18.9164 54.4107 17.1763 54.6086 15.4839 54.6973C13.7915 54.786 12.0719 54.8065 10.516 55.5094C8.96011 56.2122 7.7113 57.8364 8.02521 59.4946L66.3368 58.9214Z" fill="#F5F5F5"/>
<path d="M247.495 235.562L232.312 301.483L238.733 301.462L253.944 236.183L247.495 235.562Z" fill="#E0E0E0"/>
<path d="M275.188 235.562L290.426 301.483H296.526L281.786 235.562H275.188Z" fill="#E0E0E0"/>
<path d="M237.245 186.054L245.891 231.441H255.711L246.478 186.054H237.245Z" fill="#E0E0E0"/>
<path d="M86.6864 235.562L74.3008 301.483H80.6062L93.5446 235.562H86.6864Z" fill="#E0E0E0"/>
<path d="M112.727 235.562L126.88 301.121H133.11L119.441 235.562H112.727Z" fill="#E0E0E0"/>
<path d="M76.4365 186.054L85.0826 231.441H94.9024L85.6695 186.054H76.4365Z" fill="#E0E0E0"/>
<path d="M56.9883 181.932L58.7557 190.182H256.005L253.706 181.932H56.9883Z" fill="#EBEBEB"/>
<path d="M60.7549 197.955L62.843 206.205H258.755L256.974 197.955H60.7549Z" fill="#EBEBEB"/>
<path d="M64.6514 214.544L66.5894 222.794H261.901L260.052 214.544H64.6514Z" fill="#EBEBEB"/>
<path d="M290.193 231.44H79.582V239.691H290.193V231.44Z" fill="#EBEBEB"/>
<path d="M204.851 129.257C203.224 129.258 201.625 128.83 200.215 128.018C198.805 127.206 197.633 126.037 196.817 124.628C196.002 123.22 195.571 121.622 195.567 119.995C195.564 118.368 195.989 116.768 196.799 115.357L223.413 68.953C224.216 67.5331 225.382 66.3528 226.793 65.5336C228.203 64.7144 229.807 64.2859 231.438 64.2922C233.064 64.2825 234.664 64.7044 236.074 65.5148C237.483 66.3252 238.653 67.4952 239.463 68.9052L266.35 115.152C267.167 116.561 267.6 118.16 267.604 119.789C267.608 121.418 267.184 123.019 266.374 124.433C265.563 125.846 264.396 127.021 262.988 127.84C261.58 128.659 259.981 129.094 258.352 129.1L204.858 129.264L204.851 129.257ZM231.465 67.0559C230.32 67.0524 229.195 67.354 228.206 67.9297C227.216 68.5055 226.398 69.3345 225.835 70.3315L199.222 116.735C198.653 117.725 198.355 118.847 198.357 119.988C198.359 121.129 198.661 122.25 199.233 123.237C199.804 124.225 200.626 125.045 201.614 125.616C202.603 126.186 203.724 126.486 204.865 126.487L258.359 126.323C259.498 126.316 260.615 126.011 261.598 125.437C262.582 124.863 263.398 124.042 263.965 123.054C264.532 122.067 264.83 120.948 264.83 119.809C264.829 118.67 264.53 117.551 263.961 116.564L237.075 70.3246C236.512 69.3309 235.696 68.5046 234.709 67.9302C233.722 67.3559 232.6 67.0541 231.458 67.0559H231.465Z" fill="#EBEBEB"/>
<path d="M226.238 87.1319L227.487 104.445C227.534 105.128 227.831 105.77 228.32 106.249C228.809 106.728 229.457 107.011 230.141 107.045C230.861 107.082 231.567 106.841 232.115 106.372C232.662 105.904 233.008 105.243 233.083 104.526L234.857 87.1046C234.888 86.7936 234.852 86.4795 234.753 86.1831C234.654 85.8867 234.493 85.6148 234.28 85.3852C234.068 85.1556 233.81 84.9736 233.522 84.8513C233.235 84.7289 232.924 84.6689 232.612 84.6753L228.388 84.7708C228.089 84.7774 227.795 84.8447 227.523 84.9684C227.252 85.0921 227.008 85.2698 226.807 85.4906C226.606 85.7114 226.452 85.9707 226.354 86.2529C226.256 86.535 226.217 86.8341 226.238 87.1319Z" fill="#EBEBEB"/>
<path d="M234.816 116.748C234.559 117.542 234.073 118.243 233.418 118.761C232.763 119.279 231.969 119.591 231.137 119.658C230.305 119.725 229.471 119.544 228.742 119.138C228.012 118.732 227.42 118.118 227.039 117.375C226.658 116.632 226.505 115.793 226.601 114.964C226.697 114.134 227.036 113.352 227.576 112.715C228.116 112.078 228.833 111.616 229.636 111.386C230.439 111.157 231.292 111.17 232.087 111.425C232.616 111.595 233.106 111.867 233.53 112.227C233.954 112.586 234.302 113.026 234.556 113.52C234.81 114.015 234.963 114.554 235.008 115.108C235.052 115.662 234.987 116.219 234.816 116.748Z" fill="#EBEBEB"/>
<path d="M299.999 301.401C299.999 301.497 232.837 301.578 150.007 301.578C67.1761 301.578 0 301.497 0 301.401C0 301.306 67.1488 301.224 150.007 301.224C232.864 301.224 299.999 301.299 299.999 301.401Z" fill="#263238"/>
<path d="M196.076 228.192L127.153 228.144C118.868 228.144 112.14 221.081 112.14 212.373V30.8534C112.14 22.1459 118.868 15.083 127.153 15.0898L196.041 15.1308C204.333 15.1308 211.054 22.1937 211.054 30.9012L211.02 212.421C211.089 221.136 204.367 228.192 196.076 228.192Z" fill="#263238"/>
<path d="M196.055 21.5586H182.694C181.792 21.6028 180.945 22.0025 180.337 22.6701C179.73 23.3378 179.412 24.219 179.452 25.1208V27.6661C179.493 28.569 179.174 29.4512 178.565 30.1191C177.956 30.7869 177.107 31.1858 176.204 31.2283H150.17C149.268 31.1841 148.419 30.7835 147.811 30.1143C147.204 29.4452 146.886 28.5622 146.929 27.6593V25.1208C146.97 24.219 146.652 23.3378 146.044 22.6701C145.437 22.0025 144.589 21.6028 143.688 21.5586H127.31C121.503 21.5586 116.794 26.506 116.794 32.6068V209.773C116.794 215.867 121.496 220.814 127.296 220.821L196.055 220.862C201.863 220.862 206.571 215.922 206.571 209.821L206.558 32.6272C206.558 26.4856 201.863 21.5586 196.055 21.5586Z" fill="white"/>
<path d="M135.533 204.096V208.429C135.532 208.514 135.509 208.597 135.466 208.67C135.422 208.743 135.36 208.804 135.286 208.845C135.211 208.886 135.127 208.906 135.042 208.904C134.957 208.902 134.875 208.877 134.803 208.832L131.391 206.662C131.323 206.619 131.267 206.559 131.229 206.489C131.19 206.418 131.17 206.339 131.17 206.259C131.17 206.179 131.19 206.1 131.229 206.03C131.267 205.959 131.323 205.9 131.391 205.857L134.803 203.686C134.875 203.641 134.959 203.616 135.044 203.614C135.13 203.612 135.214 203.633 135.289 203.675C135.363 203.717 135.425 203.778 135.468 203.852C135.511 203.926 135.533 204.01 135.533 204.096Z" fill="#E0E0E0"/>
<path d="M163.552 206.218C163.551 206.809 163.374 207.386 163.045 207.877C162.716 208.368 162.249 208.75 161.702 208.975C161.156 209.2 160.555 209.258 159.976 209.142C159.397 209.026 158.865 208.741 158.447 208.323C158.03 207.904 157.746 207.372 157.631 206.792C157.516 206.213 157.576 205.612 157.802 205.066C158.029 204.52 158.412 204.054 158.903 203.726C159.395 203.398 159.972 203.223 160.563 203.223C161.357 203.224 162.117 203.541 162.677 204.103C163.237 204.664 163.552 205.425 163.552 206.218Z" fill="#E0E0E0"/>
<path d="M189.258 203.611H186.297C185.592 203.611 185.021 204.183 185.021 204.887V207.863C185.021 208.567 185.592 209.139 186.297 209.139H189.258C189.963 209.139 190.534 208.567 190.534 207.863V204.887C190.534 204.183 189.963 203.611 189.258 203.611Z" fill="#E0E0E0"/>
<path d="M194.902 107.802C199.304 89.5802 188.1 71.2401 169.878 66.8384C151.656 62.4368 133.316 73.6404 128.914 91.8625C124.513 110.085 135.716 128.425 153.938 132.826C172.16 137.228 190.5 126.024 194.902 107.802Z" fill="#F5F5F5"/>
<path d="M163.423 114.775C163.422 115.33 163.256 115.873 162.946 116.333C162.636 116.794 162.197 117.152 161.684 117.363C161.17 117.574 160.606 117.628 160.062 117.518C159.518 117.407 159.019 117.138 158.628 116.745C158.237 116.351 157.971 115.85 157.865 115.305C157.759 114.76 157.817 114.196 158.032 113.684C158.246 113.172 158.608 112.736 159.071 112.429C159.533 112.123 160.077 111.961 160.632 111.964C161.374 111.969 162.084 112.268 162.607 112.795C163.129 113.321 163.423 114.033 163.423 114.775Z" fill="#455A64"/>
<path d="M155.015 111.173C155.73 110.402 156.595 109.785 157.556 109.359C158.517 108.932 159.554 108.705 160.606 108.691C161.657 108.677 162.7 108.876 163.672 109.277C164.644 109.678 165.525 110.272 166.261 111.022C167.694 112.469 169.932 110.251 168.499 108.805C167.469 107.766 166.242 106.945 164.889 106.388C163.537 105.831 162.087 105.551 160.624 105.563C159.162 105.575 157.716 105.879 156.373 106.458C155.03 107.037 153.817 107.879 152.804 108.934C151.405 110.401 153.623 112.647 155.028 111.173H155.015Z" fill="#455A64"/>
<path d="M145.489 98.1389C149.754 94.4539 154.845 92.1337 160.543 92.1201C166.231 92.0389 171.736 94.1333 175.931 97.9751C177.405 99.3399 179.65 97.1494 178.169 95.7573C173.387 91.3277 167.096 88.8874 160.577 88.9333C154.019 88.9333 148.191 91.6629 143.285 95.8733C141.749 97.204 143.967 99.4355 145.509 98.1116L145.489 98.1389Z" fill="#455A64"/>
<path d="M149.249 105.352C150.671 103.765 152.406 102.49 154.345 101.607C156.285 100.725 158.386 100.253 160.517 100.223C162.647 100.193 164.761 100.605 166.724 101.432C168.688 102.26 170.459 103.485 171.925 105.031C173.344 106.485 175.583 104.267 174.163 102.807C172.404 100.968 170.286 99.5106 167.94 98.5242C165.595 97.5378 163.071 97.0437 160.527 97.0725C157.983 97.1013 155.471 97.6523 153.148 98.6916C150.826 99.7308 148.741 101.236 147.024 103.114C145.659 104.602 147.863 106.847 149.249 105.352Z" fill="#455A64"/>
<path d="M187.118 92.1937C187.946 87.5139 184.823 83.0491 180.143 82.2214C175.463 81.3937 170.998 84.5164 170.171 89.1963C169.343 93.8762 172.466 98.3409 177.146 99.1686C181.825 99.9963 186.29 96.8736 187.118 92.1937Z" fill="#427CAF"/>
<path d="M182.191 88.2882L180.97 87.0674L175.503 92.5345L176.723 93.7553L182.191 88.2882Z" fill="white"/>
<path d="M176.727 87.0614L175.506 88.2822L180.973 93.7493L182.194 92.5285L176.727 87.0614Z" fill="white"/>
<path d="M159.628 40.5092C160.055 40.2526 160.514 40.053 160.993 39.9155L161.273 38.5507L163.545 38.5098L163.873 39.8746C164.35 39.9955 164.808 40.1791 165.237 40.4205L166.377 39.6562L168.015 41.2394L167.298 42.4131C167.555 42.8402 167.754 43.299 167.892 43.7779L169.257 44.0577L169.298 46.337L167.933 46.6577C167.814 47.1345 167.633 47.5934 167.394 48.0225L168.144 49.1689L166.568 50.8067L165.394 50.1243C164.967 50.3784 164.508 50.5757 164.029 50.7112L163.75 52.076L161.477 52.1169L161.15 50.7521C160.673 50.6299 160.214 50.4464 159.785 50.2062L158.632 50.9569L156.994 49.3805L157.71 48.2068C157.453 47.7801 157.253 47.3212 157.117 46.8419L155.752 46.5622L155.711 44.2897L157.076 43.9622C157.196 43.4858 157.377 43.027 157.615 42.5974L156.864 41.4441L158.447 39.8132L159.621 40.4956L159.628 40.5092ZM160.836 43.5459C160.5 43.8935 160.275 44.3329 160.189 44.8085C160.103 45.284 160.16 45.7744 160.353 46.2176C160.546 46.6607 160.865 47.0368 161.272 47.2981C161.678 47.5594 162.153 47.6943 162.636 47.6858C163.12 47.6772 163.589 47.5254 163.986 47.2498C164.383 46.9742 164.69 46.587 164.867 46.1373C165.043 45.6875 165.083 45.1954 164.98 44.7232C164.877 44.251 164.637 43.82 164.289 43.4845C163.823 43.035 163.197 42.789 162.55 42.8005C161.902 42.812 161.286 43.0801 160.836 43.5459Z" fill="#E0E0E0"/>
<path d="M130.769 45.5936C130.087 45.5936 129.138 45.5936 128.231 45.5936C127.146 45.5936 126.061 45.5936 125.303 45.5936C125.213 45.5936 125.126 45.5577 125.062 45.4937C124.998 45.4297 124.962 45.3429 124.962 45.2524C124.961 45.2079 124.969 45.1637 124.985 45.1223C125.002 45.081 125.026 45.0433 125.057 45.0115C125.089 44.9798 125.126 44.9545 125.167 44.9373C125.208 44.9201 125.252 44.9112 125.296 44.9112C126.054 44.9112 127.153 44.9112 128.244 44.9112C129.336 44.9112 130.414 44.9521 131.172 44.9112C131.216 44.9103 131.261 44.9183 131.302 44.9347C131.343 44.9511 131.381 44.9756 131.413 45.0067C131.445 45.0378 131.47 45.075 131.487 45.116C131.504 45.157 131.513 45.2011 131.513 45.2456C131.514 45.2904 131.506 45.3349 131.49 45.3767C131.473 45.4184 131.449 45.4565 131.418 45.4889C131.387 45.5212 131.35 45.5471 131.309 45.565C131.268 45.583 131.224 45.5927 131.179 45.5936H130.769Z" fill="#263238"/>
<path d="M127.377 47.8867C127.329 47.8858 127.282 47.875 127.239 47.855C127.196 47.8351 127.157 47.8064 127.125 47.7707L125.078 45.4301C125.022 45.3656 124.991 45.2833 124.991 45.1981C124.991 45.1129 125.022 45.0305 125.078 44.966L127.125 42.8369C127.155 42.8007 127.192 42.7711 127.234 42.7498C127.275 42.7286 127.321 42.7162 127.368 42.7135C127.415 42.7107 127.462 42.7177 127.506 42.7339C127.55 42.7501 127.59 42.7753 127.624 42.8077C127.658 42.8402 127.685 42.8793 127.703 42.9227C127.721 42.966 127.73 43.0126 127.729 43.0595C127.728 43.1064 127.718 43.1527 127.699 43.1954C127.679 43.2382 127.651 43.2764 127.616 43.3078L125.808 45.2117L127.678 47.3203C127.721 47.3698 127.749 47.4308 127.759 47.496C127.768 47.5612 127.759 47.6277 127.731 47.6876C127.704 47.7475 127.66 47.7981 127.604 47.8335C127.549 47.8688 127.484 47.8873 127.418 47.8867H127.377Z" fill="#263238"/>
<path d="M197.72 43.6076C198.304 43.6076 198.778 43.1341 198.778 42.5499C198.778 41.9658 198.304 41.4922 197.72 41.4922C197.136 41.4922 196.662 41.9658 196.662 42.5499C196.662 43.1341 197.136 43.6076 197.72 43.6076Z" fill="#263238"/>
<path d="M198.778 45.8937C198.779 46.1048 198.717 46.3116 198.601 46.4877C198.484 46.6638 198.318 46.8013 198.124 46.8827C197.929 46.9641 197.714 46.9858 197.507 46.9449C197.3 46.9041 197.11 46.8025 196.96 46.6532C196.811 46.504 196.709 46.3136 196.669 46.1065C196.628 45.8994 196.649 45.6848 196.731 45.49C196.812 45.2952 196.95 45.129 197.126 45.0125C197.302 44.8961 197.509 44.8346 197.72 44.836C198 44.836 198.269 44.9474 198.468 45.1458C198.666 45.3441 198.778 45.6132 198.778 45.8937Z" fill="#263238"/>
<path d="M197.72 50.2951C198.304 50.2951 198.778 49.8216 198.778 49.2374C198.778 48.6532 198.304 48.1797 197.72 48.1797C197.136 48.1797 196.662 48.6532 196.662 49.2374C196.662 49.8216 197.136 50.2951 197.72 50.2951Z" fill="#263238"/>
<path d="M138.918 146.514C137.309 146.69 135.69 146.749 134.073 146.691C132.458 146.749 130.841 146.689 129.234 146.514C130.841 146.339 132.458 146.279 134.073 146.337C135.69 146.279 137.309 146.339 138.918 146.514Z" fill="#263238"/>
<path d="M156.298 157.842C156.298 157.938 150.348 158.02 143.012 158.02C135.676 158.02 129.726 157.938 129.726 157.842C129.726 157.747 135.669 157.665 143.012 157.665C150.355 157.665 156.298 157.747 156.298 157.842Z" fill="#263238"/>
<path d="M156.298 169.109C156.298 169.205 150.348 169.287 143.012 169.287C135.676 169.287 129.726 169.205 129.726 169.109C129.726 169.014 135.669 168.932 143.012 168.932C150.355 168.932 156.298 169 156.298 169.109Z" fill="#263238"/>
<path d="M191.422 153.591H181.705C179.357 153.591 177.453 155.493 177.453 157.839C177.453 160.185 179.357 162.087 181.705 162.087H191.422C193.77 162.087 195.673 160.185 195.673 157.839C195.673 155.493 193.77 153.591 191.422 153.591Z" fill="#EBEBEB"/>
<path d="M185.211 157.842C185.211 158.547 185.002 159.236 184.611 159.821C184.219 160.407 183.663 160.864 183.012 161.133C182.361 161.403 181.645 161.474 180.954 161.336C180.263 161.199 179.628 160.859 179.13 160.361C178.632 159.863 178.293 159.228 178.155 158.537C178.018 157.846 178.088 157.13 178.358 156.479C178.628 155.828 179.084 155.272 179.67 154.881C180.256 154.489 180.945 154.28 181.649 154.28C182.117 154.28 182.58 154.372 183.012 154.551C183.444 154.73 183.837 154.993 184.168 155.324C184.499 155.654 184.761 156.047 184.94 156.479C185.119 156.911 185.211 157.375 185.211 157.842Z" fill="#E0E0E0"/>
<path d="M191.429 173.347H181.705C180.577 173.347 179.496 172.899 178.698 172.101C177.901 171.304 177.453 170.223 177.453 169.095C177.453 167.968 177.901 166.886 178.698 166.089C179.496 165.292 180.577 164.844 181.705 164.844H191.429C192.556 164.844 193.638 165.292 194.435 166.089C195.232 166.886 195.68 167.968 195.68 169.095C195.68 170.223 195.232 171.304 194.435 172.101C193.638 172.899 192.556 173.347 191.429 173.347Z" fill="#EBEBEB"/>
<path d="M181.649 172.658C183.616 172.658 185.211 171.063 185.211 169.095C185.211 167.128 183.616 165.533 181.649 165.533C179.682 165.533 178.087 167.128 178.087 169.095C178.087 171.063 179.682 172.658 181.649 172.658Z" fill="#E0E0E0"/>
<path d="M156.298 180.424C156.298 180.526 150.348 180.601 143.012 180.601C135.676 180.601 129.726 180.526 129.726 180.424C129.726 180.321 135.669 180.246 143.012 180.246C150.355 180.246 156.298 180.328 156.298 180.424Z" fill="#263238"/>
<path d="M191.429 185.931H181.705C181.147 185.931 180.594 185.822 180.078 185.609C179.562 185.396 179.094 185.084 178.699 184.69C178.304 184.296 177.991 183.827 177.777 183.312C177.563 182.796 177.453 182.244 177.453 181.686C177.453 180.558 177.901 179.477 178.698 178.68C179.496 177.882 180.577 177.435 181.705 177.435H191.429C192.556 177.435 193.638 177.882 194.435 178.68C195.232 179.477 195.68 180.558 195.68 181.686C195.68 182.244 195.57 182.796 195.356 183.312C195.143 183.827 194.829 184.296 194.435 184.69C194.04 185.084 193.571 185.396 193.055 185.609C192.539 185.822 191.987 185.931 191.429 185.931Z" fill="#EBEBEB"/>
<path d="M181.649 185.247C183.616 185.247 185.211 183.653 185.211 181.685C185.211 179.718 183.616 178.123 181.649 178.123C179.682 178.123 178.087 179.718 178.087 181.685C178.087 183.653 179.682 185.247 181.649 185.247Z" fill="#E0E0E0"/>
<path d="M272.609 33.4861C273.588 27.4214 269.465 21.7114 263.4 20.7324C257.336 19.7534 251.626 23.8761 250.647 29.9408C249.668 36.0055 253.79 41.7155 259.855 42.6945C265.92 43.6735 271.63 39.5508 272.609 33.4861Z" fill="#427CAF"/>
<path d="M260.045 56.5875C259.983 56.5875 259.929 54.5403 259.929 51.9949C259.929 49.4496 259.983 47.4092 260.045 47.4092C260.163 48.9347 260.202 50.4654 260.161 51.9949C260.202 53.5268 260.163 55.0597 260.045 56.5875Z" fill="#427CAF"/>
<path d="M253.637 44.8227C253.692 44.8227 252.648 46.7744 251.303 49.1014C249.959 51.4284 248.819 53.2982 248.765 53.2641C248.71 53.23 249.754 51.3192 251.099 48.9854C252.443 46.6516 253.583 44.7886 253.637 44.8227Z" fill="#427CAF"/>
<path d="M247.059 40.7285C246.247 41.5249 245.381 42.2636 244.466 42.9395C243.6 43.679 242.689 44.3628 241.736 44.9867C242.548 44.1904 243.415 43.4516 244.329 42.7757C245.192 42.0326 246.104 41.3486 247.059 40.7285Z" fill="#427CAF"/>
<path d="M271.141 52.0628C271.008 51.6976 270.909 51.3206 270.847 50.9369C270.691 50.2545 270.459 49.2718 270.165 48.2072C269.872 47.1427 269.592 46.201 269.38 45.5185C269.238 45.1547 269.133 44.7775 269.066 44.3926C269.261 44.7321 269.419 45.0912 269.537 45.464C269.79 46.1464 270.104 47.0813 270.39 48.1458C270.677 49.2104 270.875 50.193 270.998 50.8754C271.087 51.265 271.135 51.6631 271.141 52.0628Z" fill="#427CAF"/>
<path d="M282.421 44.0586C281.276 43.2089 280.178 42.2977 279.132 41.3289C278.036 40.4223 276.991 39.4564 276 38.4355C277.145 39.2852 278.243 40.1965 279.289 41.1652C280.385 42.0718 281.431 43.0377 282.421 44.0586Z" fill="#427CAF"/>
<path d="M286.741 33.0585C286.282 33.0303 285.825 32.9664 285.376 32.8674C284.55 32.731 283.411 32.5535 282.148 32.4102C280.886 32.2669 279.733 32.1782 278.9 32.1236C278.443 32.1227 277.986 32.0838 277.535 32.0076C277.987 31.9461 278.445 31.9301 278.9 31.9598C279.739 31.9598 280.899 32.0349 282.169 32.1782C283.438 32.3215 284.584 32.5262 285.403 32.7037C285.859 32.7805 286.307 32.8993 286.741 33.0585Z" fill="#427CAF"/>
<path d="M286.754 22.2422C286.754 22.3104 284.366 22.9246 281.377 23.6752C278.388 24.4259 275.958 24.9377 275.918 24.8763C275.877 24.8149 278.313 24.1939 281.295 23.45C284.277 22.7062 286.74 22.1808 286.754 22.2422Z" fill="#427CAF"/>
<path d="M274.198 9.64453C274.246 9.64453 273.099 11.5143 271.625 13.739C270.151 15.9636 268.896 17.7515 268.855 17.7106C268.814 17.6696 269.953 15.8408 271.427 13.6161C272.283 12.2462 273.208 10.9206 274.198 9.64453Z" fill="#427CAF"/>
<path d="M261.716 7.01074C261.752 7.51965 261.752 8.03043 261.716 8.53933C261.716 9.48105 261.716 10.7776 261.716 12.2107C261.716 13.6437 261.716 14.9403 261.757 15.8957C261.793 16.4023 261.793 16.9108 261.757 17.4174C261.66 16.9181 261.608 16.4111 261.6 15.9025C261.546 14.9608 261.498 13.6574 261.498 12.2175C261.498 10.7776 261.539 9.48788 261.594 8.53251C261.588 8.02258 261.63 7.51324 261.716 7.01074Z" fill="#427CAF"/>
<path d="M252.272 18.7684C252.218 18.8025 251.044 16.9873 249.659 14.7149C248.274 12.4425 247.182 10.5658 247.236 10.5317C247.291 10.4976 248.465 12.3196 249.857 14.6262C251.249 16.9327 252.361 18.7411 252.272 18.7684Z" fill="#427CAF"/>
<path d="M246.629 23.5664C246.23 23.5501 245.834 23.4883 245.448 23.3821C244.725 23.2252 243.736 22.9863 242.651 22.6997C241.566 22.4131 240.603 22.0173 239.921 21.7785C239.539 21.6572 239.171 21.4971 238.822 21.3008C239.216 21.3725 239.603 21.4822 239.976 21.6283C240.658 21.8467 241.647 22.1606 242.705 22.4745C243.763 22.7884 244.752 23.0614 245.476 23.2525C245.869 23.3204 246.255 23.4255 246.629 23.5664Z" fill="#427CAF"/>
<path d="M244.172 32.1094C243.001 32.3435 241.816 32.4963 240.624 32.5666C239.44 32.7188 238.248 32.7963 237.055 32.7986C238.226 32.5634 239.411 32.4084 240.603 32.3346C241.787 32.1863 242.979 32.1111 244.172 32.1094Z" fill="#427CAF"/>
<path d="M236.584 230.349L246.533 301.23L249.127 301.312C247.475 277.237 245.715 252.684 236.584 230.349Z" fill="#455A64"/>
<path d="M264.228 227.025C257.274 234.621 254.476 245.123 252.716 255.284C250.218 269.689 249.986 286.709 250.744 301.312L254.374 301.394C252.935 276.205 256.279 250.971 264.228 227.025Z" fill="#455A64"/>
<path d="M238.412 272.283C237.614 268.768 236.7 265.199 234.693 262.204C231.964 258.164 227.576 255.611 223.133 253.619C218.691 251.626 214.03 250.043 210.018 247.286C214.494 254.622 224.648 256.574 229.807 263.439C232.38 266.851 233.451 271.136 234.455 275.292C236.659 284.354 238.01 292.195 240.207 301.224H243.155C242.186 291.486 240.601 281.82 238.412 272.283Z" fill="#455A64"/>
<path d="M257.028 301.312C257.028 301.312 259.519 273.163 261.368 267.99C263.218 262.818 280.687 248.542 280.524 249.218C280.36 249.893 267.415 265.513 265.565 268.741C263.716 271.969 260.55 301.312 260.55 301.312H257.028Z" fill="#455A64"/>
<path d="M174.443 271.872C175.133 272.148 175.76 272.561 176.287 273.085C176.813 273.609 177.228 274.234 177.507 274.923C178.064 276.305 178.297 277.797 178.19 279.283C178.046 282.149 176.62 285.132 175.023 287.52C172.492 285.582 171.707 281.972 171.42 280.109C170.97 277.175 171.939 271.593 174.457 271.872" fill="#427CAF"/>
<path d="M178.101 292.031C177.885 291.228 177.886 290.381 178.103 289.578C178.32 288.775 178.745 288.044 179.336 287.459C179.934 286.884 180.642 286.435 181.416 286.137C182.191 285.839 183.017 285.699 183.847 285.725C184.223 285.701 184.6 285.757 184.954 285.89C185.307 286.023 185.627 286.23 185.894 286.497C186.103 286.791 186.229 287.137 186.257 287.498C186.286 287.858 186.217 288.219 186.058 288.544C185.736 289.188 185.248 289.734 184.645 290.127C182.652 291.567 180.462 292.59 178.067 292.038" fill="#427CAF"/>
<path d="M175.597 300.957C175.597 300.76 175.613 300.564 175.644 300.37C175.692 299.954 175.754 299.415 175.829 298.773C175.985 296.995 176.425 295.253 177.132 293.614C177.875 291.974 179.041 290.561 180.51 289.52C180.957 289.217 181.438 288.967 181.943 288.776C182.078 288.721 182.218 288.675 182.359 288.64L182.509 288.605C181.838 288.888 181.196 289.235 180.592 289.643C179.179 290.698 178.055 292.092 177.323 293.696C176.617 295.316 176.157 297.032 175.958 298.787C175.856 299.469 175.774 300.002 175.706 300.377C175.69 300.574 175.653 300.768 175.597 300.957Z" fill="#263238"/>
<path d="M174.074 276.186C174.101 276.267 174.117 276.352 174.122 276.438L174.211 277.168C174.293 277.81 174.388 278.724 174.497 279.864C174.723 282.143 174.982 285.289 175.18 288.769C175.378 292.249 175.514 295.409 175.569 297.695C175.569 298.841 175.61 299.742 175.61 300.425V301.162C175.61 301.332 175.61 301.421 175.61 301.421C175.602 301.335 175.602 301.248 175.61 301.162L175.576 300.425C175.576 299.742 175.514 298.848 175.466 297.695C175.371 295.409 175.234 292.236 175.023 288.776C174.811 285.316 174.572 282.15 174.388 279.871C174.293 278.751 174.224 277.823 174.17 277.175C174.17 276.875 174.129 276.629 174.115 276.438C174.096 276.355 174.082 276.271 174.074 276.186Z" fill="#263238"/>
<path d="M174.068 294.037C173.668 292.331 172.867 290.745 171.731 289.411C170.595 288.077 169.157 287.033 167.537 286.366C166.711 286.032 165.647 285.848 165.026 286.489C164.405 287.131 164.623 288.188 165.026 288.994C165.842 290.667 167.134 292.061 168.741 293.001C170.347 293.941 172.196 294.384 174.054 294.276" fill="#427CAF"/>
<path d="M168.097 289.035C168.278 289.081 168.454 289.145 168.622 289.226C168.786 289.294 168.991 289.376 169.216 289.492C169.441 289.608 169.707 289.731 169.98 289.909C170.283 290.082 170.574 290.273 170.854 290.482C171.181 290.715 171.495 290.965 171.796 291.233C172.483 291.843 173.099 292.53 173.631 293.28C174.154 294.043 174.584 294.865 174.914 295.73C175.053 296.105 175.172 296.488 175.269 296.876C175.357 297.216 175.428 297.56 175.481 297.906C175.529 298.191 175.561 298.478 175.576 298.766C175.593 298.993 175.593 299.222 175.576 299.449C175.593 299.633 175.593 299.818 175.576 300.001C175.528 300.001 175.576 299.21 175.337 297.954C175.278 297.614 175.201 297.276 175.105 296.944C175.001 296.562 174.875 296.186 174.73 295.818C174.397 294.973 173.972 294.167 173.461 293.416C172.938 292.673 172.339 291.987 171.673 291.369C171.38 291.1 171.072 290.847 170.751 290.612C170.465 290.379 170.165 290.202 169.898 290.025C168.82 289.363 168.083 289.076 168.097 289.035Z" fill="#263238"/>
<path d="M54.5105 263.828L35.3145 279.571L54.7835 303.544C56.9604 301.545 51.4875 285.406 51.4875 285.406L64.2007 275.852L54.5105 263.828Z" fill="#455A64"/>
<g opacity="0.6">
<path d="M46.5061 277.155C46.2493 276.982 45.9377 276.909 45.6307 276.951C45.3237 276.992 45.0426 277.145 44.8411 277.381C44.6573 277.632 44.5769 277.943 44.6162 278.252C44.6556 278.56 44.8118 278.842 45.0526 279.039C45.3284 279.216 45.6588 279.288 45.9833 279.242C46.3079 279.195 46.6049 279.034 46.8201 278.786C46.9836 278.504 47.0315 278.17 46.9539 277.853C46.8764 277.536 46.6792 277.262 46.4038 277.087" fill="white"/>
</g>
<g opacity="0.6">
<path d="M35.3896 279.502L37.3209 277.905L55.1453 301.68C55.1453 301.68 55.5411 303.127 54.6881 303.612L35.3896 279.502Z" fill="white"/>
</g>
<path d="M51.9238 285.699C51.8078 285.794 51.2414 285.248 50.4293 284.982C49.6172 284.716 48.8461 284.805 48.8052 284.654C48.7642 284.504 49.5831 284.136 50.5999 284.484C51.6167 284.832 52.0534 285.637 51.9238 285.699Z" fill="#263238"/>
<path d="M52.9272 289.063C52.8385 289.179 52.2448 288.838 51.4054 288.838C50.566 288.838 49.9724 289.152 49.8836 289.036C49.7949 288.92 50.3954 288.299 51.4122 288.313C52.429 288.326 53.0364 288.968 52.9272 289.063Z" fill="#263238"/>
<path d="M51.051 292.932C50.935 292.85 51.3922 292.209 52.2793 291.99C53.1664 291.772 53.8625 292.113 53.8011 292.236C53.7396 292.359 53.1187 292.304 52.4362 292.495C51.7538 292.686 51.1806 293.041 51.051 292.932Z" fill="#263238"/>
<path d="M54.5789 283.195C54.4356 283.236 54.1626 282.567 53.5758 281.939C52.9889 281.311 52.3679 280.97 52.4157 280.827C52.4634 280.684 53.2892 280.827 53.9647 281.584C54.6403 282.342 54.7222 283.181 54.5789 283.195Z" fill="#263238"/>
<path d="M56.96 280.342C56.9123 280.383 56.4687 279.98 55.991 279.134C55.7179 278.638 55.5049 278.111 55.3564 277.565C55.2692 277.242 55.2053 276.914 55.1653 276.582C55.1337 276.385 55.1337 276.185 55.1653 275.988C55.1901 275.845 55.2596 275.714 55.3639 275.614C55.4682 275.513 55.6018 275.448 55.7454 275.429C55.8742 275.42 56.0034 275.442 56.1221 275.493C56.2408 275.544 56.3456 275.622 56.4278 275.722C56.5526 275.876 56.6559 276.046 56.7349 276.227C56.8796 276.534 56.9961 276.854 57.0829 277.182C57.2303 277.734 57.2879 278.305 57.2535 278.875C57.2805 279.405 57.1396 279.93 56.8509 280.376C56.7758 280.376 56.9191 279.789 56.8509 278.875C56.8295 278.345 56.74 277.819 56.5847 277.312C56.4912 277.017 56.3748 276.729 56.2367 276.452C56.1002 276.145 55.9228 275.927 55.759 275.954C55.5952 275.981 55.6771 275.954 55.643 276.091C55.6233 276.233 55.6233 276.378 55.643 276.521C55.677 276.832 55.7271 277.142 55.7931 277.449C55.9118 277.97 56.0786 278.48 56.2913 278.97C56.549 279.41 56.7726 279.868 56.96 280.342Z" fill="#263238"/>
<path d="M56.6736 280.301C56.6191 280.301 56.8511 279.7 57.5744 279.038C58.0028 278.659 58.4918 278.355 59.0211 278.138C59.3364 278.011 59.6632 277.915 59.997 277.851C60.208 277.788 60.4317 277.78 60.6467 277.828C60.8617 277.875 61.0609 277.977 61.2253 278.124C61.3102 278.233 61.3624 278.364 61.3757 278.502C61.389 278.64 61.3628 278.779 61.3004 278.902C61.2085 279.076 61.0937 279.236 60.9592 279.38C60.7278 279.648 60.4561 279.878 60.1539 280.062C59.6507 280.362 59.081 280.533 58.4957 280.56C57.4925 280.594 56.9534 280.219 56.9876 280.178C57.4785 280.204 57.9706 280.204 58.4616 280.178C58.9798 280.112 59.4778 279.935 59.9219 279.659C60.1787 279.501 60.409 279.303 60.6043 279.073C60.8295 278.827 60.9592 278.568 60.8568 278.493C60.7483 278.424 60.6265 278.379 60.4994 278.362C60.3723 278.344 60.2428 278.354 60.1198 278.39C59.8162 278.444 59.5173 278.522 59.2258 278.622C58.7386 278.806 58.2792 279.056 57.861 279.366C57.0763 279.871 56.7419 280.342 56.6736 280.301Z" fill="#263238"/>
<path d="M45.8164 276.685L46.0484 301.497L76.9341 301.367C76.7431 298.419 60.7338 292.557 60.7338 292.557L61.2388 276.65L45.8164 276.685Z" fill="#455A64"/>
<g opacity="0.6">
<path d="M51.1808 291.26C50.8834 291.352 50.6304 291.55 50.4705 291.817C50.3105 292.084 50.2548 292.401 50.3141 292.707C50.3962 293.006 50.5896 293.263 50.8549 293.424C51.1201 293.585 51.4369 293.638 51.7404 293.573C52.0493 293.469 52.3107 293.257 52.4772 292.977C52.6437 292.697 52.7042 292.366 52.648 292.045C52.5312 291.74 52.3012 291.493 52.0061 291.354C51.711 291.216 51.3737 291.196 51.0648 291.301" fill="white"/>
</g>
<g opacity="0.6">
<path d="M46.042 301.415V298.903L75.7471 299.913C75.7471 299.913 77.1119 300.514 76.9618 301.483L46.042 301.415Z" fill="white"/>
</g>
<path d="M61.2395 292.414C61.2395 292.564 60.482 292.639 59.7382 293.096C58.9944 293.554 58.6054 294.222 58.4689 294.161C58.3324 294.1 58.5508 293.233 59.4584 292.653C60.366 292.073 61.2872 292.278 61.2395 292.414Z" fill="#263238"/>
<path d="M64.4804 293.738C64.4804 293.888 63.8663 294.147 63.3545 294.789C62.8427 295.43 62.6721 296.099 62.5492 296.099C62.4264 296.099 62.3036 295.239 62.9518 294.454C63.6001 293.669 64.4804 293.594 64.4804 293.738Z" fill="#263238"/>
<path d="M66.3371 297.614C66.2006 297.614 65.9891 296.891 66.3371 296.065C66.6852 295.239 67.429 294.905 67.4904 295.028C67.5518 295.15 67.1219 295.601 66.808 296.283C66.4941 296.966 66.4873 297.593 66.3371 297.614Z" fill="#263238"/>
<path d="M60.9526 288.776C60.8844 288.913 60.1951 288.708 59.3421 288.776C58.4891 288.844 57.8272 289.11 57.7453 288.981C57.6634 288.851 58.3049 288.298 59.308 288.251C60.3111 288.203 61.0209 288.653 60.9526 288.776Z" fill="#263238"/>
<path d="M60.1949 285.119C59.6902 285.258 59.1573 285.258 58.6526 285.119C57.7629 284.961 56.9109 284.637 56.1414 284.163C55.9677 284.066 55.8091 283.945 55.6705 283.802C55.5749 283.692 55.5167 283.555 55.5044 283.41C55.4921 283.266 55.5264 283.121 55.6023 282.997C55.679 282.887 55.7813 282.798 55.9003 282.738C56.0192 282.677 56.1512 282.647 56.2847 282.649C56.481 282.648 56.6763 282.675 56.8647 282.73C57.7577 282.936 58.5826 283.369 59.26 283.986C59.9765 284.668 60.229 285.208 60.1744 285.235C60.1198 285.262 59.7581 284.819 59.0211 284.273C58.6025 283.956 58.1435 283.697 57.6563 283.502C57.3663 283.386 57.0673 283.295 56.7624 283.229C56.4348 283.147 56.1619 283.147 56.08 283.29C55.9981 283.433 56.08 283.365 56.1209 283.461C56.2198 283.567 56.335 283.657 56.4621 283.727C56.7269 283.895 57.0003 284.05 57.281 284.191C57.7625 284.426 58.2652 284.616 58.7823 284.757C59.2606 284.847 59.7324 284.967 60.1949 285.119Z" fill="#263238"/>
<path d="M60.0037 285.331C59.9491 285.331 59.6488 284.819 59.5874 283.836C59.5586 283.264 59.6278 282.692 59.7921 282.144C59.8906 281.818 60.0209 281.502 60.1811 281.202C60.2632 280.998 60.3969 280.818 60.5691 280.68C60.7413 280.543 60.9462 280.452 61.1638 280.417C61.3074 280.413 61.4489 280.452 61.5705 280.528C61.692 280.605 61.788 280.716 61.8462 280.847C61.9244 281.028 61.9795 281.219 62.01 281.414C62.0772 281.877 62.0515 282.349 61.9343 282.803C61.8171 283.256 61.6109 283.682 61.3276 284.055C60.727 284.86 60.0992 285.044 60.0856 284.989C60.0719 284.935 60.5564 284.621 61.0136 283.85C61.282 283.408 61.4475 282.911 61.4982 282.396C61.5423 282.1 61.5423 281.799 61.4982 281.502C61.4436 281.175 61.3207 280.909 61.1979 280.943C61.0751 280.977 60.7816 281.188 60.6588 281.455C60.5077 281.723 60.3799 282.004 60.2766 282.294C60.1067 282.792 60.0079 283.311 59.9832 283.836C59.9218 284.744 60.0856 285.31 60.0037 285.331Z" fill="#263238"/>
<path d="M48.4642 132.881C48.4642 132.881 44.1309 137.514 42.0086 141.957C39.8863 146.399 38.5215 156.97 38.5215 156.97C38.5215 156.97 32.5436 170.284 33.4512 177.094C34.3588 183.904 40.4459 230.526 40.4459 230.526C40.4459 230.526 40.1456 275.811 44.4584 283.884L45.4206 288.244L62.8356 285.119L62.7264 282.505L66.8209 193.711L77.3026 133.256L48.4642 132.881Z" fill="#263238"/>
<path d="M86.8904 146.086C86.8904 146.086 97.2971 203.408 98.2184 213.35C99.1396 223.293 63.6954 275.757 63.6954 275.757L47.4951 258.881L70.7515 215.65L63.1905 172.079L73.7063 133.584L84.7477 133.973L86.8904 146.086Z" fill="#263238"/>
<path d="M41.7568 269.778C41.7745 270.203 41.8155 270.627 41.8797 271.047C41.9889 271.88 42.1936 273.095 42.4802 274.678C43.0602 277.831 44.002 282.403 45.2644 288.114V288.237H45.3872L62.8091 285.18H62.9387V285.044C63.4232 273.095 64.0033 258.812 64.6243 243.492C65.2657 227.012 65.8594 211.726 66.3508 199.19C67.6542 189.118 68.7324 180.765 69.4898 174.958C69.8515 172.064 70.1381 169.792 70.336 168.222C70.4247 167.458 70.4998 166.858 70.5476 166.455C70.5953 166.052 70.6021 165.848 70.6021 165.848C70.6021 165.848 70.5612 166.046 70.4998 166.448C70.4384 166.851 70.3497 167.451 70.2405 168.209C70.0221 169.771 69.7082 172.044 69.3056 174.93C68.5413 180.71 67.429 189.056 66.0641 199.135C65.5592 211.671 64.9382 226.957 64.2694 243.437C63.6689 258.757 63.1093 273.04 62.6453 284.989L62.7818 284.832L45.3804 287.964L45.5237 288.06C44.2271 282.355 43.2513 277.79 42.6303 274.651C42.3232 273.074 42.098 271.859 41.9479 271.034C41.8728 270.624 41.8319 270.31 41.8046 270.099C41.7943 269.991 41.7783 269.884 41.7568 269.778Z" fill="#455A64"/>
<path d="M21.5371 109.161C21.5371 109.161 32.3191 85.9178 34.8645 84.6827C37.4099 83.4475 44.7253 83.0312 45.7148 84.4234L26.389 112.252L21.5371 109.161Z" fill="#455A64"/>
<path d="M22.0963 106.021C21.6201 105.757 21.0616 105.684 20.5336 105.816C17.183 106.649 4.94059 109.911 3.57577 113.411C1.99259 117.444 11.6759 169.853 12.9247 171.273C14.1735 172.692 33.431 170.31 34.0247 168.072C34.6184 165.834 27.7603 109.344 27.7603 109.344L22.0963 106.021Z" fill="#455A64"/>
<path d="M6.89869 141.718C6.89869 141.718 5.80684 141.786 4.72181 144.195C3.63679 146.604 5.54752 166.162 6.9874 168.161C8.42728 170.16 12.6309 170.584 12.6309 170.584L6.89869 141.718Z" fill="#455A64"/>
<path d="M28.3607 169.144C28.3218 169.107 28.2895 169.063 28.2652 169.015L28.0058 168.612C27.7807 168.257 27.4804 167.718 27.1255 167.002C26.1492 164.971 25.4096 162.834 24.9214 160.635C24.2125 157.377 23.7021 154.08 23.3928 150.76C22.997 147.021 22.5602 142.913 22.0962 138.6C21.1681 129.974 20.397 122.154 20.2674 116.456C20.1991 113.61 20.2674 111.31 20.3424 109.72C20.3834 108.929 20.4311 108.308 20.4721 107.891C20.4721 107.7 20.5062 107.55 20.5198 107.421C20.5127 107.366 20.5127 107.311 20.5198 107.257C20.5274 107.311 20.5274 107.366 20.5198 107.421C20.5198 107.55 20.5198 107.707 20.5198 107.898C20.5198 108.342 20.5198 108.956 20.4584 109.727C20.4175 111.31 20.397 113.61 20.4994 116.449C20.6904 122.126 21.5025 129.94 22.4306 138.566C22.881 142.872 23.3109 146.98 23.6999 150.719C23.9909 154.031 24.474 157.324 25.1466 160.58C25.6096 162.771 26.3074 164.906 27.2279 166.947C27.5623 167.663 27.8421 168.209 28.0468 168.578L28.272 168.994C28.3402 169.11 28.3675 169.11 28.3607 169.144Z" fill="#263238"/>
<path d="M22.2194 138.06C21.4658 138.245 20.7026 138.389 19.9334 138.49C18.5276 138.729 16.5827 139.105 14.4741 139.63C12.3655 140.155 10.4616 140.729 9.10356 141.172C8.37848 141.443 7.6379 141.671 6.88574 141.855C7.0543 141.731 7.24071 141.635 7.43849 141.568C7.80699 141.404 8.34609 141.186 9.02167 140.933C12.5475 139.618 16.21 138.702 19.9402 138.204C20.6226 138.115 21.2299 138.054 21.6325 138.033C21.8285 138.014 22.0261 138.023 22.2194 138.06Z" fill="#263238"/>
<path d="M6.64634 139.555C6.68978 139.657 6.71739 139.765 6.72823 139.875C6.776 140.128 6.83059 140.435 6.89883 140.803L7.46523 144.216C7.94974 147.102 8.65261 151.087 9.51245 155.468C10.3723 159.849 11.2867 163.801 11.9555 166.653C12.283 168.018 12.5492 169.178 12.7539 170.031L12.9586 170.952C12.9897 171.059 13.0058 171.169 13.0064 171.28C12.9512 171.184 12.912 171.081 12.8904 170.973L12.6174 170.065C12.3922 169.28 12.0783 168.134 11.7098 166.714C10.9796 163.876 10.0447 159.931 9.16442 155.543C8.28411 151.156 7.62218 147.157 7.19909 144.25C6.98754 142.803 6.83059 141.622 6.74188 140.838C6.70093 140.462 6.66681 140.155 6.63951 139.896C6.62869 139.782 6.63098 139.668 6.64634 139.555Z" fill="#263238"/>
<path d="M20.3428 115.957C20.3134 115.47 20.3501 114.981 20.452 114.503C20.7977 112.185 21.3996 109.913 22.2467 107.727C22.3948 107.263 22.6036 106.82 22.8677 106.41C22.9633 106.451 22.1853 108.526 21.5029 111.187C20.8205 113.848 20.4657 115.971 20.3428 115.957Z" fill="#263238"/>
<path d="M87.9967 66.1957C87.8875 64.2235 87.6418 54.5948 87.5258 53.1617C87.4033 51.1644 86.5423 49.2842 85.1101 47.8867C84.404 47.1947 83.51 46.7254 82.5394 46.5374C81.5688 46.3493 80.5643 46.4507 79.6508 46.829C79.074 46.9748 78.546 47.2707 78.1205 47.6866C77.695 48.1024 77.3872 48.6235 77.2283 49.1969C73.1884 63.5275 73.8162 78.8611 72.042 93.7103C77.317 94.5701 84.414 94.2221 89.7436 93.9423C89.73 82.0821 88.7268 79.0317 87.9967 66.1957Z" fill="#263238"/>
<path d="M85.7787 86.4425C85.7476 86.3176 85.7338 86.189 85.7378 86.0603C85.7378 85.7737 85.7037 85.3779 85.6832 84.9617C85.6832 83.9585 85.6081 82.5801 85.5604 80.9082C85.4853 77.4416 85.3898 72.7193 85.2806 67.5398C85.2396 64.9262 85.1987 62.4423 85.1646 60.1767C85.1646 59.0439 85.1646 57.9725 85.1304 56.9625C85.1425 56.0489 85.0786 55.1359 84.9394 54.2329C84.8586 53.5741 84.6332 52.9413 84.2792 52.3797C83.9253 51.8182 83.4517 51.3418 82.8922 50.9847C82.4704 50.7531 82.0062 50.6092 81.5273 50.5616C81.5273 50.5616 81.5273 50.5616 81.6229 50.5616C81.7181 50.5511 81.8142 50.5511 81.9095 50.5616C82.2844 50.5962 82.6486 50.7052 82.9809 50.8823C83.506 51.1613 83.9592 51.5585 84.3047 52.0424C84.7637 52.6849 85.0737 53.4215 85.2123 54.1988C85.3728 55.125 85.4527 56.0634 85.4512 57.0035C85.4512 58.0134 85.4921 59.0917 85.5194 60.2176C85.5604 62.4832 85.6081 64.9945 85.6627 67.5808C85.731 72.7807 85.7924 77.4893 85.8401 80.9491C85.8401 82.6278 85.8401 83.9995 85.8401 85.0026C85.8401 85.453 85.8401 85.8147 85.8401 86.1081C85.829 86.2211 85.8084 86.3329 85.7787 86.4425Z" fill="#455A64"/>
<path d="M80.9813 80.9978C80.9353 80.7136 80.9148 80.4259 80.9199 80.138C80.9199 79.5784 80.8857 78.7732 80.8857 77.7769C80.8857 75.7843 80.9267 73 81.0017 69.9906C81.0768 66.9812 81.1587 64.2721 81.2201 62.2112C81.2201 61.2695 81.2747 60.4779 81.2952 59.8569C81.2889 59.5661 81.314 59.2756 81.3702 58.9902C81.4163 59.2767 81.4369 59.5668 81.4317 59.8569C81.4317 60.4096 81.4317 61.2217 81.4317 62.218C81.4317 64.2106 81.3907 66.9949 81.3157 69.9974C81.2406 73 81.1519 75.716 81.0973 77.7769C81.0632 78.7186 81.0427 79.5102 81.0222 80.138C81.0396 80.4253 81.0258 80.7135 80.9813 80.9978Z" fill="#455A64"/>
<path d="M46.2331 84.6826C45.5507 84.6826 32.6805 85.597 29.6915 99.3817C26.7026 113.166 25.8428 132.478 25.8428 132.478L39.798 131.114L46.2331 84.6826Z" fill="#427CAF"/>
<path d="M52.5523 81.6324L54.8179 77.4493L74.6077 76.9102L75.9725 80.4723L87.6348 84.6828L86.659 136.355L95.2983 184.062C95.2983 184.062 95.2095 190.947 72.2056 193.131L70.3836 168.196L58.8851 167.923L59.199 192.278C59.199 192.278 38.9042 191.95 32.4691 187.358C32.4691 187.358 30.5174 164.156 36.0586 147.444C40.9105 132.813 42.8007 129.019 42.8007 129.019L43.1965 85.1741L52.5523 81.6324Z" fill="#427CAF"/>
<g opacity="0.3">
<path d="M46.4372 85.2764C42.4611 102.296 38.4804 119.322 34.4951 136.354L38.5418 140.647C40.6152 139.68 42.3718 138.144 43.6075 136.219C44.8433 134.294 45.5074 132.057 45.5228 129.769C45.5228 127.408 44.7722 125.108 44.6766 122.747C44.4583 117.425 47.4062 112.545 48.7711 107.393C50.6477 100.098 49.276 92.2642 46.4372 85.2764Z" fill="black"/>
</g>
<path d="M85.1098 84.0205C89.8867 84.9008 93.5649 89.9506 94.6635 95.3689C95.2982 98.5421 97.1475 113.842 97.1475 113.842L98.1643 119.451C98.1643 119.451 99.0173 138.729 94.9297 140.885C90.1528 143.397 87.4232 140.64 85.84 138.62C84.2568 136.6 82.5713 123.457 82.5713 123.457L84.3524 91.9978L85.1098 84.0205Z" fill="#427CAF"/>
<path d="M87.3688 91.7588C87.3674 91.9443 87.3492 92.1293 87.3142 92.3115C87.2596 92.6982 87.1845 93.2237 87.089 93.8879C86.8706 95.2527 86.5704 97.2522 86.1951 99.6679C85.8197 102.084 85.3352 105.025 84.8302 108.246C84.5641 109.856 84.2911 111.549 84.0045 113.302C83.7179 115.056 83.3631 116.865 83.2129 118.762C83.1209 119.833 83.1209 120.911 83.2129 121.983C84.6938 128.609 86.079 134.457 87.1231 138.647C87.6486 140.694 88.0717 142.387 88.3788 143.581C88.5221 144.133 88.6381 144.57 88.7268 144.905C88.7798 145.057 88.8141 145.215 88.8291 145.375C88.7589 145.231 88.704 145.081 88.6654 144.925L88.2559 143.615C87.9147 142.468 87.437 140.797 86.8911 138.708C85.7856 134.532 84.3594 128.684 82.8717 122.064C82.7797 120.975 82.7797 119.879 82.8717 118.789C83.0219 116.892 83.3767 115.077 83.6702 113.33C83.9636 111.583 84.2502 109.918 84.5163 108.273C85.0623 105.059 85.5536 102.131 85.963 99.7088C86.3725 97.2863 86.7273 95.3414 86.973 93.9425C87.0958 93.2942 87.1914 92.7688 87.2664 92.3798C87.2775 92.1696 87.3118 91.9614 87.3688 91.7588Z" fill="#263238"/>
<path d="M36.7207 87.9032L40.3375 136.354C40.3375 136.354 47.1069 105.489 47.3799 97.5934C47.5872 93.0651 47.1274 88.5309 46.0151 84.1364C46.0151 84.1364 39.4503 83.0786 36.7207 87.9032Z" fill="#455A64"/>
<path d="M34.6325 84.832C35.0794 84.9703 35.4913 85.203 35.8404 85.5144C36.2478 85.8403 36.5533 86.276 36.7207 86.7701C36.9131 87.3539 37.0345 87.9588 37.0823 88.5716C37.1984 89.8545 37.1915 91.0146 37.1915 91.854C37.2208 92.3096 37.2025 92.767 37.1369 93.2188C37.0015 92.7767 36.9348 92.3164 36.939 91.854C36.8708 91.0215 36.8435 89.8614 36.7275 88.5989C36.6115 87.3365 36.3249 86.2037 35.7107 85.6782C35.0965 85.1528 34.5984 84.8866 34.6325 84.832Z" fill="#263238"/>
<path d="M59.7307 86.5865C59.7307 86.5865 59.5738 86.4568 59.3213 86.1634C59.0688 85.8699 58.7139 85.481 58.2704 84.9009H58.4751C57.9838 86.3272 57.2331 88.3948 56.3801 90.715L56.2573 91.0426L56.073 90.7628C55.9707 90.6059 55.8478 90.4489 55.7523 90.2851C55.1801 89.2588 54.7071 88.1803 54.3397 87.0642C53.978 86.0474 53.6573 85.133 53.4253 84.3345C53.1933 83.5361 52.9613 82.9697 52.8043 82.5262C52.7102 82.3061 52.6371 82.0776 52.5859 81.8438C52.7339 82.0311 52.8514 82.2407 52.934 82.4647C53.1319 82.8742 53.3775 83.4884 53.6641 84.2458C53.9508 85.0033 54.2851 85.9314 54.6468 86.914C55.0266 88.0023 55.4968 89.0569 56.0526 90.0667C56.1481 90.2237 56.2573 90.367 56.3528 90.5103L56.0457 90.5581C56.9124 88.2447 57.6972 86.1907 58.2567 84.7849L58.3318 84.587L58.4615 84.7576C58.926 85.3374 59.3501 85.9484 59.7307 86.5865Z" fill="#263238"/>
<path d="M75.4261 83.2559C75.3737 83.481 75.2935 83.6988 75.1872 83.9041C75.0098 84.3136 74.7369 84.8936 74.3957 85.6102C74.0545 86.3267 73.6314 87.1729 73.1332 88.1078C72.6103 89.133 72.0128 90.1183 71.3453 91.0558L71.1201 91.3628L71.0314 90.9875L70.9973 90.8306C70.4377 88.449 69.9532 86.2857 69.6325 84.6889L69.8508 84.7435C69.3754 85.1978 68.8513 85.5982 68.2881 85.9377C67.9196 86.2038 67.749 86.3949 67.7285 86.3745C67.7081 86.354 67.8446 86.1424 68.1994 85.8285C68.7205 85.4516 69.2089 85.0315 69.6598 84.5729L69.8167 84.3887L69.885 84.6275C70.2808 86.1902 70.8062 88.3466 71.3658 90.7282V90.8852L71.0519 90.8169C71.706 89.8934 72.3009 88.9292 72.8329 87.9303L74.1568 85.4805L75.0508 83.8223C75.1518 83.6186 75.2779 83.4283 75.4261 83.2559Z" fill="#263238"/>
<path d="M60.0723 86.395C60.0723 86.395 58.1547 111.303 57.6566 114.51C57.1584 117.717 58.8644 167.922 58.8644 167.922L70.0832 168.645C70.0832 168.645 70.1992 127.189 70.0832 126.903C69.9672 126.616 70.1378 97.6342 70.1378 97.6342L67.5924 86.0879L63.2523 91.2264L60.0723 86.395Z" fill="white"/>
<path d="M72.5941 110.075C72.5941 110.13 72.1983 110.218 72.0004 110.757C71.9428 110.902 71.9173 111.058 71.9256 111.213C71.9338 111.369 71.9756 111.52 72.0482 111.658C72.1523 111.81 72.3001 111.926 72.4719 111.992C72.6437 112.058 72.8315 112.07 73.0103 112.027C73.1927 112.006 73.3641 111.929 73.501 111.807C73.6379 111.685 73.7335 111.523 73.7746 111.344C73.7944 111.19 73.7802 111.033 73.7331 110.884C73.6859 110.736 73.607 110.599 73.5017 110.484C73.2845 110.266 73.0061 110.118 72.7033 110.061C72.7033 110.061 72.792 109.993 72.9762 109.993C73.2332 110.021 73.4735 110.134 73.6586 110.314C73.8077 110.45 73.9229 110.619 73.9951 110.807C74.0674 110.996 74.0947 111.198 74.0749 111.399C74.0196 111.646 73.8929 111.871 73.7107 112.046C73.5285 112.221 73.2988 112.339 73.0501 112.385C72.8014 112.431 72.5447 112.403 72.312 112.304C72.0792 112.205 71.8807 112.04 71.7411 111.829C71.6494 111.648 71.6016 111.448 71.6016 111.245C71.6016 111.043 71.6494 110.843 71.7411 110.662C71.853 110.421 72.0464 110.228 72.287 110.116C72.4849 110.041 72.5873 110.055 72.5941 110.075Z" fill="#263238"/>
<path d="M72.594 131.816C72.594 131.871 72.1982 131.967 72.0003 132.499C71.9428 132.644 71.9172 132.799 71.9255 132.954C71.9337 133.11 71.9756 133.262 72.0481 133.4C72.1582 133.545 72.3065 133.656 72.4764 133.722C72.6463 133.788 72.8311 133.805 73.0102 133.772C73.1893 133.738 73.3556 133.656 73.4906 133.534C73.6256 133.411 73.7239 133.254 73.7746 133.079C73.7948 132.924 73.7809 132.767 73.7337 132.619C73.6865 132.47 73.6073 132.334 73.5016 132.219C73.1195 131.789 72.6964 131.851 72.7032 131.789C72.71 131.728 72.7919 131.721 72.9762 131.728C73.2327 131.752 73.4734 131.862 73.6586 132.042C73.8063 132.179 73.9207 132.348 73.9929 132.536C74.065 132.724 74.0931 132.926 74.0748 133.127C74.0195 133.373 73.8929 133.598 73.7107 133.774C73.5284 133.949 73.2987 134.067 73.05 134.113C72.8013 134.159 72.5446 134.13 72.3119 134.031C72.0792 133.933 71.8806 133.767 71.741 133.557C71.6494 133.377 71.6016 133.178 71.6016 132.977C71.6016 132.775 71.6494 132.576 71.741 132.396C71.853 132.156 72.0463 131.962 72.2869 131.851C72.4848 131.782 72.5872 131.803 72.594 131.816Z" fill="#263238"/>
<path d="M73.5701 158.116C73.5701 158.171 73.1743 158.266 72.9764 158.799C72.9188 158.943 72.8933 159.099 72.9015 159.254C72.9098 159.41 72.9516 159.562 73.0241 159.699C73.1343 159.844 73.2826 159.956 73.4525 160.022C73.6224 160.087 73.8072 160.105 73.9863 160.071C74.1654 160.038 74.3317 159.956 74.4666 159.833C74.6016 159.711 74.6999 159.554 74.7506 159.379C74.7709 159.224 74.7569 159.067 74.7097 158.918C74.6626 158.77 74.5833 158.633 74.4777 158.519C74.0955 158.089 73.6724 158.15 73.6793 158.089C73.6861 158.028 73.768 158.021 73.9522 158.028C74.2093 158.049 74.4508 158.16 74.6346 158.341C74.7849 158.477 74.9014 158.645 74.9748 158.834C75.0483 159.022 75.0767 159.225 75.0577 159.426C75.0036 159.675 74.8772 159.902 74.6944 160.079C74.5117 160.256 74.2807 160.375 74.0305 160.421C73.7803 160.466 73.5222 160.437 73.2885 160.337C73.0548 160.237 72.856 160.069 72.7171 159.856C72.627 159.676 72.5801 159.478 72.5801 159.276C72.5801 159.075 72.627 158.876 72.7171 158.696C72.829 158.456 73.0224 158.262 73.263 158.15C73.4814 158.082 73.5701 158.103 73.5701 158.116Z" fill="#263238"/>
<g opacity="0.3">
<path d="M88.1331 109.877C87.8874 107.891 87.362 105.946 87.2323 103.947C87.0685 101.558 87.4848 99.1697 87.0139 96.7881C85.3898 99.5177 85.0213 102.773 85.0145 105.932C85.0077 109.092 85.3011 112.265 84.8507 115.39C84.5436 117.533 83.8476 120.106 83.5883 122.255C83.3289 124.405 83.9431 125.586 84.5709 128.813C86.7342 122.706 88.9247 116.312 88.1331 109.877Z" fill="black"/>
</g>
<path d="M84.3457 104.8C85.6344 108.483 86.0517 112.415 85.5651 116.287C85.0785 120.158 83.7011 123.865 81.541 127.114" fill="#427CAF"/>
<path d="M81.5407 127.115C81.4792 127.074 82.2231 125.995 83.1238 124.098C83.6431 122.993 84.0855 121.853 84.4477 120.686C84.8765 119.246 85.1914 117.774 85.3894 116.285C85.564 114.792 85.6233 113.289 85.5669 111.788C85.5083 110.562 85.3646 109.342 85.1369 108.137C84.7343 106.09 84.2771 104.848 84.3453 104.82C84.4937 105.091 84.6127 105.377 84.7002 105.673C84.8026 105.953 84.9186 106.294 85.0278 106.697C85.1369 107.1 85.2871 107.564 85.3826 108.062C85.6483 109.277 85.8194 110.512 85.8944 111.754C86.0754 114.8 85.6914 117.854 84.7616 120.761C84.3772 121.933 83.9051 123.073 83.349 124.173C83.1238 124.658 82.8714 125.067 82.6666 125.429C82.4891 125.744 82.2955 126.049 82.0866 126.343C81.9325 126.619 81.7494 126.878 81.5407 127.115Z" fill="#263238"/>
<path d="M50.4501 137.719C49.971 137.422 49.5309 137.067 49.1399 136.661C47.1458 134.812 45.3961 132.716 43.9332 130.424C43.5995 129.965 43.3265 129.465 43.1211 128.937C43.4989 129.361 43.8391 129.818 44.1379 130.301C44.7452 131.141 45.5982 132.287 46.6082 133.502C47.6182 134.717 48.594 135.754 49.3378 136.504C49.7419 136.877 50.114 137.284 50.4501 137.719Z" fill="#263238"/>
<path d="M45.9602 138.436C45.6716 138.043 45.4417 137.611 45.2778 137.153C44.3171 135.004 43.6293 132.744 43.2305 130.424C43.1134 129.949 43.0652 129.46 43.0872 128.971C43.1896 128.971 43.5854 131.134 44.3838 133.748C45.1822 136.361 46.0557 138.402 45.9602 138.436Z" fill="#263238"/>
<path d="M67.9058 125.435C67.9058 125.483 67.4895 125.217 66.8139 124.951C65.9321 124.607 64.9847 124.463 64.0405 124.53C63.0963 124.597 62.1788 124.874 61.3547 125.34C60.7269 125.701 60.3925 126.022 60.3447 125.968C60.5654 125.62 60.8676 125.332 61.225 125.128C62.0545 124.575 63.0143 124.248 64.0092 124.18C65.0028 124.103 65.9988 124.292 66.8958 124.726C67.2855 124.876 67.6323 125.12 67.9058 125.435Z" fill="#263238"/>
<path d="M30.0186 123.819C30.0186 123.819 25.0029 129.278 25.385 133.086C25.7672 136.894 27.5414 145.274 32.2091 145.021C36.8768 144.769 41.1554 137.214 41.7628 131.223C42.3701 125.231 41.7628 111.133 41.7628 111.133L35.0684 112.641L30.0186 123.819Z" fill="#FFBE9D"/>
<path d="M20.0561 88.8794C23.5227 93.3082 32.1142 103.988 32.1142 103.988L40.2007 101.941C40.4895 101.869 40.7498 101.711 40.9471 101.488C41.1444 101.265 41.2696 100.987 41.3062 100.692C41.3301 100.499 41.3152 100.303 41.2624 100.115C41.2097 99.9276 41.1202 99.7525 40.9991 99.6L29.6644 85.2695C29.2414 84.7319 28.6583 84.3428 27.9994 84.1588C27.3405 83.9748 26.6402 84.0053 25.9998 84.2459L20.8204 86.1908C20.5662 86.2868 20.3381 86.441 20.1542 86.641C19.9704 86.8411 19.8359 87.0814 19.7616 87.3428C19.6873 87.6041 19.6753 87.8792 19.7264 88.1461C19.7775 88.4129 19.8905 88.6641 20.0561 88.8794Z" fill="#263238"/>
<path d="M40.4464 100.125C40.1677 99.8983 39.9076 99.6496 39.6685 99.3814C39.184 98.8764 38.4948 98.1462 37.6691 97.2249C36.0176 95.3756 33.8066 92.7484 31.5274 89.7185C30.961 88.961 30.4151 88.2172 29.8964 87.487C29.4676 86.7724 28.8905 86.1581 28.2041 85.6855C27.8706 85.5304 27.5073 85.4501 27.1395 85.4501C26.7718 85.4501 26.4084 85.5304 26.075 85.6855L24.1642 86.3679L21.3732 87.2891C21.0373 87.419 20.6901 87.5173 20.3359 87.5825C20.6547 87.4169 20.9855 87.2755 21.3254 87.1595L24.0551 86.129L25.959 85.4466C26.3242 85.3103 26.7045 85.2186 27.0918 85.1737C27.5243 85.1379 27.958 85.228 28.3406 85.433C29.0792 85.919 29.7013 86.5621 30.1626 87.3164L31.7935 89.541C34.0591 92.5641 36.2292 95.205 37.8328 97.0885C38.604 97.9961 39.2522 98.7467 39.7436 99.3199C39.999 99.5691 40.234 99.8384 40.4464 100.125Z" fill="#455A64"/>
<path d="M24.6487 87.3914C24.77 87.3317 24.9064 87.3094 25.0405 87.3273C25.1745 87.3452 25.3002 87.4026 25.4016 87.4921C25.503 87.5816 25.5755 87.6993 25.6099 87.8301C25.6443 87.9609 25.6391 88.0989 25.5949 88.2268C25.5507 88.3546 25.4695 88.4664 25.3616 88.548C25.2538 88.6296 25.1241 88.6772 24.9891 88.685C24.854 88.6927 24.7197 88.6602 24.6032 88.5914C24.4868 88.5227 24.3933 88.4209 24.3348 88.299C24.257 88.1369 24.2463 87.9506 24.3051 87.7806C24.3638 87.6107 24.4873 87.4708 24.6487 87.3914Z" fill="white"/>
<path d="M31.5818 97.0745L27.8422 97.6955L26.4774 98.9238C26.2844 99.0904 26.136 99.3024 26.0454 99.5407C25.9549 99.7789 25.9251 100.036 25.9587 100.289C26.065 100.961 26.3582 101.59 26.8049 102.104C27.2867 102.702 27.8311 103.246 28.429 103.728C28.429 103.728 27.1188 105.857 29.1524 106.935C29.1524 106.935 29.0159 109.139 31.1518 109.365C31.1518 109.365 31.7728 111.46 33.3833 111.576L35.0416 113.22L34.5366 114.223L41.9543 114.455C41.9919 112.477 41.8939 110.498 41.6609 108.532C41.5349 107.732 41.3409 106.945 41.0809 106.178C41.4562 104.09 39.8935 103.216 39.6546 103.366C39.6546 103.366 43.1963 102.438 42.7459 100.002L39.3339 100.876L33.1035 102.172L37.1024 99.5039C37.3006 99.322 37.4749 99.1156 37.6211 98.8897C37.9623 98.3506 38.4672 97.3748 38.0373 96.8016C37.8531 96.5627 32.9398 98.6168 32.9398 98.6168L29.8962 101.421L28.9408 100.057C28.9408 100.057 32.0731 99.4152 31.5818 97.0745Z" fill="#FFBE9D"/>
<path d="M40.1326 103.394C40.1326 103.503 38.8155 103.688 37.2392 104.152C35.6628 104.616 34.4345 105.155 34.3867 105.059C35.2056 104.467 36.1332 104.043 37.1163 103.81C38.0837 103.471 39.1094 103.329 40.1326 103.394Z" fill="#EB996E"/>
<path d="M38.4194 109.815C38.8654 109.41 39.2784 108.969 39.6546 108.498L39.7842 108.328L39.8729 108.526C39.9955 108.787 40.2126 108.991 40.4803 109.099C40.6209 109.169 40.7776 109.201 40.9346 109.192C41.0915 109.182 41.2432 109.131 41.3742 109.044C41.4309 109 41.4729 108.94 41.4949 108.872C41.5168 108.804 41.5176 108.731 41.4971 108.662L41.3947 108.048C41.3435 107.621 41.259 107.199 41.1422 106.785C41.0862 106.61 40.9748 106.457 40.8248 106.35C40.6747 106.243 40.494 106.187 40.3097 106.192C39.924 106.209 39.5426 106.28 39.1769 106.403L37.1774 106.895C36.569 107.073 35.9453 107.194 35.3145 107.256C35.896 107.002 36.4989 106.798 37.116 106.649L39.0813 106.089C39.4797 105.942 39.8989 105.859 40.3233 105.844C40.5661 105.849 40.8025 105.922 41.0057 106.055C41.212 106.209 41.3686 106.421 41.4561 106.663C41.5795 107.099 41.6685 107.543 41.7222 107.993C41.7222 108.205 41.7837 108.416 41.8178 108.621C41.8429 108.748 41.8312 108.88 41.784 109.001C41.7369 109.122 41.6563 109.227 41.5516 109.304C41.3736 109.422 41.1671 109.491 40.9536 109.503C40.74 109.515 40.5272 109.47 40.337 109.372C40.0248 109.214 39.7818 108.947 39.6546 108.621H39.8661C39.5805 108.979 39.245 109.294 38.8698 109.556C38.59 109.74 38.433 109.836 38.4194 109.815Z" fill="#EB996E"/>
<path d="M31.8613 99.5039C31.3675 100.274 30.8106 101.003 30.1962 101.681C29.678 102.435 29.0958 103.142 28.4561 103.796C28.8028 102.948 29.2895 102.163 29.8959 101.476C30.4294 100.708 31.0948 100.04 31.8613 99.5039Z" fill="#EB996E"/>
<path d="M33.4033 102.077C33.4033 102.18 32.6254 102.425 32.0385 103.224C31.7316 103.731 31.5017 104.28 31.3561 104.855C31.3083 104.855 31.2401 104.65 31.2537 104.295C31.2957 103.833 31.4618 103.39 31.7345 103.014C32.0071 102.638 32.3762 102.343 32.8028 102.159C33.1713 102.036 33.3897 102.036 33.4033 102.077Z" fill="#EB996E"/>
<path d="M73.4337 47.1025C72.8605 45.6012 73.0857 43.9293 72.8605 42.3257C72.3692 38.8249 69.5509 36.0134 66.289 34.6418C63.2522 33.3725 59.5468 33.6455 55.8891 34.8192C53.3484 35.5865 51.0785 37.0611 49.3448 39.0706C48.2399 40.4335 47.4775 42.0411 47.1214 43.7591C46.7652 45.477 46.8256 47.2552 47.2976 48.945L65.2176 46.3587C66.8895 47.7235 68.6296 49.1634 70.6427 49.9413C71.2292 50.2026 71.8737 50.3061 72.5125 50.2416C72.825 50.1987 73.1189 50.0683 73.3604 49.8654C73.6019 49.6626 73.7811 49.3955 73.8773 49.0951C74.082 48.4196 73.6862 47.7576 73.4337 47.1025Z" fill="#263238"/>
<path d="M62.2972 33.7476C66.221 33.0651 69.6671 34.6006 72.97 36.8184C76.2683 39.0974 78.7901 42.3312 80.1967 46.0855C81.7048 49.9956 82.0869 55.6391 80.8791 59.6722C80.3583 61.5657 79.3877 63.3054 78.0498 64.7431C76.7119 66.1808 75.0465 67.2739 73.1952 67.9293C67.8042 69.84 61.5943 69.6012 57.0085 66.1482C52.4227 62.6952 49.8433 56.9835 49.6317 51.2649C49.4305 47.2955 50.4834 43.3635 52.6411 40.0257C53.7284 38.3751 55.1438 36.966 56.7991 35.8859C58.4544 34.8058 60.3143 34.0779 62.263 33.7476" fill="#263238"/>
<path d="M56.0669 76.4183L56.2102 79.612L63.2527 92.0659L73.4888 78.9637L73.8368 46.2082C73.823 45.4762 73.5347 44.7761 73.0292 44.2466C72.5237 43.717 71.8377 43.3967 71.1072 43.3489L55.4732 40.0119C50.4917 39.6775 47.4208 45.9079 47.2844 50.9304C47.1479 56.4784 47.1888 63.2547 47.9668 67.3559C49.5977 75.6062 55.9987 76.4251 55.9987 76.4251" fill="#FFBE9D"/>
<path d="M49.5635 57.8021C49.5689 58.0803 49.6836 58.3451 49.8829 58.5393C50.0821 58.7334 50.3498 58.8412 50.628 58.8394C50.7641 58.8449 50.9 58.8231 51.0276 58.7754C51.1552 58.7277 51.272 58.655 51.3712 58.5616C51.4703 58.4681 51.5498 58.3559 51.605 58.2313C51.6602 58.1068 51.69 57.9725 51.6926 57.8363C51.682 57.5604 51.5655 57.2993 51.3671 57.1074C51.1688 56.9154 50.904 56.8074 50.628 56.8058C50.4922 56.7994 50.3566 56.8203 50.229 56.8672C50.1014 56.9142 49.9845 56.9862 49.8853 57.0791C49.786 57.172 49.7064 57.2838 49.6512 57.408C49.5959 57.5322 49.5661 57.6662 49.5635 57.8021Z" fill="#263238"/>
<path d="M48.9218 54.1238C49.0583 54.2603 49.843 53.6324 50.969 53.5915C52.095 53.5506 52.9753 54.0897 53.0913 53.9463C53.2073 53.803 53.0094 53.6393 52.6273 53.3868C52.1209 53.0586 51.5239 52.8986 50.9212 52.9296C50.3261 52.9486 49.7525 53.1565 49.2835 53.5233C48.9627 53.7826 48.8536 54.0624 48.9218 54.1238Z" fill="#263238"/>
<path d="M59.9561 57.6049C59.9632 57.8836 60.0794 58.1485 60.2798 58.3424C60.4801 58.5364 60.7486 58.644 61.0274 58.6421C61.1627 58.6476 61.2976 58.626 61.4244 58.5787C61.5512 58.5313 61.6672 58.4591 61.7657 58.3663C61.8642 58.2735 61.9432 58.162 61.9981 58.0383C62.0529 57.9146 62.0825 57.7811 62.0852 57.6458C62.0798 57.3677 61.965 57.1028 61.7658 56.9087C61.5665 56.7145 61.2988 56.6067 61.0206 56.6086C60.8848 56.6021 60.7491 56.623 60.6216 56.67C60.494 56.7169 60.3771 56.7889 60.2779 56.8818C60.1786 56.9747 60.099 57.0866 60.0437 57.2108C59.9884 57.3349 59.9586 57.469 59.9561 57.6049Z" fill="#263238"/>
<path d="M59.7997 53.8581C59.9362 53.9946 60.7209 53.3668 61.8469 53.3259C62.9729 53.2849 63.8941 53.8309 63.976 53.6807C64.0579 53.5306 63.8941 53.3736 63.512 53.1211C63.0056 52.793 62.4086 52.633 61.806 52.6639C61.2108 52.683 60.6372 52.8909 60.1682 53.2576C59.8406 53.5442 59.7314 53.7831 59.7997 53.8581Z" fill="#263238"/>
<path d="M56.3459 62.5659C55.7362 62.3997 55.1081 62.3103 54.4761 62.2997C54.1827 62.2997 53.9029 62.2315 53.8483 62.0336C53.8104 61.7325 53.8677 61.427 54.0121 61.1601L54.7901 58.9014C55.8751 55.6872 56.6462 53.0463 56.5165 53.0054C56.3869 52.9644 55.4042 55.5303 54.3192 58.7512L53.5754 61.0236C53.4067 61.3839 53.3681 61.7914 53.4662 62.1769C53.514 62.2776 53.5834 62.3665 53.6695 62.4373C53.7556 62.5081 53.8563 62.559 53.9643 62.5864C54.1276 62.6237 54.2951 62.6398 54.4625 62.6341C55.0906 62.6946 55.7239 62.6717 56.3459 62.5659Z" fill="#263238"/>
<path d="M56.0664 76.4184C59.9859 76.1555 63.7739 74.8991 67.0736 72.7676C67.0736 72.7676 64.4941 78.6158 56.1551 78.1518L56.0664 76.4184Z" fill="#EB996E"/>
<path d="M57.2269 65.029C57.4348 64.8005 57.6971 64.6281 57.9893 64.5279C58.2816 64.4277 58.5944 64.4029 58.8988 64.4558C59.1169 64.4763 59.3269 64.549 59.511 64.6678C59.6951 64.7865 59.8479 64.9479 59.9565 65.1382C60.114 65.3686 60.2067 65.6372 60.2247 65.9158C60.2427 66.1943 60.1854 66.4726 60.0589 66.7214C59.8845 66.9365 59.6488 67.0935 59.3831 67.1715C59.1174 67.2495 58.8342 67.2448 58.5712 67.1581C58.0755 67.045 57.6099 66.8262 57.2064 66.5167C57.0763 66.3908 56.9861 66.2294 56.9471 66.0526C56.9199 65.8704 56.9339 65.6845 56.9883 65.5085C57.0426 65.3325 57.1358 65.1709 57.261 65.0358" fill="#EB996E"/>
<path d="M59.867 51.1766C59.9899 51.4837 61.1295 51.2926 62.4738 51.4086C63.8182 51.5246 64.9305 51.8454 65.0943 51.5588C65.1693 51.4223 64.9714 51.1357 64.5211 50.8763C63.9261 50.5204 63.2545 50.3121 62.5626 50.269C61.8643 50.2109 61.1624 50.3209 60.5153 50.5897C60.0513 50.774 59.8125 51.0538 59.867 51.1766Z" fill="#263238"/>
<path d="M49.0653 49.1019C49.2769 49.3543 50.0548 49.0541 51.0034 49.0063C51.9519 48.9586 52.764 49.1155 52.9346 48.8357C53.0096 48.7061 52.8732 48.4467 52.5183 48.2147C52.0349 47.9368 51.4799 47.8086 50.9235 47.8463C50.3672 47.8839 49.8345 48.0858 49.3929 48.4263C49.0722 48.7061 49.0039 49.0063 49.0653 49.1019Z" fill="#263238"/>
<path d="M76.3003 44.6932C74.683 39.9163 67.6132 33.4266 62.5975 33.8702L54.6748 38.8245C54.9608 40.1872 55.6095 41.4474 56.5524 42.4719C57.4953 43.4965 58.6974 44.2474 60.0317 44.6454C61.4579 45.048 63.1639 45.1367 64.0306 46.3378C64.8972 47.5388 64.4469 49.3881 65.2726 50.6574C66.4122 52.418 69.4421 52.2747 70.3156 54.1854C70.6909 55.018 70.5203 56.0211 70.9161 56.8536C71.4415 57.9523 74.2803 59.3103 75.4404 58.9009C76.6005 58.4914 76.5596 56.5261 76.9213 55.4888C77.3777 54.3087 77.4138 53.0075 77.0236 51.8038C76.4777 49.4768 77.0782 46.9588 76.3003 44.6932Z" fill="#263238"/>
<path d="M72.0283 59.9652C72.0283 59.3442 72.6698 57.8634 73.2771 57.7405C74.8944 57.4266 77.8356 57.4471 78.054 61.5893C78.3065 67.2465 72.5947 66.3252 72.5538 66.1683C72.5128 66.0113 72.1034 62.1011 72.0283 59.9652Z" fill="#FFBE9D"/>
<path d="M74.1568 63.9437C74.1568 63.9437 74.2591 64.0119 74.4229 64.0801C74.5408 64.1291 74.6672 64.1544 74.7948 64.1544C74.9225 64.1544 75.0489 64.1291 75.1667 64.0801C75.7536 63.8345 76.2108 62.8655 76.1972 61.8487C76.1926 61.3623 76.0759 60.8836 75.856 60.4497C75.797 60.275 75.6957 60.1175 75.5612 59.9913C75.4267 59.8651 75.263 59.7741 75.0848 59.7264C74.97 59.6996 74.8494 59.7143 74.7444 59.768C74.6395 59.8218 74.557 59.911 74.5116 60.0198C74.4434 60.1836 74.5116 60.2928 74.457 60.2996C74.4024 60.3064 74.3274 60.2109 74.3683 59.9789C74.3898 59.8354 74.4625 59.7044 74.573 59.6104C74.7243 59.4872 74.9179 59.4284 75.1121 59.4466C75.3466 59.481 75.568 59.5759 75.7547 59.7219C75.9414 59.8678 76.0868 60.0599 76.1767 60.2791C76.4387 60.7592 76.5814 61.2951 76.593 61.8419C76.593 62.9815 76.0675 64.0733 75.2281 64.3463C75.0783 64.3971 74.919 64.4137 74.7619 64.3948C74.6049 64.3759 74.454 64.322 74.3206 64.2371C74.1704 64.0802 74.1363 63.9573 74.1568 63.9437Z" fill="#EB996E"/>
<path d="M81.4319 52.2276C81.603 51.6782 81.6769 51.1032 81.6502 50.5284C81.6655 47.7307 80.7429 45.0086 79.0298 42.7967C78.704 42.3247 78.3001 41.9116 77.8356 41.5752C77.7264 41.6434 79.6235 43.5269 80.6198 46.5636C81.1805 48.3985 81.4544 50.309 81.4319 52.2276Z" fill="#427CAF"/>
<path d="M56.3259 37.1183C55.8004 39.418 52.2997 42.366 50.7574 44.1607C47.8231 47.5727 47.2704 48.0777 47.2908 58.3889C45.7726 55.1881 44.9692 51.6952 44.9365 48.1528C45.0052 45.1405 46.1726 42.2573 48.2189 40.0458C49.2502 38.9623 50.5199 38.1342 51.9272 37.6272C53.3344 37.1202 54.8405 36.9483 56.3259 37.1251" fill="#263238"/>
<path d="M79.1864 44.6188C78.8772 44.7317 78.557 44.8117 78.231 44.8576C77.9171 44.9259 77.5486 45.0009 77.0846 45.0555C76.6205 45.1101 76.1224 45.2056 75.5492 45.2329C74.2157 45.3305 72.8769 45.3305 71.5434 45.2329C69.9067 45.1146 68.2819 44.8659 66.6847 44.4891C65.0926 44.0898 63.536 43.5603 62.0307 42.9059C60.8049 42.3671 59.6211 41.7376 58.489 41.0225C57.9909 40.7359 57.5814 40.422 57.2129 40.1627C56.8919 39.9514 56.5821 39.7237 56.2848 39.4803C56.0195 39.2725 55.7708 39.0444 55.541 38.7979C55.8322 38.9544 56.1086 39.1372 56.3667 39.3438C56.6192 39.5348 56.9331 39.76 57.3153 40.0262C57.6974 40.2923 58.1137 40.5653 58.6118 40.8382C59.7494 41.5198 60.9328 42.1217 62.1535 42.6398C63.6414 43.2867 65.1768 43.8182 66.7461 44.2298C68.3175 44.6013 69.9141 44.8568 71.523 44.9941C72.8446 45.0931 74.1714 45.1045 75.4946 45.0282C76.061 45.0282 76.5728 44.9395 77.0163 44.9054C77.4599 44.8713 77.8489 44.8098 78.1628 44.7621C78.4996 44.6868 78.8419 44.6388 79.1864 44.6188Z" fill="#455A64"/>
<path d="M79.7731 48.6782C79.5534 48.7596 79.324 48.8123 79.0907 48.8351C78.4885 48.9483 77.8801 49.0258 77.2687 49.0672C73.2003 49.3656 69.1267 48.5617 65.4767 46.7402C64.9255 46.4706 64.3901 46.1699 63.8731 45.8394C63.6739 45.7303 63.4902 45.5949 63.3271 45.4368C63.3271 45.389 64.1802 45.8872 65.5791 46.5286C69.2341 48.2087 73.2359 48.9969 77.2551 48.8283C78.8178 48.7669 79.7663 48.6168 79.7731 48.6782Z" fill="#455A64"/>
<path d="M81.2067 48.8154C81.3043 49.0911 81.3685 49.3775 81.3978 49.6684C81.4865 50.228 81.5752 51.0333 81.6298 52.0364C81.6912 53.2116 81.6912 54.3892 81.6298 55.5644C81.5761 57.0084 81.3818 58.4437 81.0498 59.8499C80.3836 62.4342 78.8305 64.7022 76.6619 66.2577C76.0037 66.7073 75.299 67.0848 74.5601 67.3837C74.2975 67.5107 74.0201 67.6047 73.7344 67.6635C73.9797 67.508 74.2377 67.3734 74.5055 67.2609C75.2101 66.9196 75.8836 66.5178 76.5186 66.0598C77.4496 65.3714 78.2611 64.5345 78.9207 63.5827C79.7509 62.4338 80.3596 61.1401 80.7154 59.768C81.0382 58.3802 81.2391 56.9668 81.3159 55.544C81.3978 54.2269 81.4114 53.0395 81.391 52.0432C81.3705 51.0469 81.3227 50.2417 81.2681 49.6889C81.2216 49.4002 81.201 49.1078 81.2067 48.8154Z" fill="#455A64"/>
<path d="M58.6388 67.1442C58.9452 67.1471 59.2475 67.0745 59.5191 66.9327C59.652 66.8509 59.7659 66.7416 59.853 66.6121C59.9401 66.4826 59.9985 66.336 60.0241 66.182C60.0547 65.9934 60.0437 65.8004 59.9918 65.6165C59.9399 65.4326 59.8485 65.2623 59.7238 65.1175C59.4585 64.833 59.0951 64.6598 58.707 64.6329C58.3803 64.6133 58.0545 64.6842 57.7653 64.8377C57.2603 65.1038 57.0829 65.4314 57.001 65.3972C56.9191 65.3631 57.1034 64.9878 57.6357 64.6193C57.956 64.4045 58.3352 64.2948 58.7207 64.3054C58.9606 64.3109 59.1968 64.3651 59.415 64.4648C59.6332 64.5646 59.8288 64.7077 59.99 64.8854C60.151 65.0698 60.2669 65.2891 60.3285 65.5259C60.3901 65.7628 60.3957 66.0108 60.3448 66.2503C60.3074 66.4434 60.2265 66.6255 60.1083 66.7827C59.99 66.94 59.8376 67.0683 59.6624 67.1579C59.021 67.4308 58.6047 67.1715 58.6388 67.1442Z" fill="#263238"/>
<path d="M93.5439 113.739L96.5875 107.249C97.0925 105.202 99.1533 104.52 101.678 104.356L104.346 103.264C104.346 103.264 106.291 100.459 108.093 100.534C108.234 100.539 108.37 100.588 108.483 100.673C108.595 100.759 108.678 100.877 108.721 101.012C108.751 101.104 108.76 101.201 108.747 101.297C108.734 101.393 108.699 101.484 108.646 101.565L106.455 104.936L104.708 105.796C104.708 105.796 106.346 106.192 106.994 105.584C107.642 104.977 109.833 103.244 109.833 103.244C109.833 103.244 111.505 100.234 113.675 100.459C113.74 100.465 113.803 100.487 113.857 100.523C113.912 100.559 113.956 100.608 113.987 100.665C114.019 100.723 114.035 100.787 114.035 100.852C114.035 100.917 114.019 100.982 113.989 101.039L112.324 104.253C112.324 104.253 115.36 99.6882 118.254 101.394L115.047 104.881C115.047 104.881 119.701 102.24 121.557 104.451L109.778 109.317L102.988 110.648L100.614 117.09L98.5255 115.882L93.5439 113.739Z" fill="#FFBE9D"/>
<path d="M100.6 122.166C100.6 122.166 100.962 133.699 98.833 136.879C96.7039 140.059 92.7459 144.386 87.8462 140.919L84.7822 129.318C84.7822 129.318 89.7706 123.859 90.6782 121.607C92.937 116.018 96.5879 107.276 96.5879 107.276L103.084 110.17L100.6 122.166Z" fill="#FFBE9D"/>
<path d="M91.4148 120.55C91.214 121.058 90.9673 121.547 90.6778 122.01C90.2001 122.89 89.5587 124.119 88.924 125.511C88.2894 126.903 87.7776 128.193 87.4159 129.134C87.2581 129.656 87.0502 130.161 86.7949 130.643C86.8588 130.099 86.9895 129.565 87.1839 129.053C87.5736 127.795 88.0454 126.564 88.5965 125.368C89.1452 124.168 89.7673 123.003 90.4594 121.88C90.7229 121.4 91.0437 120.953 91.4148 120.55Z" fill="#EB996E"/>
<path d="M106.455 104.902C105.989 105.311 105.449 105.628 104.865 105.837C104.332 106.151 103.744 106.36 103.132 106.451C103.597 106.044 104.134 105.726 104.715 105.517C105.251 105.203 105.841 104.995 106.455 104.902Z" fill="#EB996E"/>
<path d="M107.432 107.952C107.432 107.905 107.739 107.7 108.291 107.461L109.274 107.059L109.841 106.82C110.03 106.748 110.197 106.628 110.325 106.472C110.919 105.789 111.403 105.107 111.792 104.65C112.181 104.192 112.475 103.906 112.509 103.967C112.47 104.047 112.427 104.124 112.379 104.199L111.997 104.8C111.569 105.467 111.097 106.106 110.584 106.711C110.502 106.805 110.41 106.892 110.311 106.97C110.209 107.039 110.099 107.096 109.984 107.14L109.39 107.366C109.015 107.502 108.667 107.604 108.38 107.7C108.075 107.822 107.757 107.907 107.432 107.952Z" fill="#EB996E"/>
</svg>
