<svg width="300" height="190" viewBox="0 0 300 190" fill="none" xmlns="http://www.w3.org/2000/svg">
<path d="M57.9354 11.6709H16.0459V72.3911H57.9354V11.6709Z" fill="#E0E0E0"/>
<path d="M55.8348 11.6709H13.9453V72.3911H55.8348V11.6709Z" fill="#F5F5F5"/>
<path d="M50.6337 18.2461H19.1504V65.8113H50.6337V18.2461Z" fill="white"/>
<path d="M50.6338 65.8159C50.6338 65.8159 50.6338 65.7337 50.6338 65.583C50.6338 65.4323 50.6338 65.1994 50.6338 64.9072C50.6338 64.3091 50.6338 63.4324 50.6338 62.3C50.6338 60.0169 50.6338 56.6973 50.6018 52.5011C50.6018 44.1131 50.5745 32.2321 50.5516 18.2553L50.6566 18.3603H19.1779L19.292 18.2461C19.292 36.1909 19.292 52.734 19.292 65.8159L19.2007 65.7246L42.118 65.7702L48.4466 65.793H50.1087H50.684H50.127H48.4832H42.1728L19.2007 65.8387H19.1094V65.7474C19.1094 52.6655 19.1094 36.1224 19.1094 18.1776V18.0635H19.2281H50.7069H50.8119V18.2507C50.8119 32.2687 50.7708 44.1679 50.7617 52.5742C50.7617 56.7613 50.7388 60.0717 50.7297 62.3456C50.7297 63.4735 50.7297 64.341 50.7297 64.9346C50.7297 65.2223 50.7297 65.446 50.7297 65.5967C50.7297 65.7474 50.6338 65.8159 50.6338 65.8159Z" fill="#E0E0E0"/>
<path d="M55.9583 11.6709C55.7417 12.0592 55.4911 12.4274 55.2094 12.7713C54.7254 13.4197 54.0314 14.3055 53.246 15.2644C52.4606 16.2233 51.7209 17.068 51.173 17.6708C50.8976 18.0113 50.592 18.3261 50.2598 18.6114C50.4963 18.241 50.7636 17.8912 51.0588 17.5658L53.0771 15.1183L55.0861 12.6572C55.3484 12.3043 55.6402 11.9744 55.9583 11.6709Z" fill="#E0E0E0"/>
<path d="M50.7939 65.6611C52.3573 68.1428 54.1953 70.4403 56.2733 72.5103L50.7939 65.6611Z" fill="white"/>
<path d="M56.2867 72.5286C55.9353 72.2747 55.6137 71.9822 55.3278 71.6564C54.5977 70.9143 53.9058 70.1355 53.2548 69.3232C52.4968 68.3688 51.8621 67.4602 51.4283 66.789C51.1788 66.4349 50.9647 66.0571 50.7891 65.6611C51.0715 65.9872 51.3294 66.3336 51.5607 66.6976C52.0173 67.346 52.6749 68.2319 53.4283 69.177C54.1817 70.1222 54.9123 70.9533 55.4419 71.5468C55.7466 71.8535 56.0289 72.1815 56.2867 72.5286Z" fill="#E0E0E0"/>
<path d="M13.9404 72.3412L19.4198 65.5742L13.9404 72.3412Z" fill="white"/>
<path d="M19.4289 65.5742C18.6024 66.7708 17.7155 67.9245 16.7714 69.0308C15.888 70.1844 14.943 71.2895 13.9404 72.3412C14.7669 71.1446 15.6539 69.9909 16.5979 68.8846C17.4813 67.731 18.4264 66.6259 19.4289 65.5742Z" fill="#E0E0E0"/>
<path d="M13.9453 11.6709C14.8919 12.6868 15.7821 13.7539 16.6119 14.8672C17.5006 15.9301 18.3299 17.0414 19.0959 18.1959C18.1509 17.1798 17.2623 16.1127 16.4338 14.9996C15.5439 13.9365 14.7132 12.8252 13.9453 11.6709Z" fill="#E0E0E0"/>
<path d="M40.8254 27.9043H30.2822V57.8352H40.8254V27.9043Z" fill="#E0E0E0"/>
<path d="M114.413 2.82227V29.4153H76.2221L74.8477 3.00948L114.413 2.82227Z" fill="#E0E0E0"/>
<path d="M74.8428 3.009V29.3555L113.034 29.3555V3.009L74.8428 3.009Z" fill="white"/>
<path d="M113.217 29.5389H74.665V2.82715H113.217V29.5389ZM75.0303 29.1782H112.856V3.1833H75.0303V29.1782Z" fill="#E0E0E0"/>
<path d="M108.902 6.2832H78.9844V26.0819H108.902V6.2832Z" fill="white"/>
<path d="M108.902 6.28305H108.327H106.683H100.518L78.9847 6.37893L79.0714 6.29218C79.0714 12.3423 79.0714 19.0453 79.0714 26.0908L78.9801 25.9995H108.897L108.82 26.0726C108.82 20.0499 108.852 15.1139 108.861 11.6665C108.861 9.94963 108.861 8.6072 108.861 7.68484C108.861 7.22823 108.861 6.88121 108.861 6.6392C108.861 6.3972 108.861 6.27391 108.861 6.27391C108.861 6.27391 108.861 6.38807 108.861 6.62094C108.861 6.85381 108.861 7.2054 108.861 7.65288C108.861 8.5661 108.861 9.90854 108.884 11.6208C108.884 15.0728 108.906 20.0316 108.92 26.0726V26.1502H108.847H78.9299H78.834V26.0543C78.834 19.0088 78.834 12.3057 78.834 6.25565V6.19629H78.9207L100.514 6.23738L106.66 6.26478H108.285H108.838L108.902 6.28305Z" fill="#E0E0E0"/>
<path d="M74.8477 2.93652C75.0837 3.05002 75.3046 3.19269 75.5052 3.36117C75.8933 3.64427 76.4184 4.04609 77.0029 4.5027C77.5873 4.95931 78.0805 5.41592 78.4366 5.72185C78.6404 5.88724 78.8242 6.07571 78.9846 6.28348C78.257 5.77473 77.556 5.22913 76.8841 4.64882C76.1697 4.12181 75.4895 3.54989 74.8477 2.93652Z" fill="#E0E0E0"/>
<path d="M113.038 3.00977C112.41 3.62767 111.739 4.19989 111.029 4.72206C110.358 5.29201 109.646 5.81384 108.901 6.28367C109.529 5.66576 110.201 5.09354 110.91 4.57138C111.581 4.00021 112.292 3.47831 113.038 3.00977Z" fill="#E0E0E0"/>
<path d="M113.007 29.3602L108.747 25.9082L113.007 29.3602Z" fill="white"/>
<path d="M108.747 25.9082C109.513 26.4105 110.245 26.9627 110.939 27.5611C111.668 28.1137 112.359 28.7148 113.007 29.3602C112.241 28.8608 111.51 28.3085 110.82 27.7073C110.088 27.1569 109.395 26.5557 108.747 25.9082Z" fill="#E0E0E0"/>
<path d="M74.8477 29.3555C75.4681 28.7452 76.1319 28.1805 76.8339 27.6661C77.4982 27.1011 78.2016 26.5838 78.9389 26.1182C78.3204 26.732 77.6564 27.2983 76.9526 27.8122C76.2891 28.3767 75.5856 28.8925 74.8477 29.3555Z" fill="#E0E0E0"/>
<path d="M85.0576 12.452V19.082H103.884V12.452H85.0576Z" fill="#E0E0E0"/>
<path d="M270.008 121.98C270.008 121.98 266.578 120.382 263.889 128.418C261.2 136.455 260.401 140.98 260.401 140.98C260.401 140.98 259.629 142.696 258.401 141.833C257.172 140.97 255.268 138.29 253.519 139.094C251.771 139.897 251.396 142.126 252.223 145.18C253.049 148.235 254.615 154.988 254.752 155.6C254.889 156.212 254.675 157.148 253.748 156.696C252.821 156.244 247.15 151.564 245.072 154.381C242.994 157.198 246.711 165.34 247.099 166.226C247.488 167.111 247.364 167.55 246.953 167.847C246.542 168.143 244.794 166.39 243.127 165.107C241.46 163.824 239.31 162.669 238.255 164.395C237.2 166.121 237.748 172.554 245.36 181.997L249.172 186.138L254.711 184.992C266.414 181.819 270.633 176.933 270.793 174.915C270.953 172.897 268.51 172.586 266.432 172.632C264.355 172.678 261.894 173.066 261.738 172.582C261.583 172.098 261.738 171.668 262.569 171.212C263.4 170.755 271.177 166.303 271.167 162.81C271.158 159.317 263.821 159.783 262.802 159.614C261.784 159.445 262.168 158.541 262.629 158.134C263.09 157.728 268.332 153.171 270.793 151.185C273.254 149.199 274.304 147.231 273.318 145.5C272.332 143.769 269.254 144.879 267.757 144.856C266.259 144.833 266.638 142.989 266.638 142.989C266.638 142.989 268.647 138.879 271.204 130.774C273.761 122.669 269.935 121.971 269.935 121.971" fill="#EBEBEB"/>
<path d="M248.451 187.284C250.342 181.348 253.876 170.869 256.867 161.851C259.857 152.832 262.556 144.673 264.478 138.755C265.433 135.796 266.204 133.404 266.761 131.742C267.031 130.92 267.218 130.276 267.382 129.833C267.452 129.623 267.507 129.459 267.547 129.34C267.583 129.226 267.606 129.171 267.606 129.171C267.606 129.171 267.606 129.23 267.56 129.344C267.515 129.459 267.478 129.628 267.414 129.842C267.277 130.299 267.081 130.933 266.825 131.76C266.314 133.427 265.56 135.828 264.611 138.792C262.72 144.728 260.045 152.892 257.054 161.905C254.063 170.919 250.506 181.403 248.584 187.32" fill="#E0E0E0"/>
<path d="M256.036 142.942C256.112 143.055 256.178 143.174 256.232 143.299C256.351 143.531 256.511 143.878 256.689 144.303C257.077 145.157 257.602 146.349 258.109 147.673C258.616 148.997 259.095 150.161 259.479 151.065C259.639 151.472 259.78 151.819 259.89 152.093C259.952 152.214 259.998 152.343 260.027 152.476C259.951 152.364 259.885 152.245 259.831 152.12C259.712 151.887 259.552 151.545 259.374 151.116C258.995 150.257 258.506 149.061 257.977 147.737C257.447 146.413 256.972 145.253 256.607 144.353L256.187 143.326C256.12 143.205 256.07 143.076 256.036 142.942Z" fill="#E0E0E0"/>
<path d="M260.561 152.495C260.538 152.449 262.949 151.308 265.944 149.938C268.94 148.568 271.378 147.5 271.423 147.545C271.469 147.591 269.031 148.733 266.035 150.098C263.04 151.463 260.561 152.545 260.561 152.495Z" fill="#E0E0E0"/>
<path d="M255.328 166.138C255.462 166.095 255.599 166.068 255.739 166.056L256.858 165.892C257.798 165.755 259.104 165.558 260.534 165.284C261.963 165.01 263.246 164.732 264.186 164.513L265.287 164.262C265.42 164.22 265.558 164.195 265.698 164.188C265.571 164.246 265.44 164.292 265.305 164.325C265.049 164.403 264.68 164.513 264.218 164.636C263.305 164.883 262.008 165.188 260.565 165.458C259.123 165.727 257.826 165.914 256.871 166.015C256.415 166.07 256.013 166.106 255.744 166.125C255.606 166.141 255.467 166.146 255.328 166.138Z" fill="#E0E0E0"/>
<path d="M249.347 158.39C249.445 158.472 249.534 158.565 249.612 158.668L250.283 159.472C250.844 160.152 251.607 161.102 252.442 162.157C253.278 163.211 254.032 164.17 254.566 164.874L255.191 165.709C255.273 165.808 255.345 165.915 255.406 166.029C255.306 165.948 255.217 165.854 255.141 165.75L254.47 164.951C253.908 164.266 253.146 163.321 252.306 162.266C251.465 161.212 250.721 160.248 250.187 159.549L249.561 158.714C249.477 158.615 249.405 158.506 249.347 158.39Z" fill="#E0E0E0"/>
<path d="M243.209 169.846C243.332 169.954 243.444 170.075 243.542 170.206C243.771 170.471 244.058 170.818 244.405 171.229C245.131 172.097 246.118 173.307 247.204 174.649C248.291 175.992 249.264 177.211 249.944 178.101L250.766 179.156C250.871 179.283 250.964 179.419 251.044 179.562C250.924 179.451 250.813 179.33 250.711 179.202L249.848 178.179C249.127 177.307 248.136 176.101 247.049 174.759C245.962 173.416 244.99 172.197 244.309 171.307C243.981 170.882 243.702 170.526 243.492 170.248C243.385 170.123 243.29 169.989 243.209 169.846Z" fill="#E0E0E0"/>
<path d="M250.972 179.275C251.139 179.224 251.31 179.186 251.483 179.161L252.894 178.905C254.086 178.686 255.73 178.375 257.533 177.992C259.337 177.608 260.962 177.207 262.136 176.91L263.528 176.563C263.697 176.512 263.87 176.476 264.044 176.453C263.884 176.526 263.718 176.584 263.547 176.627C263.223 176.727 262.752 176.869 262.177 177.028C261.008 177.357 259.387 177.773 257.579 178.161C255.771 178.549 254.122 178.846 252.926 179.033C252.328 179.129 251.839 179.197 251.506 179.238C251.329 179.268 251.151 179.28 250.972 179.275Z" fill="#E0E0E0"/>
<path d="M280.195 187.12C280.195 187.184 217.461 187.238 140.097 187.238C62.7338 187.238 0 187.197 0 187.12C0 187.042 62.7201 187.001 140.116 187.001C217.511 187.001 280.195 187.056 280.195 187.12Z" fill="#263238"/>
<path d="M194.515 28.2157L190.17 31.9316L195.969 38.7125L200.314 34.9966L194.515 28.2157Z" fill="#263238"/>
<path d="M198.269 27.6886L189.329 35.3688L183.06 28.063C185.525 24.6019 188.466 21.9901 191.986 20.3828L198.269 27.6886Z" fill="#455A64"/>
<path d="M190.836 34.0819C190.785 34.1276 189.274 32.4655 187.457 30.3788C185.639 28.2921 184.206 26.5661 184.26 26.5205C184.315 26.4748 185.822 28.1369 187.639 30.2236C189.457 32.3103 190.886 34.0408 190.836 34.0819Z" fill="#263238"/>
<path d="M192.526 32.6209C192.164 32.2694 191.829 31.8925 191.521 31.4931C190.918 30.7854 190.101 29.8036 189.202 28.7078L186.918 25.8951L186.234 25.0412C186.069 24.8311 185.982 24.7353 185.982 24.7216C186.074 24.6394 187.594 26.3699 189.393 28.5571C190.307 29.653 191.092 30.6529 191.676 31.3881C191.995 31.7732 192.279 32.1858 192.526 32.6209Z" fill="#263238"/>
<path d="M194.809 30.6704C194.442 30.3201 194.102 29.9431 193.791 29.5426C193.183 28.8257 192.361 27.8257 191.457 26.7162L189.174 23.8578L188.489 22.9857C188.401 22.8817 188.321 22.7702 188.252 22.6523C188.644 22.9765 188.997 23.3458 189.302 23.7528C189.919 24.4605 190.75 25.4559 191.649 26.5655C192.549 27.6751 193.357 28.6933 193.932 29.4376C194.259 29.8232 194.552 30.2356 194.809 30.6704Z" fill="#263238"/>
<path d="M196.868 28.8445C196.818 28.8856 195.316 27.2098 193.512 25.1002C191.708 22.9907 190.293 21.2419 190.343 21.1962C190.393 21.1506 191.891 22.8309 193.695 24.945C195.498 27.0591 196.918 28.8034 196.868 28.8445Z" fill="#263238"/>
<path d="M271.024 32.8323L267.074 28.6992L260.624 34.8634L264.573 38.9964L271.024 32.8323Z" fill="#263238"/>
<path d="M271.213 36.8987L263.076 28.383L270.03 21.7393C273.61 24.0223 276.377 26.8213 278.163 30.2551L271.213 36.8987Z" fill="#455A64"/>
<path d="M264.437 29.8126C264.392 29.7624 265.967 28.1643 267.958 26.2419C269.949 24.3196 271.611 22.7991 271.643 22.8448C271.675 22.8904 270.113 24.4886 268.122 26.4155C266.132 28.3424 264.483 29.8583 264.437 29.8126Z" fill="#263238"/>
<path d="M265.989 31.4337C266.314 31.0503 266.668 30.693 267.049 30.3652C267.72 29.726 268.66 28.8539 269.706 27.895L272.395 25.4612L273.213 24.7307C273.409 24.5571 273.505 24.4704 273.519 24.4658C273.606 24.5526 271.957 26.1644 269.866 28.073C268.82 29.0274 267.861 29.8995 267.158 30.4885C266.794 30.8338 266.403 31.1499 265.989 31.4337Z" fill="#263238"/>
<path d="M268.054 33.5929C268.382 33.2059 268.741 32.8455 269.127 32.5153C269.807 31.8715 270.761 30.9948 271.825 30.0359L274.565 27.5976L275.401 26.867C275.503 26.7762 275.609 26.6909 275.72 26.6113C275.418 27.0211 275.069 27.3935 274.679 27.7209C274.003 28.3738 273.049 29.2551 271.99 30.214C270.93 31.1729 269.953 32.0404 269.25 32.6432C268.876 32.99 268.476 33.3075 268.054 33.5929Z" fill="#263238"/>
<path d="M269.985 35.5615C269.94 35.5112 271.538 33.9268 273.551 32.0136C275.565 30.1004 277.236 28.5936 277.282 28.6438C277.328 28.694 275.729 30.2785 273.716 32.1871C271.702 34.0957 270.031 35.6026 269.985 35.5615Z" fill="#263238"/>
<path d="M234.57 13.1006H227.803V23.662H234.57V13.1006Z" fill="#263238"/>
<path d="M238.186 16.2603H224.26V4.877C229.141 3.67155 233.798 3.59849 238.2 4.877L238.186 16.2603Z" fill="#427CAF"/>
<path d="M238.364 4.92247C238.201 5.02454 238.028 5.11019 237.848 5.17817C237.372 5.38815 236.882 5.5681 236.383 5.71697C235.635 5.94739 234.872 6.12739 234.1 6.25578C233.162 6.40465 232.214 6.48401 231.264 6.49321C230.315 6.49462 229.367 6.42441 228.428 6.28317C227.657 6.16346 226.894 5.99107 226.145 5.7672C225.646 5.62093 225.155 5.44559 224.675 5.2421C224.494 5.17923 224.321 5.09492 224.159 4.99096C224.159 4.94987 224.926 5.26493 226.191 5.60282C226.933 5.799 227.687 5.95146 228.447 6.05943C229.376 6.18516 230.313 6.24923 231.25 6.25121C232.189 6.24054 233.125 6.16732 234.054 6.03204C234.811 5.92256 235.561 5.77011 236.3 5.57543C237.597 5.20557 238.346 4.88138 238.364 4.92247Z" fill="#263238"/>
<path d="M228.863 16.2282C228.799 16.2282 228.744 14.041 228.744 11.347C228.744 8.65299 228.799 6.46582 228.863 6.46582C228.927 6.46582 228.982 8.64842 228.982 11.347C228.982 14.0456 228.931 16.2282 228.863 16.2282Z" fill="#263238"/>
<path d="M231.515 16.2917C231.451 16.2917 231.396 14.0954 231.396 11.3877C231.396 8.68001 231.451 6.48828 231.515 6.48828C231.579 6.48828 231.634 8.68001 231.634 11.3877C231.634 14.0954 231.584 16.2917 231.515 16.2917Z" fill="#263238"/>
<path d="M234.169 16.2514C234.105 16.2514 234.05 14.0551 234.05 11.3474C234.05 8.63966 234.105 6.44336 234.169 6.44336C234.232 6.44336 234.287 8.63966 234.287 11.3474C234.287 14.0551 234.237 16.2514 234.169 16.2514Z" fill="#263238"/>
<path d="M236.36 16.2509C236.291 16.2509 236.241 13.8766 236.241 10.9497C236.241 8.02282 236.291 5.64844 236.36 5.64844C236.428 5.64844 236.479 8.02282 236.479 10.9497C236.479 13.8766 236.442 16.2509 236.36 16.2509Z" fill="#263238"/>
<path d="M226.356 16.1826C226.292 16.1826 226.237 13.8082 226.237 10.8813C226.237 7.95446 226.292 5.58008 226.356 5.58008C226.42 5.58008 226.475 7.95446 226.475 10.8813C226.475 13.8082 226.425 16.1826 226.356 16.1826Z" fill="#263238"/>
<path d="M265.184 104.446C284.412 85.2182 284.412 54.0435 265.184 34.8155C245.956 15.5875 214.782 15.5875 195.554 34.8155C176.326 54.0435 176.326 85.2182 195.554 104.446C214.782 123.674 245.956 123.674 265.184 104.446Z" fill="#427CAF"/>
<path d="M230.369 110.591C253.207 110.591 271.72 92.0777 271.72 69.2404C271.72 46.403 253.207 27.8896 230.369 27.8896C207.532 27.8896 189.019 46.403 189.019 69.2404C189.019 92.0777 207.532 110.591 230.369 110.591Z" fill="#FAFAFA"/>
<path d="M271.72 69.2402C271.72 69.2402 271.72 69.0165 271.688 68.5736C271.656 68.1307 271.688 67.4686 271.601 66.6056C271.438 64.0877 271.044 61.5902 270.423 59.1446C269.975 57.3794 269.409 55.6465 268.729 53.9575C267.929 51.9438 266.967 49.9983 265.852 48.1403C263.125 43.6009 259.561 39.6203 255.35 36.4099C250.239 32.5213 244.289 29.8818 237.976 28.7023C232.625 27.7178 227.134 27.7814 221.807 28.8895C219.937 29.2956 218.094 29.8218 216.292 30.4648C208.62 33.2595 201.947 38.2625 197.114 44.8435C195.853 46.5573 194.729 48.3681 193.753 50.2589C193.246 51.2041 192.813 52.1858 192.383 53.1721C191.954 54.1584 191.571 55.1812 191.246 56.2223C190.546 58.3056 190.02 60.4439 189.676 62.6148C189.329 64.8097 189.147 67.0274 189.132 69.2494C189.148 71.4727 189.328 73.6917 189.671 75.8885C190.021 78.0584 190.546 80.1962 191.242 82.2811C191.571 83.3176 191.982 84.3221 192.379 85.3267C192.776 86.3312 193.256 87.2992 193.749 88.2444C194.724 90.1363 195.85 91.9472 197.114 93.6598C201.946 100.243 208.619 105.248 216.292 108.043C218.094 108.686 219.937 109.212 221.807 109.618C223.631 109.999 225.479 110.257 227.337 110.39C230.894 110.659 234.47 110.462 237.976 109.806C244.289 108.626 250.239 105.987 255.35 102.098C259.563 98.8889 263.127 94.9081 265.852 90.3676C266.966 88.5091 267.928 86.5637 268.729 84.5504C270.351 80.5133 271.32 76.2439 271.601 71.9023C271.678 71.0393 271.665 70.3772 271.688 69.9343C271.71 69.4914 271.72 69.2631 271.72 69.2631C271.72 69.2631 271.72 69.4914 271.72 69.9343C271.72 70.3772 271.72 71.0393 271.656 71.9023C271.406 76.2561 270.454 80.541 268.838 84.5915C268.043 86.6145 267.084 88.5692 265.971 90.4361C263.25 94.9984 259.686 99.0011 255.469 102.23C250.34 106.143 244.366 108.801 238.026 109.993C234.505 110.658 230.911 110.861 227.337 110.596C225.469 110.463 223.613 110.205 221.78 109.824C219.898 109.419 218.045 108.891 216.232 108.244C208.515 105.439 201.802 100.41 196.94 93.7922C195.672 92.0704 194.542 90.2504 193.561 88.3494C193.05 87.3997 192.612 86.4043 192.164 85.4134C191.717 84.4226 191.351 83.3952 191.023 82.3496C190.322 80.2561 189.794 78.109 189.443 75.9296C188.718 71.5087 188.718 66.9992 189.443 62.5783C189.796 60.4082 190.324 58.2703 191.023 56.1857C191.356 55.1401 191.767 54.131 192.169 53.1219C192.571 52.1128 193.05 51.1402 193.561 50.1904C194.545 48.2903 195.676 46.4704 196.945 44.7476C201.804 38.1309 208.516 33.1033 216.232 30.3005C218.044 29.6537 219.895 29.126 221.775 28.7206C223.61 28.3394 225.468 28.0816 227.337 27.9489C230.91 27.6835 234.502 27.8862 238.022 28.5516C244.363 29.7382 250.338 32.397 255.464 36.314C259.681 39.5454 263.245 43.5495 265.966 48.1129C268.012 51.5575 269.549 55.2792 270.532 59.1628C271.142 61.617 271.522 64.1223 271.669 66.6467C271.738 67.5097 271.715 68.1718 271.733 68.6147C271.752 69.0576 271.72 69.2402 271.72 69.2402Z" fill="#263238"/>
<path d="M265.652 67.7431C264.342 67.7979 263.273 67.7431 263.269 67.629C263.264 67.5148 264.319 67.3596 265.629 67.2865C266.94 67.2135 268.008 67.2591 268.017 67.3961C268.026 67.5331 266.953 67.6883 265.652 67.7431Z" fill="#263238"/>
<path d="M264.77 77.2638C263.492 76.9624 262.487 76.6291 262.487 76.5149C262.487 76.4008 263.574 76.5377 264.857 76.8163C266.14 77.0948 267.14 77.4327 267.14 77.5651C267.14 77.6975 266.04 77.5606 264.77 77.2638Z" fill="#263238"/>
<path d="M261.36 86.1904C260.205 85.5603 259.319 84.9621 259.374 84.8617C259.428 84.7612 260.415 85.1767 261.574 85.7749C262.734 86.3731 263.625 86.9895 263.561 87.1082C263.497 87.2269 262.51 86.8251 261.36 86.1904Z" fill="#263238"/>
<path d="M255.675 93.8793C254.734 92.966 254.036 92.1533 254.118 92.0528C254.2 91.9524 255.031 92.6327 255.99 93.5368C256.949 94.4409 257.638 95.2491 257.547 95.3632C257.456 95.4774 256.611 94.797 255.675 93.8793Z" fill="#263238"/>
<path d="M248.141 99.7697C247.483 98.6328 247.027 97.6648 247.127 97.6054C247.228 97.5461 247.858 98.4136 248.533 99.5369C249.209 100.66 249.666 101.628 249.552 101.701C249.438 101.774 248.803 100.898 248.141 99.7697Z" fill="#263238"/>
<path d="M239.305 103.418C238.976 102.144 238.798 101.089 238.913 101.062C239.027 101.035 239.396 102.035 239.748 103.299C240.1 104.564 240.273 105.619 240.141 105.656C240.008 105.692 239.634 104.688 239.305 103.418Z" fill="#263238"/>
<path d="M229.812 104.551C229.812 103.236 229.944 102.172 230.058 102.172C230.173 102.172 230.268 103.24 230.268 104.551C230.268 105.861 230.154 106.93 230.022 106.93C229.889 106.93 229.789 105.87 229.812 104.551Z" fill="#263238"/>
<path d="M220.379 103.121C220.754 101.861 221.146 100.87 221.26 100.902C221.375 100.934 221.174 101.984 220.804 103.249C220.434 104.514 220.055 105.532 219.922 105.468C219.79 105.404 219.982 104.381 220.379 103.121Z" fill="#263238"/>
<path d="M211.644 99.1902C212.343 98.0806 212.987 97.2268 213.087 97.2861C213.187 97.3455 212.713 98.3089 212.032 99.4322C211.352 100.555 210.703 101.405 210.589 101.336C210.475 101.268 210.945 100.304 211.644 99.1902Z" fill="#263238"/>
<path d="M204.297 93.0715C205.269 92.1856 206.123 91.5372 206.196 91.624C206.269 91.7108 205.566 92.5053 204.607 93.4048C203.648 94.3043 202.804 94.9527 202.708 94.8568C202.612 94.7609 203.329 93.9573 204.297 93.0715Z" fill="#263238"/>
<path d="M198.854 85.208C200.028 84.619 201.023 84.2217 201.073 84.3222C201.123 84.4226 200.228 85.0025 199.064 85.6144C197.9 86.2262 196.909 86.6235 196.845 86.5002C196.781 86.3769 197.685 85.8016 198.854 85.208Z" fill="#263238"/>
<path d="M195.722 76.1769C197.014 75.9212 198.078 75.8071 198.101 75.9212C198.124 76.0354 197.101 76.3504 195.818 76.6244C194.535 76.8984 193.466 77.0125 193.439 76.8801C193.412 76.7477 194.444 76.4326 195.722 76.1769Z" fill="#263238"/>
<path d="M195.142 66.6516C196.453 66.7475 197.507 66.921 197.503 67.0352C197.498 67.1494 196.425 67.1813 195.115 67.1037C193.804 67.0261 192.745 66.8571 192.754 66.7201C192.763 66.5832 193.832 66.5329 195.142 66.6516Z" fill="#263238"/>
<path d="M197.128 57.2772C198.366 57.7338 199.334 58.1904 199.297 58.2863C199.261 58.3822 198.22 58.1356 196.978 57.7064C195.736 57.2772 194.768 56.8297 194.809 56.7019C194.85 56.574 195.896 56.8297 197.128 57.2772Z" fill="#263238"/>
<path d="M201.562 48.8078C202.631 49.5703 203.443 50.2644 203.389 50.3603C203.334 50.4562 202.393 49.9265 201.311 49.1822C200.229 48.4379 199.416 47.7439 199.484 47.6297C199.553 47.5156 200.489 48.0453 201.562 48.8078Z" fill="#263238"/>
<path d="M208.096 41.83C208.922 42.8483 209.521 43.7341 209.434 43.8117C209.347 43.8893 208.584 43.1268 207.744 42.1177C206.904 41.1086 206.301 40.2273 206.406 40.1406C206.511 40.0538 207.269 40.8118 208.096 41.83Z" fill="#263238"/>
<path d="M216.269 36.8537C216.789 38.0591 217.132 39.0728 217.022 39.1367C216.913 39.2006 216.392 38.2509 215.853 37.0546C215.315 35.8582 214.972 34.8446 215.095 34.7715C215.219 34.6985 215.735 35.6528 216.269 36.8537Z" fill="#263238"/>
<path d="M225.465 34.2642C225.644 35.5655 225.698 36.634 225.58 36.6522C225.461 36.6705 225.21 35.6294 225.013 34.3327C224.817 33.0359 224.762 31.9628 224.895 31.9446C225.027 31.9263 225.287 32.9628 225.465 34.2642Z" fill="#263238"/>
<path d="M235.027 34.2321C234.854 35.5334 234.621 36.579 234.506 36.5653C234.392 36.5516 234.42 35.4786 234.575 34.1773C234.73 32.8759 234.963 31.8257 235.096 31.844C235.228 31.8622 235.201 32.9262 235.027 34.2321Z" fill="#263238"/>
<path d="M244.246 36.7573C243.73 37.9674 243.223 38.908 243.113 38.8623C243.004 38.8167 243.328 37.7984 243.825 36.5793C244.323 35.3601 244.835 34.4241 244.958 34.4789C245.081 34.5336 244.766 35.5519 244.246 36.7573Z" fill="#263238"/>
<path d="M252.447 41.675C251.625 42.7024 250.885 43.4741 250.794 43.401C250.702 43.328 251.282 42.4284 252.09 41.3919C252.899 40.3554 253.634 39.5655 253.743 39.6705C253.853 39.7755 253.255 40.6522 252.447 41.675Z" fill="#263238"/>
<path d="M259.035 48.606C257.967 49.3731 257.049 49.921 256.981 49.8251C256.912 49.7292 257.711 49.0215 258.766 48.2361C259.821 47.4508 260.739 46.9074 260.821 47.017C260.903 47.1266 260.104 47.8389 259.035 48.606Z" fill="#263238"/>
<path d="M263.524 57.0627C262.291 57.5193 261.241 57.7887 261.213 57.6837C261.186 57.5787 262.127 57.1038 263.364 56.6335C264.602 56.1632 265.62 55.8847 265.67 56.0125C265.72 56.1404 264.757 56.6061 263.524 57.0627Z" fill="#263238"/>
<path d="M265.583 66.3872C264.273 66.4922 263.205 66.4831 263.195 66.3872C263.186 66.2913 264.236 66.0813 265.542 65.9306C266.848 65.7799 267.921 65.8165 267.93 65.9534C267.94 66.0904 266.88 66.2822 265.583 66.3872Z" fill="#263238"/>
<path d="M214.31 24.5068L214.168 24.5708L213.748 24.7397C213.383 24.895 212.835 25.0822 212.137 25.3881C210.168 26.211 208.257 27.1644 206.415 28.2419C205.246 28.9177 204.009 29.7259 202.708 30.6346C201.406 31.5432 200.077 32.6026 198.749 33.7943C192.915 38.9364 188.459 45.4549 185.785 52.7574C185.16 54.4286 184.69 56.0632 184.283 57.5929C183.877 59.1225 183.603 60.5837 183.397 61.917C183.064 64.0236 182.87 66.15 182.818 68.2822C182.781 69.0401 182.818 69.6246 182.818 70.0218C182.818 70.2136 182.818 70.3597 182.818 70.4784C182.822 70.5301 182.822 70.582 182.818 70.6337C182.812 70.5836 182.812 70.5331 182.818 70.483C182.818 70.3689 182.818 70.2182 182.818 70.0264C182.818 69.6292 182.767 69.0447 182.79 68.2867C182.806 66.1465 182.976 64.0102 183.297 61.8942C183.489 60.5517 183.786 59.0951 184.155 57.5472C184.568 55.9019 185.065 54.2788 185.644 52.6843C188.304 45.3329 192.786 38.7769 198.671 33.6299C200.009 32.4382 201.37 31.4108 202.657 30.4747C203.945 29.5387 205.214 28.7625 206.397 28.0958C208.251 27.0294 210.178 26.0956 212.164 25.3013C212.863 25.0091 213.424 24.8447 213.799 24.694L214.228 24.5479C214.254 24.5322 214.282 24.5185 214.31 24.5068Z" fill="white"/>
<path d="M228.054 21.8397C227.585 21.9372 227.108 21.9998 226.63 22.0269C225.744 22.1182 224.529 22.2506 223.187 22.4241C221.844 22.5977 220.634 22.7803 219.758 22.9173C219.288 23.0139 218.812 23.0749 218.333 23.0999C218.787 22.9417 219.255 22.8255 219.73 22.7529C220.602 22.5748 221.812 22.3648 223.155 22.1913C224.497 22.0178 225.726 21.9082 226.616 21.858C227.094 21.8069 227.575 21.8008 228.054 21.8397Z" fill="white"/>
<g opacity="0.4">
<path d="M197.319 94.0984C197.319 94.0984 218.748 127.915 251.989 110.596C286.692 92.514 267.514 51.0674 267.514 51.0674C267.514 51.0674 283.843 84.0986 250.017 105.632C241.592 110.998 232.419 111.002 225.424 110.299C207.547 108.509 197.319 94.0984 197.319 94.0984Z" fill="black"/>
</g>
<path d="M241.894 47.2637C242.099 53.3284 241.916 59.4001 241.346 65.4414C241.136 67.6285 240.889 69.8385 240.044 71.8704C239.2 73.9024 237.761 75.7653 235.734 76.6238C233.707 77.4822 231.113 77.126 229.702 75.4457L241.894 47.2637Z" fill="#E0E0E0"/>
<path d="M229.47 65.9802L244.497 40.6748L235.429 69.245L230.794 70.6285L229.47 65.9802Z" fill="#427CAF"/>
<g opacity="0.4">
<path d="M244.496 40.6748L233.351 66.5327L235.428 69.245L244.496 40.6748Z" fill="black"/>
</g>
<path d="M230.794 75.464C233.464 75.464 235.629 73.2991 235.629 70.6285C235.629 67.9579 233.464 65.793 230.794 65.793C228.123 65.793 225.958 67.9579 225.958 70.6285C225.958 73.2991 228.123 75.464 230.794 75.464Z" fill="#FAFAFA"/>
<path d="M235.629 70.6287C235.586 70.2357 235.52 69.8454 235.433 69.4598C235.153 68.4183 234.532 67.5005 233.67 66.8526C233.037 66.3761 232.295 66.0658 231.51 65.9502C230.726 65.8345 229.926 65.9171 229.182 66.1905C228.754 66.342 228.352 66.5592 227.99 66.8343C227.605 67.1135 227.268 67.4526 226.99 67.8388C226.397 68.6479 226.077 69.6253 226.077 70.6287C226.077 71.6322 226.397 72.6095 226.99 73.4186C227.545 74.1709 228.306 74.7453 229.182 75.0716C229.807 75.3007 230.473 75.3967 231.137 75.3535C231.801 75.3102 232.449 75.1286 233.039 74.8204C233.628 74.5121 234.147 74.084 234.562 73.5635C234.977 73.0429 235.278 72.4415 235.447 71.7977C235.535 71.4122 235.6 71.0219 235.643 70.6287C235.671 71.029 235.636 71.4313 235.538 71.8205C235.288 72.9092 234.669 73.8776 233.785 74.5602C233.178 75.0307 232.47 75.3514 231.716 75.4962C230.849 75.6619 229.954 75.5925 229.123 75.2953C228.671 75.1394 228.247 74.9129 227.867 74.6241C227.463 74.3322 227.109 73.9777 226.817 73.5739C226.188 72.7275 225.849 71.7013 225.849 70.647C225.849 69.5927 226.188 68.5665 226.817 67.7201C227.11 67.3174 227.464 66.963 227.867 66.6699C228.249 66.3852 228.673 66.1604 229.123 66.0033C229.953 65.7038 230.849 65.6344 231.716 65.8023C232.637 65.9794 233.487 66.4181 234.165 67.0659C234.843 67.7138 235.32 68.5434 235.538 69.4552C235.629 69.8393 235.66 70.2352 235.629 70.6287Z" fill="#263238"/>
<path d="M234.337 71.3534C234.731 69.4057 233.471 67.5075 231.523 67.1137C229.575 66.7199 227.677 67.9796 227.283 69.9274C226.89 71.8751 228.149 73.7733 230.097 74.1671C232.045 74.5609 233.943 73.3012 234.337 71.3534Z" fill="#455A64"/>
<path d="M192.672 186.69H216.461L205.37 91.1035L192.672 186.69Z" fill="#E0E0E0"/>
<path d="M75.6152 91.1035L60.127 187.818L192.293 189.54L205.37 91.1035H75.6152Z" fill="#FAFAFA"/>
<path d="M199.485 135.408H68.5195L71.3688 117.601H201.85L199.485 135.408Z" fill="#EBEBEB"/>
<path d="M199.494 135.422H68.5059L71.3597 117.615H201.864L199.494 135.422ZM68.5333 135.4H199.476L201.836 117.592H71.3825L68.5333 135.4Z" fill="#263238"/>
<path d="M75.6146 91.1035L71.3682 117.601H201.849L205.37 91.1035H75.6146Z" fill="#427CAF"/>
<path d="M75.6332 91.1037L205.388 90.9941H205.512V91.1174C201.69 119.934 197.352 152.614 192.768 187.129V187.234H191.179L60.2362 187.198H60.1084V187.083L75.6332 91.1037C75.5053 91.8982 69.6059 128.98 60.3504 187.129L60.2545 187.015H191.147H192.631L192.517 187.115C197.105 152.6 201.452 119.925 205.302 91.1083L205.407 91.227L75.6332 91.1037Z" fill="#263238"/>
<path d="M201.849 117.6C201.849 117.664 172.626 117.719 136.613 117.719C100.6 117.719 71.3682 117.664 71.3682 117.6C71.3682 117.536 100.591 117.481 136.613 117.481C172.635 117.481 201.849 117.532 201.849 117.6Z" fill="#263238"/>
<path d="M199.484 135.409C199.484 135.477 170.106 135.527 133.878 135.527C97.6505 135.527 68.2676 135.477 68.2676 135.409C68.2676 135.34 97.6368 135.29 133.878 135.29C170.119 135.29 199.484 135.345 199.484 135.409Z" fill="#263238"/>
<path d="M196.818 151.796C196.818 151.865 167.444 151.915 131.217 151.915C94.9891 151.915 65.5879 151.865 65.5879 151.796C65.5879 151.728 94.9571 151.678 131.198 151.678C167.44 151.678 196.818 151.733 196.818 151.796Z" fill="#263238"/>
<path d="M194.156 168.184C194.156 168.248 164.777 168.303 128.55 168.303C92.3224 168.303 62.9395 168.248 62.9395 168.184C62.9395 168.12 92.3087 168.065 128.55 168.065C164.791 168.065 194.156 168.12 194.156 168.184Z" fill="#263238"/>
<path d="M78.679 187.261C78.6151 187.261 81.0123 171.645 84.0396 152.413C87.0669 133.18 89.5646 117.587 89.6285 117.601C89.6924 117.614 87.2952 133.208 84.2725 152.449C81.2497 171.691 78.7475 187.27 78.679 187.261Z" fill="#263238"/>
<path d="M98.8745 187.261C98.806 187.261 101.208 171.645 104.231 152.413C107.253 133.18 109.756 117.587 109.824 117.601C109.893 117.614 107.491 133.208 104.463 152.449C101.436 171.691 98.9201 187.27 98.8745 187.261Z" fill="#263238"/>
<path d="M117.642 186.563C117.578 186.563 119.952 171.106 122.943 152.066C125.934 133.025 128.422 117.587 128.482 117.601C128.541 117.614 126.171 133.052 123.181 152.102C120.19 171.152 117.701 186.572 117.642 186.563Z" fill="#263238"/>
<path d="M136.202 187.115C136.138 187.115 138.531 171.531 141.549 152.34C144.568 133.148 147.065 117.587 147.129 117.601C147.193 117.614 144.8 133.176 141.782 152.376C138.764 171.577 136.266 187.124 136.202 187.115Z" fill="#263238"/>
<path d="M154.855 187.115C154.791 187.115 157.183 171.531 160.202 152.34C163.22 133.148 165.718 117.587 165.781 117.601C165.845 117.614 163.457 133.176 160.439 152.376C157.421 171.577 154.923 187.124 154.855 187.115Z" fill="#263238"/>
<path d="M173.494 187.197C173.43 187.197 175.828 171.595 178.85 152.371C181.873 133.148 184.371 117.568 184.439 117.582C184.508 117.596 182.106 133.18 179.083 152.408C176.061 171.636 173.558 187.224 173.494 187.197Z" fill="#263238"/>
<g opacity="0.2">
<path d="M161.759 118.843C164.006 117.847 165.412 115.509 165.992 113.121C166.572 110.733 166.481 108.24 166.568 105.779C166.654 103.318 166.947 100.784 168.202 98.6696C168.946 97.4231 169.992 96.3866 170.819 95.1857C171.645 93.9848 172.257 92.5236 171.951 91.0762L157.896 91.1492L161.759 118.843Z" fill="black"/>
</g>
<path d="M103.486 136.728C103.449 136.789 103.403 136.844 103.349 136.892L102.929 137.349C102.559 137.728 102.016 138.262 101.331 138.928C99.9613 140.243 98.0572 142.033 95.8883 143.951C93.7194 145.869 91.7104 147.54 90.2355 148.727C89.4958 149.321 88.8931 149.796 88.473 150.097L87.9844 150.462C87.93 150.51 87.8684 150.549 87.8018 150.577C87.8018 150.577 87.852 150.517 87.9524 150.426L88.4091 150.024L90.1214 148.577C91.5734 147.357 93.5642 145.663 95.7285 143.755C97.8929 141.846 99.838 140.074 101.208 138.791L102.856 137.271L103.313 136.865C103.365 136.812 103.423 136.766 103.486 136.728Z" fill="#263238"/>
<path d="M102.432 150.76C102.238 150.591 102.056 150.408 101.888 150.212L100.459 148.687C99.2264 147.377 97.5734 145.614 95.7516 143.664L90.9937 138.687L89.5508 137.176C89.3687 136.996 89.1993 136.804 89.0439 136.601C89.2508 136.753 89.4433 136.925 89.6193 137.112C89.9754 137.45 90.4868 137.948 91.1124 138.569C92.3635 139.811 94.0712 141.55 95.9205 143.505C97.7698 145.459 99.4136 147.258 100.583 148.578C101.167 149.235 101.637 149.774 101.952 150.148C102.131 150.337 102.291 150.542 102.432 150.76Z" fill="#263238"/>
<path d="M107.308 140.924C107.308 140.924 107.354 140.805 107.45 140.572C107.601 140.234 107.785 139.912 107.998 139.609C108.838 138.436 110.022 137.553 111.386 137.084C112.363 136.73 113.405 136.593 114.441 136.682C115.674 136.802 116.862 137.207 117.911 137.865C119.123 138.611 120.146 139.627 120.902 140.833C121.776 142.179 122.212 143.763 122.148 145.367C122.096 146.232 121.827 147.07 121.368 147.805C120.886 148.567 120.244 149.215 119.486 149.705C117.873 150.739 115.975 151.236 114.062 151.125C113.06 151.071 112.073 150.857 111.139 150.49C110.168 150.11 109.294 149.518 108.582 148.755C108.229 148.354 107.931 147.907 107.697 147.426C107.473 146.935 107.32 146.416 107.24 145.883C107.088 144.79 107.184 143.678 107.519 142.627C108.217 140.436 109.73 138.597 111.747 137.49C112.792 136.916 113.955 136.589 115.146 136.535C116.337 136.48 117.525 136.699 118.619 137.175C119.752 137.652 120.743 138.412 121.5 139.381C122.258 140.376 122.731 141.558 122.87 142.801C123.028 144.061 122.824 145.341 122.281 146.49C122.002 147.067 121.635 147.597 121.194 148.061C120.745 148.518 120.238 148.916 119.687 149.243C118.575 149.856 117.349 150.233 116.085 150.35C114.821 150.468 113.546 150.325 112.34 149.928C111.153 149.564 110.061 148.94 109.144 148.102C108.235 147.263 107.613 146.159 107.368 144.947C107.111 143.755 107.28 142.51 107.847 141.431C108.135 140.899 108.53 140.432 109.007 140.061C109.477 139.706 110.001 139.43 110.56 139.244C111.656 138.892 112.806 138.737 113.957 138.787C115.077 138.795 116.191 138.949 117.272 139.244C118.34 139.525 119.327 140.053 120.153 140.787C120.944 141.525 121.484 142.493 121.696 143.554C121.906 144.579 121.845 145.642 121.518 146.636C121.195 147.595 120.649 148.464 119.925 149.17C118.549 150.515 116.728 151.308 114.806 151.399C113.907 151.446 113.007 151.316 112.158 151.015C111.343 150.723 110.61 150.239 110.021 149.604C109.463 148.998 109.041 148.281 108.783 147.499C108.529 146.766 108.416 145.991 108.45 145.216C108.515 143.781 109.088 142.415 110.066 141.362C110.903 140.447 111.961 139.763 113.139 139.376C114.128 139.054 115.176 138.954 116.208 139.084C117.634 139.261 118.989 139.807 120.139 140.668C120.438 140.888 120.72 141.129 120.984 141.39C121.162 141.568 121.249 141.664 121.249 141.664C121.249 141.664 121.148 141.577 120.97 141.408C120.699 141.156 120.412 140.921 120.112 140.705C118.959 139.869 117.612 139.343 116.199 139.175C115.084 139.046 113.955 139.186 112.905 139.583C111.856 139.98 110.917 140.623 110.167 141.458C109.214 142.488 108.659 143.823 108.601 145.225C108.57 145.985 108.683 146.744 108.934 147.463C109.189 148.221 109.601 148.916 110.144 149.504C110.716 150.119 111.427 150.588 112.217 150.873C113.045 151.161 113.921 151.285 114.797 151.239C116.672 151.146 118.449 150.368 119.788 149.052C120.487 148.367 121.015 147.527 121.326 146.6C121.639 145.638 121.696 144.612 121.491 143.622C121.285 142.604 120.766 141.675 120.007 140.965C119.203 140.259 118.247 139.749 117.212 139.476C116.15 139.185 115.054 139.032 113.952 139.02C112.829 138.977 111.707 139.132 110.637 139.476C109.546 139.81 108.622 140.547 108.053 141.536C107.512 142.568 107.351 143.757 107.596 144.896C107.833 146.061 108.432 147.121 109.308 147.924C110.197 148.745 111.258 149.356 112.413 149.714C113.587 150.1 114.828 150.24 116.058 150.125C117.288 150.011 118.482 149.644 119.564 149.047C120.098 148.733 120.588 148.349 121.021 147.906C121.444 147.46 121.797 146.952 122.066 146.399C122.592 145.29 122.79 144.054 122.637 142.837C122.506 141.637 122.054 140.495 121.326 139.531C120.595 138.595 119.636 137.861 118.541 137.399C117.48 136.935 116.327 136.721 115.171 136.774C114.014 136.826 112.885 137.143 111.87 137.7C109.911 138.779 108.44 140.569 107.761 142.7C107.435 143.72 107.34 144.799 107.482 145.86C107.564 146.375 107.718 146.876 107.939 147.348C108.165 147.81 108.45 148.24 108.788 148.627C109.477 149.365 110.322 149.94 111.263 150.307C112.176 150.668 113.141 150.881 114.121 150.937C115.993 151.052 117.853 150.572 119.436 149.568C120.168 149.12 120.784 148.506 121.235 147.777C121.687 147.047 121.96 146.221 122.034 145.367C122.098 143.798 121.675 142.248 120.824 140.928C120.085 139.738 119.082 138.733 117.893 137.992C116.862 137.34 115.695 136.935 114.482 136.81C113.462 136.713 112.433 136.841 111.468 137.184C110.116 137.641 108.937 138.502 108.089 139.65C107.871 139.948 107.681 140.266 107.523 140.6C107.368 140.81 107.308 140.924 107.308 140.924Z" fill="#427CAF"/>
<path d="M119.678 153.531C119.719 153.581 116.098 156.677 111.586 160.449C107.075 164.22 103.367 167.229 103.34 167.179C103.313 167.129 106.92 164.033 111.431 160.266C115.942 156.499 119.636 153.481 119.678 153.531Z" fill="#263238"/>
<path d="M120.468 166.773C120.253 166.647 120.05 166.502 119.861 166.339L118.253 165.088C116.906 164.02 115.057 162.531 113.021 160.878C110.984 159.225 109.153 157.719 107.833 156.618L106.276 155.303C106.079 155.152 105.896 154.984 105.729 154.801C105.942 154.929 106.146 155.074 106.336 155.235L107.939 156.486C109.286 157.554 111.135 159.043 113.171 160.696C115.208 162.349 117.039 163.855 118.363 164.956L119.915 166.266C120.112 166.422 120.296 166.591 120.468 166.773Z" fill="#263238"/>
<path d="M157.796 153.71C157.832 153.76 154.371 156.413 150.056 159.646C145.741 162.879 142.216 165.431 142.175 165.376C142.134 165.321 145.6 162.673 149.915 159.44C154.23 156.208 157.755 153.655 157.796 153.71Z" fill="#263238"/>
<path d="M159.138 164.942C159.106 164.997 155.426 162.719 150.919 159.847C146.412 156.975 142.8 154.609 142.832 154.55C142.864 154.491 146.544 156.778 151.051 159.646C155.558 162.513 159.193 164.888 159.138 164.942Z" fill="#263238"/>
<path d="M120.271 187.12C120.221 187.074 123.819 183.302 128.303 178.704C132.787 174.106 136.462 170.403 136.522 170.449C136.581 170.494 132.974 174.266 128.49 178.869C124.006 183.471 120.317 187.165 120.271 187.12Z" fill="#427CAF"/>
<path d="M135.481 187.115C135.481 187.115 135.422 187.065 135.331 186.955L134.947 186.499C134.591 186.042 134.116 185.453 133.536 184.732C132.344 183.243 130.655 181.22 128.696 179.07C126.737 176.919 124.879 175.051 123.509 173.727L121.883 172.129L121.427 171.7C121.374 171.652 121.327 171.598 121.285 171.54C121.285 171.54 121.354 171.577 121.459 171.663L121.915 172.061C122.322 172.408 122.897 172.924 123.6 173.572C124.997 174.869 126.879 176.723 128.847 178.878C130.815 181.033 132.5 183.079 133.641 184.595C134.226 185.353 134.687 185.964 135.011 186.421L135.362 186.923C135.41 186.982 135.45 187.046 135.481 187.115Z" fill="#427CAF"/>
<path d="M98.1033 167.91C98.1033 167.91 98.2494 179.128 95.4184 185.845L78.1631 182.905C78.1631 182.905 83.3593 172.275 81.9438 166.366L98.1033 167.91Z" fill="#EBEBEB"/>
<path d="M98.0988 167.49C98.0988 167.49 95.9344 181.262 94.6103 185.371L77.46 181.965C77.46 181.965 80.9896 168.65 80.9439 164.942L98.0988 167.49Z" fill="#427CAF"/>
<path d="M82.6836 171.115C82.6836 171.179 85.2315 171.772 88.4049 172.439C91.5784 173.106 94.1582 173.594 94.1719 173.535C94.1856 173.476 91.624 172.877 88.4506 172.211C85.2771 171.544 82.6973 171.051 82.6836 171.115Z" fill="white"/>
<path d="M82.2451 174.033C82.2451 174.097 84.793 174.686 87.9665 175.357C91.1399 176.029 93.7198 176.513 93.7335 176.453C93.7472 176.394 91.1856 175.796 88.0121 175.129C84.8387 174.462 82.2588 173.956 82.2451 174.033Z" fill="white"/>
<path d="M84.7656 177.334C85.0581 177.461 85.3647 177.553 85.6788 177.608C86.2679 177.75 87.0852 177.937 87.9847 178.129C88.8843 178.32 89.7107 178.476 90.3089 178.585C90.6284 178.665 90.9566 178.705 91.286 178.704C90.9824 178.576 90.6653 178.483 90.3408 178.425C89.7564 178.279 88.9391 178.092 88.035 177.905C87.1309 177.718 86.309 177.553 85.7154 177.448C85.4046 177.372 85.0857 177.334 84.7656 177.334Z" fill="white"/>
<path d="M179.74 136.408C179.74 136.408 181.508 147.339 179.718 154.312L162.439 153.942C162.439 153.942 165.974 142.81 163.732 137.244L179.74 136.408Z" fill="#EBEBEB"/>
<path d="M179.662 135.997C179.662 135.997 179.548 149.746 178.85 153.942L161.604 153.125C161.604 153.125 163.115 139.609 162.517 135.997H179.662Z" fill="#455A64"/>
<path d="M164.965 142.116C164.965 142.18 167.558 142.235 170.759 142.239C173.96 142.244 176.558 142.198 176.558 142.134C176.558 142.07 173.965 142.016 170.759 142.011C167.554 142.006 164.965 142.052 164.965 142.116Z" fill="white"/>
<path d="M165.129 145.024C165.129 145.088 167.722 145.143 170.923 145.148C174.124 145.152 176.722 145.106 176.722 145.043C176.722 144.979 174.129 144.924 170.923 144.919C167.718 144.915 165.129 144.96 165.129 145.024Z" fill="white"/>
<path d="M168.221 147.705C168.539 147.773 168.864 147.802 169.189 147.792C169.787 147.792 170.613 147.824 171.527 147.828C172.44 147.833 173.262 147.828 173.86 147.796C174.184 147.809 174.509 147.783 174.828 147.719C174.51 147.651 174.185 147.623 173.86 147.636C173.262 147.614 172.44 147.6 171.527 147.595C170.613 147.591 169.787 147.595 169.189 147.627C168.864 147.614 168.539 147.64 168.221 147.705Z" fill="white"/>
<path d="M183.394 104.888C180.17 104.888 176.924 102.866 175.216 99.6831C173.556 96.5139 173.041 92.8686 173.759 89.3637C174.704 84.7976 177.727 81.0534 181.462 79.8571C184.636 78.8388 190.307 79.4005 192.983 83.8798C194.257 86.0702 194.89 88.575 194.809 91.108C194.797 91.2879 194.75 91.4636 194.67 91.6252C194.59 91.7868 194.479 91.9311 194.343 92.0499C194.208 92.1686 194.05 92.2594 193.879 92.3172C193.708 92.3749 193.528 92.3985 193.348 92.3865C192.985 92.3623 192.646 92.1947 192.406 91.9207C192.166 91.6467 192.045 91.2886 192.069 90.9253C192.094 88.9478 191.586 87 190.599 85.2862C188.535 81.8388 184.01 81.9073 182.266 82.4643C179.07 83.4871 177.024 86.9437 176.408 89.9162C175.816 92.794 176.237 95.788 177.599 98.3909C178.946 100.902 181.672 102.464 184.088 102.094C184.444 102.044 184.806 102.137 185.095 102.352C185.384 102.567 185.576 102.887 185.631 103.243C185.685 103.599 185.598 103.962 185.387 104.254C185.176 104.545 184.858 104.742 184.503 104.802C184.136 104.859 183.765 104.888 183.394 104.888Z" fill="#263238"/>
<path d="M94.9566 104.889C91.7284 104.889 88.4864 102.866 86.7787 99.6836C85.1171 96.5149 84.6009 92.8696 85.3175 89.3642C86.1166 85.5104 88.8197 81.0721 93.0799 79.8484C95.134 79.292 97.3117 79.4024 99.299 80.1635L98.3127 82.7205C96.8825 82.177 95.3184 82.0924 93.8379 82.4785C90.6964 83.3917 88.6508 86.8711 88.0207 89.9167C87.4288 92.7945 87.8498 95.7884 89.2124 98.3914C90.5594 100.907 93.29 102.464 95.7009 102.095L96.1164 104.802C95.7327 104.862 95.3449 104.891 94.9566 104.889Z" fill="#263238"/>
<path d="M182.265 91.1768L181.005 98.0762H199.548L201.196 91.2452L182.265 91.1768Z" fill="#427CAF"/>
<path d="M99.6553 103.798C99.6562 104.381 99.4838 104.952 99.1601 105.438C98.8363 105.924 98.3757 106.303 97.8365 106.527C97.2973 106.75 96.7038 106.809 96.1312 106.696C95.5586 106.582 95.0326 106.301 94.6198 105.888C94.207 105.475 93.926 104.949 93.8123 104.377C93.6986 103.804 93.7574 103.211 93.9813 102.671C94.2051 102.132 94.5839 101.672 95.0696 101.348C95.5554 101.024 96.1263 100.852 96.7101 100.853C97.4909 100.854 98.2393 101.164 98.7913 101.716C99.3434 102.269 99.6541 103.017 99.6553 103.798Z" fill="#263238"/>
<path d="M188.015 103.798C188.016 104.381 187.843 104.952 187.519 105.438C187.196 105.924 186.735 106.303 186.196 106.527C185.657 106.75 185.063 106.809 184.491 106.696C183.918 106.582 183.392 106.301 182.979 105.888C182.566 105.475 182.285 104.949 182.172 104.377C182.058 103.804 182.117 103.211 182.341 102.671C182.564 102.132 182.943 101.672 183.429 101.348C183.915 101.024 184.486 100.852 185.07 100.853C185.85 100.854 186.599 101.164 187.151 101.716C187.703 102.269 188.013 103.017 188.015 103.798Z" fill="#263238"/>
<path d="M139.353 46.707L134.504 65.0993L117.765 66.8984V69.8663L141.285 70.6928L145.705 50.0586L139.353 46.707Z" fill="#FFBE9D"/>
<path d="M146.407 71.1813C146.407 71.1813 120.253 69.9348 112.805 75.7474C105.358 81.5601 108.965 91.1033 108.965 91.1033L151.056 90.9937L154.772 69.6562L146.407 71.1813Z" fill="#263238"/>
<path d="M150.859 85.2586C150.732 85.2618 150.606 85.2526 150.48 85.2312C150.234 85.2038 149.873 85.1673 149.407 85.1079C148.494 84.9938 147.124 84.802 145.481 84.5234C141.165 83.7894 136.896 82.803 132.695 81.5692C130.239 80.8432 127.915 80.1126 125.769 79.5783C123.874 79.0881 121.937 78.7822 119.983 78.6651C118.665 78.5913 117.343 78.6679 116.043 78.8934C115.586 78.9482 115.235 79.0669 114.988 79.108C114.866 79.1381 114.743 79.161 114.618 79.1765C114.734 79.1265 114.855 79.0883 114.979 79.0624C115.322 78.9554 115.671 78.8685 116.025 78.8021C117.328 78.5387 118.659 78.436 119.988 78.4962C121.969 78.5906 123.937 78.8828 125.86 79.3683C128.02 79.8888 130.348 80.6194 132.796 81.3454C136.973 82.5686 141.212 83.573 145.494 84.3545C147.143 84.6559 148.48 84.8705 149.407 85.0166L150.476 85.1855C150.606 85.1991 150.734 85.2236 150.859 85.2586Z" fill="#455A64"/>
<path d="M126.55 79.4368C125.823 78.8376 125.049 78.2985 124.235 77.825C123.381 77.4258 122.497 77.0959 121.591 76.8387C121.872 76.8142 122.155 76.8421 122.426 76.9209C123.094 77.0646 123.739 77.2981 124.344 77.6149C124.948 77.9335 125.507 78.3312 126.006 78.7976C126.225 78.9752 126.41 79.192 126.55 79.4368Z" fill="#455A64"/>
<path d="M149.179 128.033L149.531 139.024L147.321 147.8C147.285 147.95 147.28 148.106 147.308 148.258C147.335 148.411 147.393 148.555 147.479 148.684C147.564 148.813 147.676 148.922 147.806 149.006C147.936 149.089 148.081 149.145 148.234 149.17C148.411 149.202 148.592 149.191 148.764 149.139C148.935 149.087 149.092 148.994 149.22 148.868C150.882 147.243 156.983 141.234 156.905 140.435C156.823 139.522 157.302 128.809 157.302 128.809L149.179 128.033Z" fill="#427CAF"/>
<g opacity="0.6">
<path d="M148.192 149.188L156.868 139.709V140.166C156.873 140.569 156.734 140.961 156.475 141.271C155.786 142.097 153.827 144.339 149.22 148.878C149.088 149.008 148.926 149.104 148.749 149.156C148.571 149.209 148.383 149.217 148.202 149.179L148.192 149.188Z" fill="white"/>
</g>
<g opacity="0.6">
<path d="M154.567 136.18C154.427 136.281 154.332 136.432 154.299 136.601C154.266 136.771 154.298 136.946 154.389 137.093C154.485 137.23 154.629 137.325 154.793 137.358C154.957 137.392 155.127 137.363 155.27 137.275C155.413 137.169 155.511 137.013 155.545 136.838C155.579 136.663 155.546 136.482 155.453 136.33C155.339 136.196 155.178 136.112 155.003 136.095C154.828 136.078 154.654 136.13 154.516 136.239" fill="white"/>
</g>
<path d="M150.663 144.358C150.599 144.389 150.343 143.819 149.69 143.513C149.286 143.354 148.855 143.277 148.421 143.284C148.421 143.257 148.549 143.17 148.804 143.129C149.143 143.088 149.487 143.145 149.794 143.293C150.102 143.441 150.36 143.674 150.54 143.965C150.667 144.189 150.686 144.348 150.663 144.358Z" fill="#263238"/>
<path d="M149.892 145.841C149.576 145.669 149.249 145.516 148.915 145.385C148.558 145.322 148.198 145.279 147.837 145.257C148.005 145.149 148.196 145.083 148.395 145.065C148.594 145.047 148.794 145.076 148.978 145.152C149.627 145.325 149.946 145.809 149.892 145.841Z" fill="#263238"/>
<path d="M152.102 142.449C151.635 142.141 151.147 141.868 150.641 141.632C150.106 141.468 149.559 141.346 149.006 141.266C149.581 141.146 150.179 141.193 150.727 141.403C151.276 141.613 151.753 141.976 152.102 142.449Z" fill="#263238"/>
<path d="M152.275 139.107C152.248 139.175 151.636 138.924 150.846 138.906C150.056 138.888 149.431 139.079 149.403 139.011C149.846 138.767 150.347 138.647 150.853 138.664C151.358 138.681 151.85 138.834 152.275 139.107Z" fill="#263238"/>
<path d="M152.252 135.878C151.772 135.727 151.272 135.642 150.768 135.627C150.269 135.685 149.78 135.812 149.316 136.006C149.316 135.983 149.417 135.841 149.668 135.695C150.004 135.506 150.38 135.398 150.766 135.381C151.152 135.365 151.536 135.439 151.887 135.599C152.138 135.723 152.271 135.851 152.252 135.878Z" fill="#263238"/>
<path d="M150.782 135.011C150.754 134.874 150.754 134.732 150.782 134.595C150.816 134.213 150.926 133.842 151.106 133.504C151.213 133.243 151.405 133.026 151.65 132.887C151.735 132.85 151.829 132.838 151.92 132.855C152.012 132.873 152.096 132.917 152.161 132.983C152.279 133.121 152.342 133.296 152.339 133.477C152.318 133.845 152.169 134.194 151.92 134.465C151.67 134.736 151.334 134.913 150.969 134.965C150.605 135.006 150.237 134.937 149.912 134.768C149.586 134.599 149.319 134.337 149.143 134.015C149.098 133.934 149.072 133.844 149.066 133.752C149.06 133.66 149.073 133.567 149.106 133.481C149.149 133.399 149.216 133.332 149.297 133.289C149.379 133.246 149.471 133.229 149.563 133.239C149.834 133.297 150.086 133.424 150.294 133.609C150.593 133.846 150.85 134.134 151.051 134.458C151.132 134.573 151.191 134.701 151.225 134.837C150.935 134.425 150.586 134.057 150.188 133.746C150.003 133.594 149.784 133.489 149.549 133.44C149.499 133.431 149.446 133.439 149.4 133.462C149.354 133.485 149.317 133.522 149.294 133.568C149.277 133.627 149.273 133.688 149.281 133.748C149.289 133.809 149.309 133.867 149.339 133.919C149.499 134.191 149.734 134.412 150.016 134.554C150.298 134.697 150.614 134.755 150.928 134.723C151.24 134.683 151.528 134.538 151.745 134.311C151.962 134.084 152.094 133.789 152.12 133.477C152.126 133.351 152.087 133.228 152.01 133.13C151.976 133.09 151.93 133.064 151.879 133.053C151.828 133.042 151.775 133.048 151.727 133.07C151.527 133.193 151.368 133.372 151.271 133.586C151.028 134.03 150.862 134.511 150.782 135.011Z" fill="#263238"/>
<path d="M154.749 69.6554C154.749 69.6554 143.439 91.0385 143.284 94.769C143.129 98.4995 143.284 132.887 143.284 132.887H160.79C161.247 132.887 163.872 117.394 163.338 113.828C162.804 110.262 160.918 91.0933 160.918 91.0933H170.991C170.991 91.0933 173.754 88.139 173.653 84.3903C173.594 82.3218 172.242 78.0936 170.913 75.8516C170.05 74.4133 164.521 66.8838 164.521 66.8838L154.749 69.6554Z" fill="#263238"/>
<path d="M153.991 71.103C153.979 71.1458 153.962 71.1871 153.941 71.2263C153.9 71.3176 153.845 71.4318 153.777 71.5733L153.119 72.9066C152.823 73.4865 152.471 74.1897 152.06 75.007L151.402 76.3175L150.713 77.8106L147.32 85.1575C146.677 86.5273 146.001 87.9931 145.298 89.4953L144.234 91.7784C143.89 92.5679 143.63 93.3912 143.457 94.2349C143.284 95.081 143.194 95.942 143.188 96.8057C143.161 97.6595 143.142 98.5043 143.129 99.3307C143.129 100.993 143.097 102.591 143.101 104.116C143.101 107.166 143.138 109.915 143.17 112.221C143.202 114.527 143.229 116.376 143.252 117.7C143.252 118.33 143.252 118.828 143.252 119.184C143.252 119.344 143.252 119.472 143.252 119.572C143.252 119.673 143.252 119.705 143.252 119.705C143.244 119.661 143.244 119.616 143.252 119.572C143.252 119.472 143.252 119.344 143.252 119.189C143.252 118.828 143.215 118.335 143.188 117.7C143.142 116.413 143.083 114.545 143.033 112.221C142.983 109.897 142.928 107.171 142.914 104.116C142.914 102.591 142.914 100.988 142.914 99.3307C142.914 98.4997 142.941 97.655 142.973 96.7965C142.978 95.9192 143.068 95.0445 143.243 94.1847C143.42 93.3252 143.686 92.4866 144.037 91.6825L145.106 89.3994L147.142 85.0708L150.603 77.7421L151.307 76.2536C151.549 75.797 151.763 75.3404 151.982 74.9522L153.074 72.8701C153.37 72.3085 153.608 71.8701 153.772 71.5551C153.85 71.4181 153.914 71.3085 153.959 71.2172C154.005 71.1258 153.987 71.0985 153.991 71.103Z" fill="#455A64"/>
<path d="M150.33 78.3864C149.967 77.5171 149.662 76.6248 149.417 75.7152C149.096 74.8296 148.835 73.9235 148.636 73.0029C149.061 73.8469 149.398 74.733 149.64 75.6467C149.964 76.5338 150.195 77.4519 150.33 78.3864Z" fill="#455A64"/>
<path d="M163.375 113.157C163.346 113.079 163.328 112.998 163.321 112.915C163.299 112.73 163.267 112.497 163.225 112.217C163.142 111.573 163.037 110.696 162.905 109.632C162.654 107.422 162.316 104.422 161.942 101.107C161.567 97.7923 161.261 94.7559 161.074 92.5687C160.987 91.5002 160.914 90.6235 160.859 89.9797C160.859 89.692 160.823 89.4592 160.809 89.272C160.803 89.1899 160.803 89.1075 160.809 89.0254C160.838 89.1031 160.855 89.1847 160.859 89.2674C160.882 89.4546 160.914 89.6875 160.951 89.9706C161.024 90.6144 161.124 91.4865 161.243 92.555C161.485 94.765 161.814 97.7695 162.156 101.084C162.499 104.399 162.823 107.399 163.069 109.614C163.17 110.682 163.257 111.559 163.316 112.203C163.339 112.486 163.357 112.724 163.371 112.911C163.379 112.993 163.381 113.075 163.375 113.157Z" fill="#455A64"/>
<path d="M158.928 12.3877C158.658 10.5612 160.225 8.80327 162.033 8.58867C163.841 8.37406 165.663 9.50189 166.494 11.1503C166.881 11.9792 167.092 12.879 167.116 13.7935C167.139 14.7079 166.974 15.6174 166.631 16.4652C166.174 17.6204 165.329 18.7894 164.101 18.8807C162.873 18.972 161.932 18.036 161.12 17.173" fill="#263238"/>
<path d="M146.074 21.4465C142.421 13.4421 151.096 9.41932 155.813 10.7526C160.251 12.0083 162.146 14.2183 162.877 17.1863C163.677 20.1639 163.517 23.3182 162.42 26.1998C161.845 27.597 160.813 29.0125 159.315 29.186" fill="#263238"/>
<path d="M158.645 15.1954C159.02 15.2344 159.368 15.4134 159.617 15.6969C159.867 15.9804 160 16.3475 159.992 16.7251L159.138 37.0991C159.106 39.5054 155.594 40.8661 153.015 40.8113C150.416 40.7565 150.33 39.478 150.275 37.1904C150.215 33.3686 150.215 31.9302 150.215 31.9531C150.215 31.9759 146.928 31.4051 146.248 27.1176C145.905 24.9852 146.015 21.4875 146.193 18.6292C146.357 16.0584 148.06 12.8987 150.626 13.1498L158.645 15.1954Z" fill="#FFBE9D"/>
<path d="M147.873 21.0677C147.871 21.2115 147.925 21.3505 148.024 21.4547C148.123 21.5589 148.259 21.62 148.403 21.6248C148.473 21.6304 148.543 21.6218 148.61 21.5997C148.677 21.5775 148.738 21.5422 148.791 21.4957C148.844 21.4493 148.887 21.3928 148.918 21.3294C148.948 21.2661 148.966 21.1973 148.969 21.1271C148.97 20.9836 148.916 20.8453 148.817 20.7413C148.718 20.6374 148.583 20.5759 148.439 20.57C148.369 20.5644 148.299 20.573 148.232 20.5951C148.165 20.6173 148.104 20.6527 148.051 20.6991C147.998 20.7455 147.955 20.802 147.925 20.8654C147.894 20.9287 147.877 20.9975 147.873 21.0677Z" fill="#263238"/>
<path d="M146.965 20.4511C147.033 20.5195 147.453 20.2136 148.043 20.2136C148.632 20.2136 149.07 20.5104 149.134 20.4374C149.198 20.3643 149.097 20.2775 148.906 20.1406C148.649 19.9636 148.345 19.8695 148.033 19.8712C147.726 19.8682 147.426 19.966 147.18 20.1497C146.997 20.2867 146.933 20.4191 146.965 20.4511Z" fill="#263238"/>
<path d="M153.658 21.0676C153.657 21.208 153.709 21.3438 153.804 21.4473C153.899 21.5508 154.03 21.6142 154.17 21.6246C154.24 21.6302 154.31 21.6217 154.377 21.5995C154.444 21.5773 154.505 21.542 154.558 21.4956C154.611 21.4492 154.654 21.3926 154.684 21.3293C154.715 21.266 154.732 21.1972 154.736 21.1269C154.737 20.9835 154.683 20.8451 154.584 20.7412C154.485 20.6372 154.349 20.5758 154.206 20.5699C154.068 20.5637 153.932 20.6125 153.83 20.7057C153.727 20.799 153.665 20.9291 153.658 21.0676Z" fill="#263238"/>
<path d="M152.8 20.5614C152.869 20.6299 153.284 20.324 153.873 20.324C154.462 20.324 154.901 20.6208 154.965 20.5523C155.028 20.4838 154.928 20.3879 154.736 20.2509C154.48 20.0731 154.176 19.979 153.864 19.9815C153.557 19.9815 153.258 20.079 153.01 20.26C152.8 20.397 152.75 20.534 152.8 20.5614Z" fill="#263238"/>
<path d="M150.635 24.9487C150.324 24.8527 150.002 24.7944 149.677 24.7751C149.526 24.7751 149.38 24.7295 149.357 24.629C149.343 24.4701 149.378 24.3107 149.457 24.1724C149.599 23.8071 149.745 23.4236 149.914 23.0218C150.328 22.0469 150.664 21.0407 150.918 20.0127C150.424 20.9512 150.007 21.9285 149.672 22.935L149.243 24.0948C149.148 24.2775 149.121 24.4875 149.165 24.6884C149.188 24.7415 149.222 24.7887 149.266 24.8267C149.309 24.8646 149.361 24.8923 149.416 24.9076C149.5 24.9297 149.586 24.9419 149.672 24.9441C149.992 24.9854 150.315 24.987 150.635 24.9487Z" fill="#263238"/>
<path d="M150.229 31.9486C152.257 31.9855 154.254 31.4557 155.996 30.4189C155.996 30.4189 154.599 33.3687 150.307 32.9668L150.229 31.9486Z" fill="#EB996E"/>
<path d="M150.887 26.3732C151 26.2325 151.147 26.1227 151.314 26.054C151.481 25.9853 151.662 25.9601 151.841 25.9805C151.973 25.9915 152.1 26.0292 152.216 26.0912C152.333 26.1532 152.435 26.2383 152.517 26.3412C152.596 26.4397 152.642 26.5599 152.65 26.6857C152.659 26.8114 152.628 26.9366 152.563 27.0444C152.468 27.1512 152.343 27.227 152.205 27.262C152.066 27.297 151.921 27.2896 151.787 27.2408C151.505 27.1418 151.248 26.9864 151.029 26.7842C150.962 26.737 150.905 26.6782 150.86 26.6106C150.838 26.578 150.827 26.54 150.827 26.5011C150.827 26.4622 150.838 26.4241 150.86 26.3915" fill="#EB996E"/>
<path d="M152.38 25.3604C152.284 25.3604 152.28 25.9951 151.732 26.4517C151.184 26.9084 150.499 26.8353 150.494 26.9084C150.49 26.9814 150.645 27.0316 150.951 27.0408C151.328 27.0451 151.694 26.9175 151.987 26.6801C152.266 26.4512 152.445 26.1243 152.49 25.7668C152.494 25.5157 152.421 25.3559 152.38 25.3604Z" fill="#263238"/>
<path d="M152.517 19.5244C152.577 19.6842 153.17 19.6066 153.864 19.6934C154.558 19.7801 155.12 19.9628 155.211 19.8212C155.252 19.7527 155.152 19.602 154.928 19.4422C154.627 19.2487 154.284 19.1297 153.928 19.0952C153.573 19.0509 153.213 19.0932 152.878 19.2185C152.622 19.3189 152.494 19.4468 152.517 19.5244Z" fill="#263238"/>
<path d="M147.184 18.7349C147.289 18.8719 147.695 18.7349 148.188 18.7349C148.681 18.7349 149.102 18.8262 149.188 18.6847C149.229 18.6162 149.188 18.4792 148.983 18.3559C148.742 18.1978 148.458 18.1195 148.17 18.1322C147.882 18.1381 147.603 18.2322 147.371 18.4016C147.197 18.534 147.138 18.671 147.184 18.7349Z" fill="#263238"/>
<path d="M152.768 11.7442C151.313 11.8184 149.899 12.2581 148.659 13.0227C147.963 13.3832 147.346 13.8773 146.841 14.4766C146.336 15.076 145.955 15.7689 145.718 16.5158C145.658 16.6711 145.63 16.8371 145.637 17.0036C145.643 17.17 145.683 17.3334 145.755 17.4838C145.89 17.6558 146.082 17.775 146.296 17.8208C146.51 17.8667 146.734 17.8363 146.928 17.7349C147.315 17.5245 147.645 17.2218 147.887 16.8537C147.984 17.2562 148.214 17.614 148.541 17.8685C148.867 18.1229 149.27 18.2589 149.684 18.2541C150.098 18.2494 150.498 18.1041 150.819 17.8422C151.139 17.5803 151.361 17.2172 151.449 16.8126C151.481 17.2239 151.671 17.6068 151.979 17.8815C152.287 18.1563 152.689 18.3017 153.102 18.2874C153.513 18.2518 153.905 18.0967 154.23 17.8411C154.554 17.5856 154.797 17.2408 154.928 16.8491C155.029 17.5916 155.285 18.3043 155.681 18.9404C155.884 19.2561 156.179 19.5017 156.526 19.6439C156.874 19.786 157.256 19.8178 157.622 19.7349C157.469 20.3661 157.478 21.026 157.649 21.6526C157.878 22.2554 158.786 32.5702 159.398 32.3602C160.01 32.1501 159.987 21.6298 160.124 21.018C160.428 19.8443 160.581 18.6368 160.581 17.4244C160.622 16.1755 160.217 14.9528 159.439 13.9749C158.661 12.997 157.561 12.3277 156.334 12.0866C155.11 11.8059 153.854 11.6907 152.599 11.7442" fill="#263238"/>
<path d="M161.361 30.5287C161.361 30.5287 161.32 30.5561 161.229 30.5881C161.1 30.6351 160.967 30.6673 160.831 30.684C160.197 30.7646 159.552 30.6632 158.972 30.3916C158.392 30.12 157.902 29.6893 157.558 29.1498C157.091 28.3369 156.894 27.3968 156.996 26.4649C157.064 25.4832 157.293 24.5882 157.398 23.7663C157.501 23.0367 157.565 22.302 157.59 21.5655C157.59 20.9353 157.59 20.4285 157.59 20.0723C157.57 19.8902 157.57 19.7065 157.59 19.5244C157.644 19.704 157.676 19.8895 157.685 20.0769C157.735 20.5761 157.76 21.0775 157.758 21.5792C157.758 22.3226 157.71 23.0653 157.617 23.8029C157.516 24.643 157.302 25.5425 157.233 26.4877C157.136 27.3724 157.314 28.2657 157.745 29.0448C158.12 29.665 158.697 30.1374 159.379 30.3826C159.838 30.5574 160.328 30.6322 160.818 30.6018C161.169 30.579 161.357 30.5059 161.361 30.5287Z" fill="#263238"/>
<path d="M151.257 11.1914C151.423 11.5041 151.5 11.8562 151.481 12.2096C151.497 13.0749 151.169 13.9112 150.571 14.5358C149.972 15.1605 149.15 15.5225 148.285 15.5429C147.933 15.5766 147.58 15.5134 147.262 15.3603C147.262 15.3192 147.654 15.4288 148.275 15.3603C149.087 15.3051 149.849 14.9503 150.414 14.3647C150.978 13.779 151.305 13.0044 151.33 12.1914C151.344 11.5841 151.216 11.2005 151.257 11.1914Z" fill="#455A64"/>
<path d="M151.887 16.2412C151.91 16.2412 151.855 16.5334 151.526 16.853C151.308 17.0493 151.052 17.1994 150.774 17.2944C150.496 17.3893 150.202 17.4271 149.91 17.4055C149.336 17.3543 148.783 17.1647 148.298 16.853C147.928 16.6202 147.727 16.4421 147.745 16.3964C147.966 16.466 148.178 16.5626 148.375 16.6841C148.857 16.9345 149.383 17.0895 149.923 17.1407C150.46 17.1723 150.99 17.0103 151.416 16.6841C151.75 16.474 151.859 16.2229 151.887 16.2412Z" fill="#455A64"/>
<path d="M162.229 14.9307C162.26 15.3237 162.232 15.7192 162.147 16.1042C162.018 17.0579 161.657 17.9655 161.097 18.7479C160.804 19.1359 160.435 19.46 160.013 19.7003C159.591 19.9406 159.123 20.0919 158.64 20.1452C158.347 20.1716 158.051 20.1422 157.768 20.0584C157.572 19.999 157.476 19.9397 157.481 19.926C157.857 19.9934 158.241 20.0103 158.622 19.9762C159.53 19.8288 160.348 19.3385 160.905 18.6064C161.44 17.8499 161.806 16.9871 161.978 16.0768C162.038 15.6899 162.122 15.3071 162.229 14.9307Z" fill="#455A64"/>
<path d="M163.015 17.0088C163.057 17.1262 163.08 17.2495 163.083 17.3741C163.114 17.7065 163.122 18.0406 163.106 18.3741C163.082 19.4976 162.68 20.5803 161.965 21.4471C161.561 21.9236 161.035 22.2818 160.444 22.4836C159.959 22.6422 159.442 22.6736 158.942 22.5749C158.606 22.5107 158.287 22.3769 158.006 22.1822C157.814 22.0406 157.732 21.9356 157.741 21.9265C158.116 22.1648 158.533 22.3291 158.969 22.4105C159.44 22.4782 159.921 22.4328 160.371 22.2781C160.919 22.0757 161.407 21.7361 161.786 21.2918C162.465 20.4572 162.868 19.4333 162.942 18.3604C163.015 17.5339 162.974 17.0134 163.015 17.0088Z" fill="#455A64"/>
<path d="M102.829 72.1995L94.541 91.1534H105.952L114.079 72.0488L102.829 72.1995Z" fill="#455A64"/>
<path d="M96.8014 52.0393L106.148 70.4225H135.627L134.435 68.0207L125.897 67.765L118.933 52.2676C118.722 51.7955 118.378 51.3947 117.944 51.1135C117.51 50.8324 117.003 50.6829 116.486 50.6832H97.6325C97.4708 50.6774 97.3104 50.7147 97.1679 50.7912C97.0253 50.8677 96.9056 50.9807 96.8211 51.1187C96.7365 51.2566 96.6902 51.4146 96.6867 51.5764C96.6833 51.7381 96.7229 51.8979 96.8014 52.0393Z" fill="#E0E0E0"/>
<path d="M111.563 60.2812C111.563 60.5042 111.497 60.7223 111.373 60.9077C111.249 61.0932 111.073 61.2378 110.867 61.3231C110.661 61.4085 110.434 61.4308 110.215 61.3873C109.997 61.3438 109.796 61.2364 109.638 61.0786C109.48 60.9209 109.373 60.72 109.329 60.5012C109.286 60.2824 109.308 60.0556 109.393 59.8495C109.479 59.6435 109.623 59.4673 109.809 59.3434C109.994 59.2195 110.212 59.1533 110.435 59.1533C110.734 59.1545 111.02 59.2737 111.232 59.485C111.443 59.6962 111.562 59.9824 111.563 60.2812Z" fill="#263238"/>
<path d="M138.768 70.46H102.732V72.2179H138.768V70.46Z" fill="#455A64"/>
<path d="M127.668 71.3408L138.631 91.1714H143.873L145.015 88.9021L146.065 86.514L138.768 72.2175L127.668 71.3408Z" fill="#455A64"/>
<path d="M146.718 37.3418C146.718 37.3418 140.353 39.5838 138.983 46.7069L145.705 50.0584L146.718 37.3418Z" fill="#427CAF"/>
<path d="M146.718 37.3412C146.718 37.3412 142.266 47.3227 142.435 52.7746C142.495 54.6696 143.737 59.6238 143.737 59.6238L146.052 71.8884C146.052 71.8884 163.773 69.4912 164.165 69.4912C164.558 69.4912 163.572 59.4229 163.572 59.4229L166.462 40.0763C166.462 40.0763 165.138 37.4416 159.156 36.5284C155.572 35.9668 146.718 37.3412 146.718 37.3412Z" fill="#427CAF"/>
<path d="M145.038 43.1357C145.079 43.1586 144.613 43.9028 144.051 45.1905C143.726 45.9444 143.451 46.7193 143.229 47.5101C142.963 48.479 142.769 49.4665 142.65 50.4644C142.544 51.4637 142.512 52.4694 142.554 53.4734C142.595 54.2932 142.691 55.1093 142.841 55.9163C143.097 57.2861 143.389 58.1263 143.344 58.14C143.248 57.9582 143.171 57.7669 143.115 57.5692C143.034 57.3431 142.964 57.1129 142.905 56.8797C142.832 56.6058 142.736 56.2998 142.672 55.9665C142.501 55.1537 142.388 54.3297 142.334 53.5008C142.28 52.4836 142.306 51.4637 142.412 50.4507C142.534 49.439 142.737 48.4388 143.019 47.4599C143.254 46.664 143.549 45.8871 143.901 45.1357C144.029 44.8439 144.172 44.5589 144.33 44.2818C144.439 44.0671 144.559 43.8583 144.691 43.6563C144.788 43.4714 144.905 43.297 145.038 43.1357Z" fill="#263238"/>
<path d="M148.873 37.2505L149.129 34.5108C149.157 34.2261 149.289 33.9617 149.499 33.768C149.71 33.5743 149.984 33.4649 150.27 33.4606L159.014 33.3282C159.28 33.3251 159.536 33.4228 159.732 33.6017C159.928 33.7806 160.048 34.0272 160.069 34.2916L160.293 37.2459C159.561 38.7975 158.323 40.0536 156.782 40.8075C154.211 42.054 150.215 42.0951 150.215 42.0951L148.873 37.2505Z" fill="#427CAF"/>
<path d="M151.161 33.4831C151.189 33.4831 151.061 33.6612 151.006 33.9397C150.957 34.3431 150.957 34.751 151.006 35.1543C151.083 35.7424 151.083 36.3379 151.006 36.926C150.849 36.3532 150.769 35.762 150.769 35.168C150.707 34.7452 150.726 34.3146 150.823 33.8986C150.974 33.5836 151.148 33.4603 151.161 33.4831Z" fill="#263238"/>
<path d="M153.256 36.8714C153.104 36.3121 153.03 35.7342 153.037 35.1545C153.003 34.7443 153.003 34.3319 153.037 33.9217C153.083 33.5929 153.215 33.424 153.243 33.4651C153.27 33.5062 153.202 33.6568 153.206 33.9582C153.211 34.2596 153.256 34.6888 153.256 35.1454C153.333 35.7182 153.333 36.2986 153.256 36.8714Z" fill="#263238"/>
<path d="M155.882 36.7978C155.693 36.265 155.578 35.7089 155.54 35.1449C155.427 34.5862 155.392 34.0146 155.435 33.4463C155.626 33.9833 155.741 34.5442 155.777 35.1129C155.888 35.6672 155.924 36.234 155.882 36.7978Z" fill="#263238"/>
<path d="M158.147 36.9713C157.939 36.3845 157.828 35.7676 157.819 35.1449C157.731 34.5241 157.746 33.8931 157.864 33.2773C157.984 33.879 158.048 34.4904 158.056 35.1038C158.145 35.7221 158.175 36.3473 158.147 36.9713Z" fill="#263238"/>
<g opacity="0.3">
<path d="M159.882 47.4326C159.531 50.5056 159.764 55.8023 160.85 58.7018L165.955 50.2682L159.882 47.4326Z" fill="black"/>
</g>
<path d="M165.987 39.4414L166.014 39.4688C167.462 40.9883 168.521 42.8353 169.101 44.8522L170.041 49.1398L159.996 50.6923C159.443 48.8737 159.312 46.9529 159.612 45.076C160.106 41.8432 165.987 39.4414 165.987 39.4414Z" fill="#427CAF"/>
<path d="M170.042 49.1405C169.976 49.1635 169.909 49.1804 169.841 49.1907L169.265 49.2958L167.115 49.6474L159.836 50.7524H159.708V50.6199C159.686 50.0126 159.667 49.3825 159.654 48.7341C159.631 47.0492 159.654 45.4374 159.754 43.9717C159.824 42.6582 160.226 41.384 160.923 40.2686C161.391 39.5184 162.034 38.8919 162.795 38.4421C163.001 38.32 163.218 38.2191 163.443 38.1408C163.519 38.1062 163.599 38.0831 163.681 38.0723C163.681 38.0723 163.361 38.1956 162.841 38.5289C162.116 38.9931 161.508 39.6181 161.065 40.3553C160.403 41.4637 160.027 42.7187 159.969 44.0082C159.864 45.4602 159.868 47.0675 159.896 48.7524C159.896 49.3917 159.928 50.0263 159.941 50.6291L159.809 50.5149L167.115 49.4875L169.274 49.209L169.859 49.1405C169.919 49.1326 169.981 49.1326 170.042 49.1405Z" fill="#263238"/>
<path d="M148.823 42.8434C148.312 42.5457 147.842 42.1818 147.426 41.7612C146.957 41.3992 146.539 40.9753 146.184 40.501C147.164 41.1605 148.052 41.9483 148.823 42.8434Z" fill="#FAFAFA"/>
<path d="M147.467 48.127C147.109 48.4948 146.694 48.8031 146.239 49.0402C145.821 49.3431 145.359 49.5803 144.869 49.7434C145.644 49.0773 146.517 48.5351 147.458 48.1361L147.467 48.127Z" fill="#FAFAFA"/>
<path d="M153.07 49.4284C152.988 48.7795 152.988 48.123 153.07 47.4741C153.073 46.8217 153.153 46.1719 153.307 45.5381C153.387 46.1855 153.387 46.8404 153.307 47.4878C153.305 48.1418 153.226 48.7933 153.07 49.4284Z" fill="#FAFAFA"/>
<path d="M158.517 54.7113C158.063 54.2848 157.639 53.8271 157.248 53.3415C156.799 52.9137 156.379 52.4561 155.992 51.9717C156.54 52.2896 157.025 52.706 157.421 53.2C157.873 53.635 158.244 54.1467 158.517 54.7113Z" fill="#FAFAFA"/>
<path d="M159.284 43.666C158.892 44.0737 158.445 44.4241 157.955 44.7071C157.507 45.0522 157.014 45.3349 156.489 45.5473C156.882 45.1389 157.331 44.7884 157.823 44.5062C158.27 44.1629 158.762 43.8804 159.284 43.666Z" fill="#FAFAFA"/>
<path d="M154.362 39.6699C153.929 40.0914 153.44 40.4524 152.91 40.743C152.424 41.1029 151.893 41.3976 151.33 41.6196C151.764 41.1974 152.252 40.835 152.782 40.5421C153.27 40.1866 153.801 39.8936 154.362 39.6699Z" fill="#FAFAFA"/>
<path d="M158.8 41.2596C158.501 40.8176 158.267 40.3347 158.106 39.8259C157.881 39.3421 157.728 38.8284 157.649 38.3008C157.952 38.7424 158.186 39.2273 158.343 39.7391C158.571 40.2202 158.725 40.7328 158.8 41.2596Z" fill="#FAFAFA"/>
<path d="M164.904 43.264C164.174 42.7577 163.54 42.1253 163.032 41.3965C163.419 41.6175 163.764 41.905 164.05 42.2458C164.394 42.5306 164.684 42.8757 164.904 43.264Z" fill="#FAFAFA"/>
<path d="M162.389 47.7157C162.244 47.2647 162.178 46.792 162.193 46.3185C162.125 45.8509 162.139 45.375 162.234 44.9121C162.444 45.8311 162.496 46.7791 162.389 47.7157Z" fill="#FAFAFA"/>
<path d="M167.462 46.7929C166.931 46.8776 166.388 46.859 165.864 46.7381C165.329 46.6944 164.807 46.5503 164.325 46.3135C164.856 46.3191 165.384 46.3834 165.901 46.5053C166.43 46.5452 166.953 46.6417 167.462 46.7929Z" fill="#FAFAFA"/>
<path d="M147.006 55.9943C146.634 55.4787 146.327 54.9189 146.093 54.3276C145.787 53.7697 145.551 53.1762 145.39 52.5605C145.762 53.0761 146.069 53.6359 146.303 54.2272C146.61 54.7847 146.846 55.3783 147.006 55.9943Z" fill="#FAFAFA"/>
<path d="M153.713 63.1994C153.284 62.8095 152.911 62.3624 152.604 61.8707C152.237 61.4222 151.93 60.9279 151.69 60.4004C152.12 60.7906 152.495 61.2377 152.805 61.7291C153.173 62.1755 153.479 62.6702 153.713 63.1994Z" fill="#FAFAFA"/>
<path d="M159.256 60.1768C158.786 60.4831 158.276 60.7228 157.74 60.8891C157.233 61.1287 156.693 61.2933 156.138 61.3776C157.114 60.8301 158.165 60.4257 159.256 60.1768Z" fill="#FAFAFA"/>
<path d="M145.6 66.0125C145.819 65.151 146.188 64.3348 146.691 63.6016C146.614 64.0437 146.459 64.4687 146.234 64.8572C146.092 65.2766 145.877 65.6676 145.6 66.0125Z" fill="#FAFAFA"/>
<path d="M141.303 45.3777C141.039 45.0432 140.88 44.6381 140.846 44.2133C140.738 43.8018 140.758 43.3673 140.901 42.9668C140.995 43.3629 141.056 43.7661 141.083 44.1723C141.189 44.5675 141.262 44.9706 141.303 45.3777Z" fill="#FAFAFA"/>
<path d="M148.932 61.3914C148.445 61.263 147.982 61.0547 147.562 60.775C147.107 60.5685 146.688 60.2911 146.32 59.9531C146.807 60.0837 147.27 60.2918 147.69 60.5695C148.143 60.7794 148.562 61.0565 148.932 61.3914Z" fill="#FAFAFA"/>
<path d="M153.339 53.7842C152.59 54.6809 151.721 55.4693 150.755 56.1266C151.101 55.6539 151.51 55.2301 151.969 54.8663C152.375 54.4449 152.836 54.0808 153.339 53.7842Z" fill="#FAFAFA"/>
<g opacity="0.3">
<path d="M150.641 53.6426C150.862 55.2343 151.572 56.718 152.673 57.8891C153.814 59.0032 155.581 59.5648 157.065 58.9849C157.227 58.9403 157.376 58.8573 157.5 58.7428C157.623 58.6283 157.717 58.4858 157.773 58.3274C157.798 58.1327 157.755 57.9353 157.651 57.7688C157.547 57.6023 157.388 57.477 157.202 57.4142C156.832 57.2953 156.445 57.2397 156.056 57.2498C154.949 57.1772 153.878 56.8227 152.947 56.2202C152.015 55.6176 151.252 54.7869 150.732 53.807" fill="black"/>
</g>
<path d="M156.577 57.3228C156.577 57.3228 156.472 57.3593 156.271 57.3776C155.988 57.4061 155.704 57.4061 155.421 57.3776C155.002 57.3283 154.59 57.2302 154.193 57.0853C153.214 56.7333 152.345 56.1302 151.673 55.3365C151.4 55.0148 151.165 54.6624 150.974 54.2863C150.84 54.0357 150.734 53.7707 150.659 53.4964C150.622 53.3984 150.602 53.295 150.6 53.1904C150.645 53.1904 150.769 53.6014 151.12 54.2041C151.326 54.5558 151.566 54.8861 151.837 55.1904C152.173 55.5605 152.548 55.8927 152.956 56.1812C153.368 56.4605 153.809 56.6947 154.271 56.8798C154.65 57.0289 155.043 57.139 155.444 57.2086C156.134 57.3091 156.577 57.2771 156.577 57.3228Z" fill="#263238"/>
<path d="M131.44 64.6837L138.051 63.912L142.713 66.9668L160.521 62.6929L160.941 50.4922L168.854 49.4512V64.2225C168.81 66.0158 168.057 67.7183 166.759 68.9569C165.461 70.1954 163.726 70.8689 161.932 70.8297L135.832 70.1037L134.723 67.8846L129.12 67.7156L131.44 64.6837Z" fill="#FFBE9D"/>
<path d="M160.311 62.6699C160.202 62.7136 160.089 62.7487 159.973 62.7749L159.005 63.0261L155.43 63.9119L143.613 66.7749L142.513 67.0397H142.467H142.43L137.773 63.9758H137.837L131.221 64.7429L131.266 64.7155L129.513 66.9392L129.056 67.5237C129.006 67.5937 128.947 67.658 128.883 67.7155C128.925 67.6409 128.973 67.5693 129.024 67.5009L129.481 66.8981L131.18 64.6425H131.207L137.814 63.816H137.851H137.878L142.545 66.8662H142.462L143.563 66.6013L155.394 63.7978L158.987 62.9713L159.964 62.7567C160.078 62.7187 160.194 62.6897 160.311 62.6699Z" fill="#EB996E"/>
<path d="M135.052 66.5782C134.199 66.678 133.339 66.7116 132.481 66.6786H132.025L132.089 66.6558C131.572 67.1306 131.014 67.5585 130.422 67.9343C130.893 67.4147 131.406 66.9351 131.956 66.5006L131.983 66.4732H132.49C133.346 66.438 134.202 66.4731 135.052 66.5782Z" fill="#EB996E"/>
<path d="M163.595 64.665C163.254 64.1279 162.812 63.6626 162.293 63.2952C161.743 62.9841 161.136 62.7854 160.508 62.7107C160.693 62.6466 160.891 62.6309 161.083 62.665C161.549 62.7143 161.998 62.8705 162.394 63.1216C162.79 63.3726 163.123 63.7118 163.366 64.1125C163.489 64.2734 163.568 64.464 163.595 64.665Z" fill="#EB996E"/>
<path d="M49.4007 162.207H19.584V166.303H49.4007V162.207Z" fill="#263238"/>
<path d="M49.4504 166.358H19.5332V162.157H49.4504V166.358ZM19.6337 166.253H49.3499V162.258H19.6337V166.253Z" fill="#263238"/>
<path d="M22.3506 164.942L26.6382 186.115H42.5191L46.6697 166.308L22.3506 164.942Z" fill="#263238"/>
<path d="M22.3506 184.11L24.6382 187.261H43.9392L46.6697 184.11H22.3506Z" fill="#455A64"/>
<path d="M33.3733 165.558C33.3139 165.558 33.2409 155.75 33.2044 143.641C33.1678 131.532 33.2044 121.724 33.25 121.724C33.2957 121.724 33.3824 131.532 33.419 143.641C33.4555 155.75 33.4327 165.558 33.3733 165.558Z" fill="#263238"/>
<path d="M40.0175 141.012C39.9976 141.09 39.9701 141.167 39.9353 141.24C39.8668 141.409 39.7755 141.619 39.6704 141.875C39.6111 142.016 39.5471 142.167 39.4741 142.331C39.401 142.496 39.3462 142.692 39.2778 142.888L39.0449 143.528C38.9673 143.756 38.9033 143.984 38.8257 144.258C38.4714 145.457 38.1924 146.677 37.9901 147.911C37.761 149.424 37.6086 150.948 37.5335 152.477C37.4257 155.259 37.505 158.044 37.7709 160.815C37.8668 161.883 37.9627 162.742 38.0358 163.335C38.0632 163.614 38.0906 163.842 38.1088 164.02C38.115 164.101 38.115 164.182 38.1088 164.262C38.08 164.186 38.0616 164.106 38.054 164.025C38.0221 163.847 37.9855 163.623 37.9399 163.349C37.844 162.756 37.7207 161.897 37.6066 160.833C37.296 158.056 37.1968 155.26 37.3098 152.468C37.3775 150.931 37.5299 149.399 37.7664 147.879C37.9775 146.643 38.2735 145.422 38.6522 144.226C38.7344 143.971 38.8029 143.724 38.8851 143.5L39.1316 142.861L39.3508 142.308C39.4239 142.14 39.4969 141.993 39.5608 141.852L39.8668 141.231C39.905 141.15 39.9559 141.076 40.0175 141.012Z" fill="#263238"/>
<path d="M39.2551 133.08C39.2298 133.19 39.1978 133.298 39.1592 133.404C39.0815 133.628 38.9765 133.934 38.8487 134.317L38.6204 134.975C38.5473 135.222 38.4651 135.486 38.3784 135.77C38.2049 136.336 38.0039 136.98 37.8259 137.706L37.5245 138.843C37.4332 139.24 37.3418 139.655 37.246 140.08C37.0359 140.934 36.8852 141.861 36.6935 142.82C36.3647 144.765 36.077 146.929 35.8761 149.189C35.6752 151.45 35.6067 153.637 35.5793 155.614C35.5519 157.591 35.5793 159.372 35.6798 160.865C35.7026 161.614 35.7528 162.285 35.7894 162.879C35.8259 163.472 35.8624 163.984 35.899 164.399C35.9355 164.815 35.9538 165.12 35.972 165.362C35.9781 165.474 35.9781 165.585 35.972 165.696C35.9427 165.588 35.9243 165.478 35.9172 165.367C35.8898 165.125 35.8533 164.81 35.8031 164.408C35.7528 164.006 35.7026 163.495 35.657 162.888C35.6113 162.28 35.5519 161.623 35.5154 160.874C35.415 159.376 35.3739 157.596 35.3693 155.614C35.3647 153.632 35.4606 151.454 35.6524 149.176C35.8442 146.897 36.1501 144.737 36.488 142.783C36.6843 141.81 36.8441 140.884 37.0588 140.043C37.1592 139.614 37.2597 139.199 37.351 138.801L37.666 137.669C37.8533 136.943 38.0679 136.299 38.2551 135.733C38.3464 135.45 38.4332 135.19 38.5108 134.943C38.5884 134.696 38.6797 134.486 38.7574 134.29L39.1044 133.377C39.1433 133.273 39.1938 133.173 39.2551 133.08Z" fill="#263238"/>
<path d="M31.4875 167.294C31.4827 167.256 31.4827 167.218 31.4875 167.18C31.4875 167.093 31.4875 166.984 31.4601 166.842C31.4373 166.532 31.4099 166.098 31.3734 165.545C31.3003 164.399 31.1998 162.774 31.072 160.765C30.8163 156.733 30.4419 151.176 29.7615 145.034C29.4145 141.966 29.0127 139.057 28.5926 136.418C28.3734 135.103 28.1725 133.852 27.9396 132.683C27.7068 131.514 27.483 130.432 27.3004 129.441C27.1177 128.45 26.8849 127.564 26.7068 126.784C26.5287 126.003 26.3689 125.327 26.2502 124.779C26.1315 124.231 26.0173 123.82 25.9397 123.514C25.9123 123.382 25.8849 123.272 25.8666 123.185C25.8596 123.148 25.8596 123.109 25.8666 123.071C25.8854 123.106 25.8993 123.143 25.9077 123.181L25.999 123.505C26.0858 123.806 26.1999 124.227 26.3506 124.761C26.5013 125.295 26.6794 125.971 26.8666 126.756C27.0538 127.542 27.2821 128.423 27.4876 129.414C27.6931 130.404 27.9442 131.482 28.1542 132.651C28.3643 133.82 28.6109 135.071 28.83 136.391C29.2592 139.03 29.6656 141.943 30.0126 145.007C30.693 151.144 31.0446 156.719 31.2638 160.755C31.3734 162.778 31.451 164.408 31.4966 165.541C31.4966 166.093 31.5332 166.527 31.5423 166.842C31.5423 166.979 31.5423 167.093 31.5423 167.18C31.5298 167.221 31.5114 167.259 31.4875 167.294Z" fill="#263238"/>
<path d="M33.1311 126.469C32.9986 125.099 31.5968 124.03 30.1996 124.017C29.5008 124.047 28.8181 124.237 28.2034 124.571C27.5886 124.905 27.058 125.374 26.6517 125.944C25.848 127.09 25.2672 128.377 24.9394 129.738C23.9988 133.012 23.4874 136.45 23.8892 139.834C24.2911 143.217 25.6609 146.546 28.0901 148.934C28.4827 149.327 29.0033 149.715 29.5375 149.596C29.8266 149.512 30.0892 149.354 30.3001 149.139C32.6776 146.962 34.562 144.302 35.8268 141.337C37.0916 138.372 37.7076 135.171 37.6332 131.948C37.5967 130.665 37.4278 129.322 36.72 128.254C36.0123 127.185 34.3456 126.044 33.1356 126.473" fill="#427CAF"/>
<path d="M22.7074 115.327L20.744 118.888C20.6983 118.97 20.6389 119.066 20.543 119.071C20.4472 119.075 20.3604 118.984 20.3056 118.897L15.1094 110.943L16.3057 110.263L22.7074 115.327Z" fill="#427CAF"/>
<g opacity="0.2">
<path d="M22.7074 115.327L20.744 118.888C20.6983 118.97 20.6389 119.066 20.543 119.071C20.4472 119.075 20.3604 118.984 20.3056 118.897L15.1094 110.943L16.3057 110.263L22.7074 115.327Z" fill="black"/>
</g>
<path d="M33.2499 121.742L15.5243 111.281C15.4234 111.243 15.3311 111.184 15.2528 111.11C15.1744 111.035 15.1115 110.946 15.0677 110.848C14.9992 110.587 15.1955 110.332 15.3827 110.135C16.6024 108.871 18.0799 107.885 19.7148 107.243C21.3496 106.6 23.1036 106.318 24.8574 106.414C26.6105 106.54 28.3066 107.091 29.799 108.019C31.2915 108.948 32.5354 110.226 33.4234 111.742C35.1312 114.797 35.1905 118.843 33.2271 121.742" fill="#427CAF"/>
<path d="M18.0996 107.943C18.1754 107.922 18.2539 107.913 18.3325 107.916C18.4832 107.916 18.7115 107.879 19.0037 107.884C19.8267 107.873 20.649 107.937 21.4603 108.076C22.6689 108.283 23.847 108.64 24.967 109.14C26.9002 110.009 28.617 111.296 29.9945 112.907C31.372 114.518 32.3761 116.414 32.9349 118.459C33.1637 119.253 33.3165 120.066 33.3915 120.888C33.428 121.176 33.4189 121.404 33.428 121.56C33.4359 121.637 33.4359 121.715 33.428 121.792C33.428 121.792 33.387 121.473 33.3139 120.879C33.2128 120.068 33.0463 119.266 32.8162 118.482C32.0729 115.879 30.6149 113.537 28.6076 111.721C26.6003 109.905 24.1242 108.688 21.4603 108.208C20.6574 108.056 19.8435 107.969 19.0265 107.948C18.401 107.953 18.0996 107.962 18.0996 107.943Z" fill="#263238"/>
<path d="M30.848 114.523C30.5623 114.698 30.2553 114.834 29.9348 114.93C29.3686 115.154 28.5649 115.437 27.6974 115.72C26.8298 116.003 26.0079 116.222 25.4143 116.368C25.0993 116.464 24.7747 116.526 24.4463 116.551C24.7384 116.41 25.0444 116.299 25.3595 116.222L27.6152 115.514L29.8663 114.788C30.1839 114.668 30.5128 114.579 30.848 114.523Z" fill="#263238"/>
<path d="M28.0587 107.025C28.2173 107.672 28.288 108.337 28.2687 109.003C28.3208 109.667 28.284 110.335 28.1591 110.989C28.0735 110.332 28.0399 109.669 28.0587 109.007C28.0065 108.348 28.0065 107.685 28.0587 107.025Z" fill="#263238"/>
<path d="M15.3604 111.085C15.7751 110.895 16.206 110.742 16.648 110.628C17.4516 110.377 18.5749 110.062 19.8443 109.761C21.1137 109.459 22.2369 109.231 23.0406 109.085C23.491 108.984 23.9493 108.923 24.4104 108.902C23.9769 109.042 23.5345 109.152 23.0862 109.231C22.2643 109.414 21.1319 109.688 19.8899 109.971C18.648 110.254 17.5201 110.56 16.6937 110.77C16.2567 110.904 15.8113 111.01 15.3604 111.085Z" fill="#263238"/>
<path d="M25.0768 123.171C23.5518 122.016 21.9399 121.801 20.0267 121.86C18.1132 121.982 16.2394 122.461 14.5017 123.271C11.5109 124.577 8.70276 126.509 6.91741 129.239C5.13206 131.97 4.5065 135.586 5.84437 138.563C5.94964 138.875 6.16581 139.136 6.45167 139.298C6.78375 139.391 7.13782 139.364 7.45164 139.221C10.8534 138.111 14.2734 136.993 17.4012 135.257C20.529 133.522 23.3737 131.107 25.0494 127.952C25.4786 127.215 25.755 126.4 25.8622 125.554C25.9079 125.127 25.8619 124.694 25.7273 124.285C25.5927 123.877 25.3725 123.502 25.0814 123.185" fill="#427CAF"/>
<path d="M25.1046 122.815C25.0285 122.859 24.9472 122.893 24.8626 122.916L24.1503 123.162L23.6343 123.331C23.4471 123.4 23.2462 123.482 23.0316 123.569C22.6024 123.742 22.1184 123.916 21.575 124.172L20.744 124.551C20.4518 124.683 20.1641 124.847 19.8582 125.007C19.2417 125.309 18.6208 125.697 17.9541 126.089C15.1067 127.855 12.5729 130.081 10.4566 132.678C9.99994 133.286 9.5205 133.856 9.14151 134.432C8.94517 134.715 8.74882 134.98 8.57531 135.249L8.1187 136.025C7.79907 136.514 7.56163 136.989 7.33333 137.395C7.22374 137.596 7.11416 137.783 7.02283 137.961C6.93151 138.139 6.85846 138.299 6.78996 138.45L6.45207 139.126C6.42024 139.207 6.37721 139.284 6.32422 139.354C6.34646 139.269 6.37705 139.186 6.41554 139.107L6.71234 138.413C6.78083 138.263 6.85389 138.098 6.93151 137.916C7.00914 137.733 7.12329 137.546 7.22831 137.34C7.44748 136.925 7.68492 136.427 7.98628 135.948C8.14153 135.696 8.29678 135.432 8.44289 135.158C8.58901 134.884 8.80818 134.619 8.99996 134.331C9.37438 133.747 9.83556 133.171 10.3059 132.555C11.3701 131.247 12.5366 130.025 13.7944 128.902C15.0662 127.797 16.4252 126.797 17.8582 125.911C18.5294 125.519 19.1596 125.135 19.7806 124.838C20.091 124.683 20.3833 124.523 20.6938 124.382L21.5385 124.016C22.0727 123.765 22.575 123.601 23.0134 123.436C23.2325 123.359 23.4334 123.281 23.6252 123.217L24.1458 123.062L24.8718 122.857C24.9483 122.837 25.0261 122.823 25.1046 122.815Z" fill="#263238"/>
<path d="M13.1961 129.263C11.9821 129.725 10.7445 130.123 9.48841 130.454C8.25123 130.857 6.99195 131.188 5.7168 131.445C6.93077 130.983 8.1684 130.585 9.42448 130.254C10.6624 129.854 11.9215 129.523 13.1961 129.263Z" fill="#263238"/>
<path d="M13.0405 137.427C12.9782 137.045 12.9507 136.658 12.9583 136.271C12.9583 135.559 12.9583 134.568 12.9583 133.482C12.9583 132.395 13.0496 131.404 13.109 130.692C13.1182 130.304 13.1672 129.919 13.2551 129.541C13.2858 129.927 13.2858 130.315 13.2551 130.701C13.2277 131.482 13.2003 132.431 13.1683 133.486C13.1363 134.541 13.1181 135.491 13.0953 136.271C13.1123 136.657 13.094 137.044 13.0405 137.427Z" fill="#263238"/>
<path d="M20.0537 133.874C19.9943 133.874 19.8071 131.87 19.6382 129.391C19.4692 126.911 19.3733 124.897 19.4327 124.897C19.492 124.897 19.6747 126.897 19.8482 129.377C20.0217 131.856 20.113 133.87 20.0537 133.874Z" fill="#263238"/>
<path d="M11.3281 124.701C11.7218 124.651 12.1193 124.639 12.5153 124.664C13.2459 124.664 14.2596 124.692 15.3783 124.728C16.497 124.765 17.5061 124.81 18.2367 124.851C18.6333 124.857 19.0289 124.895 19.4193 124.966C19.0256 125.015 18.6281 125.028 18.2321 125.002C17.5015 125.002 16.4878 124.979 15.3691 124.938C14.2504 124.897 13.2413 124.856 12.5062 124.815C12.111 124.81 11.7169 124.772 11.3281 124.701Z" fill="#263238"/>
<path d="M28.8531 149.883C28.8328 149.803 28.8236 149.72 28.8257 149.637C28.8257 149.459 28.8257 149.226 28.7938 148.943C28.7664 148.336 28.7618 147.463 28.7938 146.377C28.8257 145.29 28.8851 144.007 29.013 142.582C29.1408 141.158 29.3508 139.591 29.6385 137.961C29.9262 136.331 30.2823 134.802 30.6431 133.395C31.0038 131.989 31.3965 130.779 31.7526 129.742C32.1088 128.706 32.4101 127.916 32.6658 127.341C32.7754 127.076 32.8622 126.884 32.9352 126.697C32.9632 126.621 32.9984 126.547 33.0403 126.478C33.0302 126.558 33.0071 126.637 32.9718 126.71L32.7115 127.382C32.5015 127.948 32.2138 128.751 31.8805 129.802C31.5471 130.852 31.1819 132.085 30.8211 133.455C30.4604 134.824 30.1225 136.368 29.8303 137.993C29.5381 139.619 29.3417 141.19 29.1956 142.591C29.0495 143.993 28.9673 145.294 28.9308 146.372C28.8942 147.45 28.8714 148.326 28.8714 148.934C28.8714 149.217 28.8714 149.445 28.8714 149.628C28.8713 149.713 28.8652 149.799 28.8531 149.883Z" fill="#263238"/>
<path d="M29.7848 137.787C29.5775 138.071 29.3402 138.331 29.077 138.563C28.6204 139.02 27.9675 139.632 27.2278 140.285C26.4881 140.938 25.7894 141.499 25.2735 141.897C25.0095 142.126 24.7217 142.327 24.415 142.495C24.6474 142.232 24.9043 141.992 25.1821 141.778L27.0862 140.125L28.9766 138.454C29.2242 138.206 29.4948 137.983 29.7848 137.787Z" fill="#263238"/>
<path d="M35.3967 142.304C35.119 141.977 34.8671 141.629 34.6433 141.263L32.8945 138.706L31.1046 136.176C30.8391 135.838 30.5995 135.481 30.3877 135.107C30.6967 135.406 30.9765 135.733 31.2233 136.085C31.7164 136.71 32.374 137.587 33.0497 138.587C33.7255 139.587 34.3374 140.505 34.7529 141.18C35.0022 141.534 35.2177 141.91 35.3967 142.304Z" fill="#263238"/>
<path d="M32.4562 128.089C32.4881 128.139 30.6297 129.395 28.2964 130.893C25.9631 132.39 24.0499 133.569 24.018 133.518C23.986 133.468 25.8444 132.212 28.1823 130.715C30.5201 129.217 32.4288 128.044 32.4562 128.089Z" fill="#263238"/>
<path d="M37.7346 133.774C36.7506 132.954 35.8102 132.084 34.9173 131.166C33.9771 130.303 33.0853 129.389 32.2461 128.427C33.2336 129.244 34.1756 130.114 35.068 131.034C36.0088 131.895 36.8991 132.81 37.7346 133.774Z" fill="#263238"/>
<path d="M39.0352 133.651L40.6333 133.518C41.7698 133.425 42.8726 133.087 43.8661 132.528C44.3523 132.244 44.8555 131.991 45.3729 131.77C47.35 130.98 49.56 131.121 51.6878 131.012C55.1742 130.836 58.5899 129.963 61.7333 128.445C61.9221 128.362 62.0813 128.224 62.1899 128.048C62.5187 127.45 61.9068 126.916 61.3817 126.592C58.6831 124.93 55.9389 123.249 52.8842 122.423C49.8294 121.596 46.3546 121.738 43.7519 123.532C40.6926 125.642 39.574 129.971 39.058 133.651" fill="#427CAF"/>
<path d="M62.2042 127.838C62.1122 127.8 62.0222 127.757 61.9348 127.71L61.1768 127.313C60.5193 126.966 59.5741 126.454 58.3732 125.883C56.9823 125.196 55.532 124.637 54.04 124.212C52.2154 123.688 50.3044 123.532 48.4191 123.756C46.5311 123.966 44.7479 124.732 43.2959 125.956C42.1618 127.01 41.2544 128.284 40.6293 129.701C40.0677 130.902 39.7161 131.924 39.4695 132.618L39.1819 133.427C39.1535 133.523 39.1169 133.616 39.0723 133.705C39.0854 133.606 39.1083 133.508 39.1408 133.413C39.2047 133.207 39.2869 132.934 39.3873 132.596C39.692 131.598 40.0549 130.619 40.4741 129.664C41.0893 128.215 42.0007 126.91 43.1498 125.833C44.6222 124.565 46.4425 123.769 48.3734 123.55C50.2844 123.319 52.2222 123.474 54.0719 124.007C55.5724 124.447 57.029 125.025 58.4235 125.733C59.6152 126.326 60.5513 126.856 61.1996 127.226L61.9394 127.66C62.0348 127.708 62.1238 127.767 62.2042 127.838Z" fill="#263238"/>
<path d="M58.3641 129.915C58.3321 129.961 56.2363 128.61 53.6884 126.893C51.1405 125.176 49.0994 123.742 49.1223 123.696C49.1451 123.651 51.2455 125.002 53.7934 126.719C56.3413 128.436 58.396 129.865 58.3641 129.915Z" fill="#263238"/>
<path d="M56.355 123.491C55.2888 123.826 54.1634 123.93 53.0537 123.797C53.5964 123.684 54.148 123.62 54.7021 123.605C55.2487 123.519 55.8018 123.481 56.355 123.491Z" fill="#263238"/>
<path d="M46.9711 121.811C46.5718 122.756 46.0481 123.643 45.4141 124.45C45.5775 123.963 45.808 123.502 46.099 123.08C46.328 122.618 46.6216 122.19 46.9711 121.811Z" fill="#263238"/>
<path d="M48.8437 131.149C48.4906 131.002 48.1539 130.818 47.8391 130.601C47.2318 130.235 46.4145 129.688 45.5561 129.062C44.6976 128.436 43.9168 127.829 43.3598 127.391C43.0479 127.17 42.7575 126.921 42.4922 126.646C42.8315 126.823 43.1526 127.033 43.4511 127.272L45.6839 128.893C46.5515 129.523 47.3505 130.076 47.935 130.477C48.2569 130.674 48.5609 130.899 48.8437 131.149Z" fill="#263238"/>
<path d="M41.3866 140.449C39.8615 140.043 38.0396 141.527 37.7337 143.075C37.4278 144.623 38.0031 146.203 38.6789 147.641C40.1331 150.835 42.2903 153.658 44.9893 155.901C47.7115 158.134 51.1083 159.381 54.6283 159.44C53.9845 156.445 54.7973 153.312 54.4411 150.267C54.1229 147.584 52.9042 145.089 50.9842 143.189C49.0641 141.289 46.5563 140.096 43.8706 139.806C42.898 139.701 41.7702 139.55 41.382 140.449" fill="#427CAF"/>
<path d="M54.6284 159.44C54.5519 159.414 54.4784 159.381 54.4092 159.339C54.2093 159.226 54.0185 159.098 53.8385 158.956C53.199 158.399 52.6853 157.713 52.3317 156.942C52.0897 156.485 51.8157 155.956 51.5509 155.385C51.286 154.814 51.0212 154.212 50.729 153.559C50.436 152.89 50.0989 152.242 49.7198 151.618C49.3133 150.953 48.8553 150.321 48.35 149.728C47.3089 148.504 46.1857 147.445 45.2131 146.426C44.3338 145.54 43.5332 144.579 42.8205 143.554C42.343 142.859 41.9505 142.11 41.6515 141.321C41.5556 141.043 41.4826 140.819 41.4461 140.668C41.4208 140.593 41.4054 140.515 41.4004 140.436C41.4004 140.436 41.5054 140.746 41.7292 141.294C42.0548 142.061 42.462 142.792 42.9437 143.472C43.6701 144.475 44.4764 145.417 45.3546 146.289C46.3318 147.294 47.4596 148.353 48.5144 149.591C49.0313 150.192 49.5 150.833 49.9162 151.508C50.2937 152.142 50.6308 152.8 50.9253 153.476L51.7289 155.303C51.9846 155.869 52.2495 156.39 52.4869 156.86C52.8202 157.623 53.3048 158.312 53.9115 158.883C54.3499 159.275 54.6512 159.421 54.6284 159.44Z" fill="#263238"/>
<path d="M46.7432 156.951C46.7523 156.605 46.7998 156.26 46.8847 155.924C47.0034 155.294 47.1998 154.431 47.4646 153.49C47.7294 152.55 48.0125 151.714 48.2408 151.116C48.3408 150.784 48.4803 150.465 48.6564 150.166C48.5947 150.505 48.503 150.838 48.3824 151.161C48.1906 151.773 47.9258 152.613 47.6701 153.55C47.4144 154.486 47.2135 155.335 47.0308 155.956C46.9679 156.296 46.8715 156.63 46.7432 156.951Z" fill="#263238"/>
<path d="M54.3501 149.596C53.9845 149.542 53.6241 149.458 53.2725 149.345C52.615 149.176 51.7063 148.938 50.6972 148.71C49.6881 148.482 48.7657 148.308 48.0991 148.18C47.7335 148.134 47.3729 148.054 47.0215 147.943C47.3905 147.934 47.7595 147.964 48.1219 148.034C48.7977 148.121 49.7292 148.276 50.7429 148.491C51.7565 148.706 52.6652 148.98 53.3136 149.19C53.6722 149.289 54.0196 149.425 54.3501 149.596Z" fill="#263238"/>
<path d="M41.0811 151.733C41.0983 151.331 41.1533 150.932 41.2454 150.541C41.3824 149.815 41.5925 148.81 41.8801 147.719C42.1678 146.628 42.4692 145.646 42.7066 144.943C42.8238 144.557 42.9767 144.182 43.1632 143.824C43.0969 144.219 42.9992 144.609 42.871 144.989C42.6701 145.701 42.387 146.683 42.1039 147.769C41.8208 148.856 41.5833 149.856 41.4144 150.573C41.3365 150.968 41.225 151.356 41.0811 151.733Z" fill="#263238"/>
<path d="M50.8478 143.185C50.8478 143.239 48.9346 143.089 46.5922 142.838C44.2498 142.587 42.3503 142.34 42.3594 142.285C43.7829 142.326 45.2033 142.44 46.615 142.628C48.0345 142.741 49.4473 142.927 50.8478 143.185Z" fill="#263238"/>
<path d="M49.4504 166.29C49.4504 166.349 42.7519 166.395 34.4918 166.395C26.2317 166.395 19.5332 166.349 19.5332 166.29C19.5332 166.23 26.2317 166.185 34.4918 166.185C42.7519 166.185 49.4504 166.23 49.4504 166.29Z" fill="#455A64"/>
<path d="M44.7932 174.906C44.7932 174.965 40.2773 175.015 34.7112 175.015C29.1451 175.015 24.6338 174.965 24.6338 174.906C24.6338 174.846 29.1451 174.801 34.7112 174.801C40.2773 174.801 44.7932 174.869 44.7932 174.906Z" fill="#455A64"/>
<path d="M44.9663 176.138C44.9663 176.198 40.455 176.243 34.8889 176.243C29.3228 176.243 24.8115 176.198 24.8115 176.138C24.8115 176.079 29.3228 176.033 34.8889 176.033C40.455 176.033 44.9663 176.079 44.9663 176.138Z" fill="#455A64"/>
<path d="M44.967 173.892C44.967 173.951 40.3005 173.997 34.5426 173.997C28.7847 173.997 24.1182 173.951 24.1182 173.892C24.1182 173.833 28.7847 173.787 34.5426 173.787C40.3005 173.787 44.967 173.833 44.967 173.892Z" fill="#455A64"/>
</svg>
