<svg width="300" height="221" viewBox="0 0 300 221" fill="none" xmlns="http://www.w3.org/2000/svg">
<path d="M66.604 60.9726L10.6484 98.4033L65.7644 180.797L121.72 143.366L66.604 60.9726Z" fill="#F5F5F5"/>
<path d="M92.8049 139.469L92.1715 143.398L64.3535 139.389L64.9869 135.459L92.8049 139.469Z" fill="#E0E0E0"/>
<path d="M78.7957 125.45L82.7854 126.024L78.3619 153.413L74.3672 152.834L78.7957 125.45Z" fill="#E0E0E0"/>
<path d="M53.1968 90.6404C53.2367 90.6952 47.6313 94.5203 40.6743 99.1683C33.7173 103.816 28.0469 107.547 28.007 107.487C27.9672 107.427 33.5726 103.607 40.5296 98.9538C47.4866 94.3009 53.132 90.5805 53.1968 90.6404Z" fill="#E0E0E0"/>
<path d="M73.754 85.4741C73.7939 85.5339 64.4681 91.8376 52.9279 99.5576C41.3878 107.278 31.9821 113.487 31.9522 113.432C31.9223 113.377 41.2282 107.063 52.7833 99.3432C64.3384 91.6231 73.7141 85.4142 73.754 85.4741Z" fill="#E0E0E0"/>
<path d="M77.8781 91.6381C77.9179 91.698 68.5921 98.0066 57.052 105.727C45.5118 113.447 36.1062 119.656 36.0762 119.596C36.0463 119.536 45.3622 113.232 56.9073 105.507C68.4524 97.7822 77.8382 91.5783 77.8781 91.6381Z" fill="#E0E0E0"/>
<path d="M82.0023 97.8071C82.0422 97.8669 72.7164 104.176 61.1763 111.891C49.6361 119.606 40.2305 125.825 40.2305 125.765C40.2305 125.705 49.5114 119.396 61.0566 111.676C72.6017 103.956 81.9624 97.7472 82.0023 97.8071Z" fill="#E0E0E0"/>
<path d="M86.1123 103.976C86.1522 104.036 76.8263 110.34 65.2862 118.06C53.7461 125.78 44.3404 131.989 44.3155 131.929C44.2905 131.869 53.6114 125.565 65.1665 117.845C76.7216 110.125 86.1123 103.916 86.1123 103.976Z" fill="#E0E0E0"/>
<path d="M253.712 116.181L206.719 147.617L253.006 216.812L300 185.377L253.712 116.181Z" fill="#F5F5F5"/>
<path d="M275.721 182.118L275.188 185.42L251.823 182.053L252.362 178.752L275.721 182.118Z" fill="#E0E0E0"/>
<path d="M263.957 170.344L267.308 170.827L263.593 193.828L260.236 193.344L263.957 170.344Z" fill="#E0E0E0"/>
<path d="M242.438 141.134C242.478 141.194 237.775 144.411 231.93 148.316C226.085 152.221 221.317 155.343 221.278 155.298C221.238 155.253 225.945 152.026 231.785 148.116C237.625 144.207 242.398 141.05 242.438 141.134Z" fill="#E0E0E0"/>
<path d="M259.718 136.771C259.758 136.831 251.933 142.137 242.263 148.615C232.593 155.094 224.679 160.31 224.639 160.25C224.599 160.19 232.424 154.884 242.094 148.401C251.764 141.918 259.663 136.711 259.718 136.771Z" fill="#E0E0E0"/>
<path d="M263.184 141.948C263.224 142.008 255.399 147.314 245.729 153.797C236.059 160.28 228.145 165.487 228.105 165.427C228.065 165.367 235.865 160.086 245.559 153.603C255.254 147.119 263.154 141.893 263.184 141.948Z" fill="#E0E0E0"/>
<path d="M266.645 147.119C266.685 147.179 258.855 152.486 249.19 158.969C239.525 165.452 231.605 170.659 231.566 170.599C231.526 170.539 239.35 165.238 249.02 158.749C258.69 152.261 266.61 147.07 266.645 147.119Z" fill="#E0E0E0"/>
<path d="M270.136 152.311C270.176 152.371 262.351 157.672 252.681 164.155C243.011 170.639 235.097 175.845 235.057 175.79C235.017 175.735 242.842 170.424 252.512 163.941C262.182 157.458 270.071 152.251 270.136 152.311Z" fill="#E0E0E0"/>
<path d="M179.366 64.004L128.09 36.5791L87.7075 112.082L138.984 139.507L179.366 64.004Z" fill="#F5F5F5"/>
<path d="M130.207 115.885L126.956 116.997L118.697 94.1708L121.954 93.0537L130.207 115.885Z" fill="#E0E0E0"/>
<path d="M135.195 99.5078L136.382 102.784L113.71 110.549L112.523 107.273L135.195 99.5078Z" fill="#E0E0E0"/>
<path d="M151.303 65.8299C151.263 65.9047 146.067 63.2017 139.688 59.7955C133.31 56.3894 128.178 53.5617 128.218 53.4869C128.258 53.4121 133.459 56.1151 139.838 59.5212C146.216 62.9274 151.343 65.7501 151.303 65.8299Z" fill="#E0E0E0"/>
<path d="M163.612 79.4098C163.572 79.4846 154.964 74.9563 144.386 69.3009C133.809 63.6456 125.271 58.9976 125.311 58.9228C125.351 58.848 133.953 63.3713 144.531 69.0316C155.109 74.692 163.651 79.335 163.612 79.4098Z" fill="#E0E0E0"/>
<path d="M160.589 85.0602C160.549 85.135 151.941 80.6117 141.364 74.9513C130.786 69.291 122.248 64.648 122.288 64.5732C122.328 64.4984 130.931 69.0267 141.508 74.682C152.086 80.3374 160.629 84.9853 160.589 85.0602Z" fill="#E0E0E0"/>
<path d="M157.567 90.7099C157.527 90.7847 148.919 86.2614 138.341 80.606C127.764 74.9506 119.226 70.3176 119.266 70.2279C119.306 70.1381 127.908 74.6764 138.486 80.3317C149.064 85.9871 157.607 90.635 157.567 90.7099Z" fill="#E0E0E0"/>
<path d="M154.545 96.3608C154.505 96.4356 145.898 91.9124 135.32 86.257C124.742 80.6016 116.199 75.9537 116.244 75.8788C116.289 75.804 124.887 80.3273 135.465 85.9827C146.042 91.6381 154.585 96.286 154.545 96.3608Z" fill="#E0E0E0"/>
<path opacity="0.2" d="M154.809 0H153.522V21.9332H154.809V0Z" fill="black"/>
<path d="M124.129 48.4697H184.203C184.203 48.4697 178.658 21.9434 153.712 21.9434C131.525 21.9434 124.129 48.4697 124.129 48.4697Z" fill="#427CAF"/>
<path d="M154.809 0H153.522V21.9332H154.809V0Z" fill="#427CAF"/>
<path d="M287.925 219.347C287.925 219.417 223.467 219.477 143.967 219.477C64.4681 219.477 0 219.432 0 219.347C0 219.263 64.4482 219.218 143.967 219.218C223.487 219.218 287.925 219.273 287.925 219.347Z" fill="#263238"/>
<path d="M15.939 188.113C16.7821 188.174 17.6044 188.404 18.3567 188.79C19.109 189.175 19.7759 189.709 20.3176 190.358C21.3948 191.663 22.1575 193.199 22.5469 194.846C23.3897 197.998 22.871 201.723 21.9734 204.86C18.5622 203.638 16.4526 199.998 15.4901 198.083C13.994 195.06 13.1013 188.677 15.924 188.108" fill="#427CAF"/>
<path d="M26.885 208.686C26.3727 207.891 26.0798 206.975 26.036 206.031C25.9922 205.087 26.1991 204.148 26.6356 203.309C27.0858 202.479 27.6969 201.747 28.4333 201.155C29.1697 200.563 30.0166 200.124 30.9245 199.863C31.7573 199.604 32.7248 199.499 33.448 199.983C33.774 200.23 34.0278 200.559 34.1831 200.937C34.3383 201.315 34.3893 201.728 34.3307 202.132C34.1998 202.943 33.8555 203.704 33.3333 204.337C31.6726 206.586 29.6578 208.456 26.8501 208.686" fill="#427CAF"/>
<path d="M27.2643 219.223C27.1903 219.011 27.1385 218.793 27.1097 218.57C27.02 218.101 26.9003 217.498 26.7557 216.775C26.308 214.795 26.1834 212.755 26.3866 210.735C26.6218 208.706 27.3948 206.776 28.6258 205.145C29.0019 204.657 29.4356 204.217 29.9175 203.833C30.0484 203.729 30.1849 203.633 30.3264 203.544C30.3714 203.507 30.4219 203.476 30.476 203.454C29.8452 203.993 29.2689 204.593 28.7555 205.244C27.5894 206.877 26.8551 208.778 26.621 210.77C26.3018 213.094 26.6958 215.224 26.9252 216.755C27.0449 217.518 27.1447 218.136 27.1995 218.565C27.2388 218.782 27.2605 219.002 27.2643 219.223Z" fill="#263238"/>
<path d="M17.0361 192.916C17.0931 192.995 17.14 193.08 17.1758 193.17C17.2655 193.37 17.3852 193.619 17.5249 193.933C17.8291 194.597 18.253 195.559 18.7667 196.751C19.794 199.14 21.1704 202.461 22.6067 206.162C24.043 209.862 25.2648 213.238 26.0977 215.697C26.5266 216.924 26.8607 217.921 27.0951 218.615C27.1998 218.944 27.2796 219.208 27.3445 219.412C27.38 219.504 27.4051 219.599 27.4193 219.697C27.3687 219.612 27.3285 219.522 27.2996 219.427C27.2248 219.228 27.13 218.969 27.0053 218.644L25.9531 215.752C25.0604 213.313 23.8136 209.942 22.3823 206.247C20.951 202.551 19.5945 199.22 18.6071 196.816C18.1084 195.634 17.7244 194.671 17.4401 193.968C17.3104 193.649 17.2057 193.395 17.1259 193.19C17.0884 193.102 17.0584 193.01 17.0361 192.916Z" fill="#263238"/>
<path d="M23.2098 212.251C22.1836 210.542 20.7656 209.103 19.0728 208.051C17.38 206.999 15.4612 206.365 13.475 206.202C12.4776 206.132 11.2508 206.301 10.8019 207.199C10.3531 208.097 10.9515 209.194 11.6397 209.922C13.102 211.452 14.9844 212.514 17.0496 212.976C19.1148 213.437 21.2704 213.277 23.2447 212.515" fill="#427CAF"/>
<path d="M15.0108 208.905C15.2222 208.894 15.4342 208.903 15.6441 208.93C15.89 208.943 16.1348 208.971 16.3772 209.014C16.6615 209.069 16.9956 209.099 17.3447 209.199C17.7349 209.282 18.1197 209.388 18.4967 209.518C18.9336 209.659 19.3616 209.825 19.7784 210.017C20.7372 210.446 21.644 210.983 22.4814 211.618C23.3092 212.267 24.0589 213.01 24.7156 213.832C24.9992 214.19 25.2607 214.564 25.4986 214.954C25.7137 215.291 25.9101 215.639 26.0871 215.996C26.2369 216.288 26.3701 216.588 26.4861 216.894C26.5861 217.121 26.671 217.354 26.7404 217.592C26.8143 217.791 26.8694 217.997 26.905 218.206C26.8501 218.206 26.6107 217.348 25.9375 216.071C25.7542 215.728 25.5527 215.395 25.334 215.074C25.091 214.696 24.828 214.331 24.5461 213.982C23.2417 212.37 21.5782 211.085 19.6887 210.231C19.2548 210.042 18.8409 209.862 18.4369 209.733C18.066 209.598 17.6881 209.483 17.3048 209.389C15.9084 209.005 15.0058 208.96 15.0108 208.905Z" fill="#263238"/>
<path d="M241.391 52.6037C239.924 52.9379 239.211 54.6285 239.072 56.1246C238.932 57.6207 239.121 59.2066 238.493 60.5731C237.785 62.1091 236.094 63.2462 236.039 64.9368C236.004 65.9691 236.618 66.9316 236.588 67.9739C236.538 69.6696 234.813 70.9662 234.718 72.6419C234.653 73.8637 235.466 75.0307 235.271 76.2375C235.122 77.1751 234.389 77.9132 234.079 78.8109C233.466 80.6062 234.698 82.5761 236.299 83.5835C237.196 84.1474 238.205 84.5086 239.256 84.642C240.307 84.7753 241.374 84.6776 242.383 84.3556C243.392 84.0336 244.319 83.4951 245.099 82.7777C245.878 82.0603 246.492 81.1814 246.896 80.2023C247.784 78.0479 247.589 75.6191 247.395 73.3001C246.797 66.0655 246.351 58.821 246.058 51.5664" fill="#263238"/>
<path d="M237.132 78.1277C237.434 77.9402 237.669 77.6629 237.805 77.3348C237.949 76.9444 238.007 76.5277 237.975 76.1129C237.92 75.563 237.798 75.022 237.611 74.5021C237.372 73.8486 237.283 73.1498 237.351 72.4574C237.476 71.6794 238.035 71.041 238.538 70.4127C238.809 70.1051 239.036 69.761 239.211 69.3903C239.387 69.0155 239.416 68.5883 239.291 68.1934C239.032 67.3805 238.234 66.7821 237.87 65.8395C237.699 65.3729 237.671 64.8658 237.79 64.3833C237.903 63.9309 238.071 63.4938 238.289 63.0816C238.71 62.3393 239.045 61.5512 239.286 60.7327C239.635 59.1518 239.471 57.6407 239.71 56.3989C239.843 55.4044 240.284 54.4765 240.972 53.7458C241.166 53.549 241.388 53.381 241.63 53.2471C241.714 53.2036 241.802 53.1717 241.895 53.1523C241.582 53.3244 241.295 53.5393 241.042 53.7907C240.405 54.5287 240.003 55.4407 239.89 56.4089C239.802 57.0704 239.756 57.7366 239.75 58.4038C239.749 59.1889 239.672 59.9722 239.521 60.7427C239.283 61.58 238.948 62.3867 238.523 63.1465C238.149 63.9295 237.805 64.8471 238.134 65.7049C238.463 66.5626 239.256 67.1561 239.561 68.0737C239.698 68.5271 239.664 69.015 239.466 69.4452C239.271 69.8531 239.02 70.231 238.718 70.5673C238.219 71.1956 237.675 71.7941 237.556 72.4923C237.486 73.1545 237.564 73.824 237.785 74.4522C237.963 74.9883 238.074 75.5445 238.114 76.1079C238.139 76.5419 238.062 76.9756 237.89 77.3746C237.783 77.6248 237.61 77.8418 237.391 78.003C237.313 78.0602 237.225 78.1024 237.132 78.1277Z" fill="#455A64"/>
<path d="M233.232 89.9521L228.743 102.919L209.972 103.916L206.84 110.898L226.439 112.893C227.365 113.273 228.359 113.461 229.359 113.447C230.36 113.432 231.348 113.215 232.262 112.808C233.177 112.401 233.999 111.813 234.68 111.079C235.361 110.346 235.886 109.481 236.224 108.539L241.455 93.9368L233.232 89.9521Z" fill="#B78876"/>
<path d="M272.036 212.3C272.036 212.3 258.282 168.603 257.987 167.187C257.723 165.9 262.974 134.457 263.643 126.293L245.056 126.986V127.171L237.156 127.61L244.228 216.938H252.781L251.933 187.29C257.209 201.448 264.77 215.881 264.77 215.881L272.036 212.3Z" fill="#B78876"/>
<path d="M252.282 197.928C252.282 197.659 252.178 187.994 252.178 187.994C252.073 188.572 248.901 179.605 248.976 179.062C249.016 178.777 252.282 197.928 252.282 197.928Z" fill="#A36957"/>
<path d="M248.617 174.812C248.573 174.99 248.554 175.173 248.562 175.356C248.534 175.854 248.534 176.354 248.562 176.852C248.562 177.166 248.607 177.506 248.646 177.875C248.686 178.244 248.741 178.633 248.826 179.037C249.003 179.919 249.238 180.788 249.529 181.64C250.148 183.45 250.836 185.031 251.32 186.178C251.549 186.677 251.748 187.151 251.918 187.53C251.979 187.706 252.063 187.874 252.167 188.028C252.141 187.856 252.09 187.688 252.018 187.53C251.903 187.2 251.728 186.727 251.519 186.143C251.08 184.976 250.422 183.38 249.808 181.59C249.518 180.751 249.28 179.895 249.095 179.027C249.006 178.628 248.946 178.244 248.891 177.885C248.836 177.525 248.796 177.186 248.771 176.887C248.711 176.269 248.686 175.77 248.671 175.421C248.681 175.217 248.662 175.012 248.617 174.812Z" fill="#A36957"/>
<path d="M244.068 217.392V216.589L252.831 216.205L252.856 219.521L252.317 219.556C249.908 219.696 240.074 220.105 238.468 219.621C236.667 219.083 244.068 217.392 244.068 217.392Z" fill="#455A64"/>
<path d="M252.97 219.322C252.921 219.326 252.871 219.326 252.821 219.322L252.392 219.352L250.806 219.422C249.469 219.477 247.619 219.527 245.58 219.537C243.54 219.547 241.685 219.512 240.343 219.472L238.762 219.407H238.328H238.179C238.228 219.403 238.279 219.403 238.328 219.407H238.762L240.348 219.437C241.685 219.437 243.535 219.477 245.575 219.467C247.614 219.457 249.469 219.422 250.806 219.387L252.392 219.347H252.97V219.322Z" fill="#263238"/>
<path d="M241.211 219.602C241.138 219.341 241.038 219.088 240.912 218.849C240.754 218.628 240.572 218.425 240.368 218.245C240.64 218.342 240.866 218.538 241.002 218.794C241.166 219.029 241.241 219.316 241.211 219.602Z" fill="#263238"/>
<path d="M243.794 218.29C243.794 218.29 243.65 218.155 243.52 217.955C243.39 217.756 243.311 217.581 243.336 217.566C243.361 217.552 243.48 217.696 243.61 217.896C243.74 218.095 243.819 218.275 243.794 218.29Z" fill="#263238"/>
<path d="M244.503 217.936C244.503 217.961 244.343 217.866 244.194 217.731C244.044 217.597 243.935 217.472 243.954 217.452C243.974 217.432 244.114 217.522 244.264 217.656C244.413 217.791 244.523 217.891 244.503 217.936Z" fill="#263238"/>
<path d="M244.947 217.088C244.8 217.142 244.644 217.162 244.488 217.148C244.335 217.168 244.18 217.153 244.034 217.103C244.179 217.05 244.334 217.029 244.488 217.043C244.642 217.022 244.799 217.038 244.947 217.088Z" fill="#263238"/>
<path d="M245.096 216.509C244.948 216.606 244.774 216.658 244.597 216.659C244.428 216.681 244.255 216.657 244.099 216.589C244.263 216.561 244.43 216.548 244.597 216.549C244.762 216.52 244.929 216.506 245.096 216.509Z" fill="#263238"/>
<path d="M243.5 217.527C243.314 217.562 243.123 217.562 242.937 217.527C242.735 217.502 242.537 217.459 242.343 217.397C242.224 217.364 242.108 217.317 241.999 217.258C241.933 217.218 241.883 217.156 241.86 217.083C241.85 217.041 241.854 216.998 241.869 216.958C241.884 216.918 241.91 216.884 241.944 216.859C242.083 216.792 242.234 216.756 242.387 216.755C242.541 216.754 242.693 216.786 242.832 216.851C242.971 216.915 243.094 217.01 243.193 217.127C243.291 217.245 243.362 217.383 243.401 217.532C243.411 217.581 243.411 217.632 243.401 217.681C243.344 217.501 243.256 217.332 243.141 217.183C243.009 217.033 242.835 216.926 242.643 216.874C242.422 216.802 242.182 216.82 241.974 216.923C241.89 216.988 241.924 217.093 242.019 217.153C242.121 217.208 242.228 217.253 242.338 217.287C242.526 217.349 242.718 217.397 242.912 217.432C243.286 217.512 243.5 217.512 243.5 217.527Z" fill="#263238"/>
<path d="M243.355 217.557C243.283 217.441 243.258 217.302 243.286 217.168C243.304 217.021 243.357 216.881 243.44 216.759C243.487 216.676 243.554 216.606 243.635 216.555C243.716 216.504 243.809 216.475 243.904 216.47C243.96 216.483 244.01 216.517 244.042 216.565C244.075 216.613 244.088 216.672 244.078 216.729C244.066 216.818 244.034 216.904 243.984 216.978C243.908 217.102 243.819 217.217 243.719 217.323C243.633 217.422 243.523 217.499 243.4 217.547C243.4 217.547 243.51 217.447 243.665 217.268C243.754 217.165 243.833 217.053 243.899 216.934C243.974 216.814 244.029 216.599 243.899 216.574C243.769 216.55 243.62 216.704 243.535 216.814C243.456 216.922 243.401 217.046 243.375 217.178C243.355 217.303 243.348 217.43 243.355 217.557Z" fill="#263238"/>
<path d="M252.786 216.939C252.786 216.939 252.537 216.939 252.143 216.964C251.63 217.025 251.144 217.229 250.741 217.553C250.339 217.876 250.034 218.306 249.864 218.794C249.734 219.168 249.724 219.422 249.704 219.417C249.684 219.412 249.704 219.352 249.704 219.243C249.717 219.082 249.747 218.923 249.794 218.769C249.953 218.258 250.258 217.806 250.672 217.467C251.091 217.135 251.6 216.935 252.133 216.894C252.299 216.874 252.466 216.874 252.632 216.894C252.685 216.902 252.737 216.917 252.786 216.939Z" fill="#263238"/>
<path d="M248.592 218.625C248.174 218.722 247.745 218.764 247.316 218.749C246.889 218.771 246.461 218.734 246.044 218.64C246.044 218.61 246.612 218.64 247.316 218.64C248.019 218.64 248.587 218.595 248.592 218.625Z" fill="#263238"/>
<path d="M250.297 218.609C250.297 218.609 250.252 218.729 250.193 218.859C250.133 218.988 250.103 219.108 250.073 219.103C250.043 219.098 250.028 218.968 250.098 218.814C250.168 218.659 250.277 218.584 250.297 218.609Z" fill="#263238"/>
<path d="M250.941 217.806C250.941 217.806 250.906 217.916 250.817 218.005C250.727 218.095 250.637 218.155 250.612 218.135C250.587 218.115 250.647 218.025 250.737 217.93C250.827 217.836 250.916 217.781 250.941 217.806Z" fill="#263238"/>
<path d="M251.859 217.437C251.859 217.467 251.739 217.467 251.609 217.512C251.48 217.557 251.39 217.627 251.365 217.607C251.34 217.587 251.415 217.467 251.575 217.412C251.734 217.357 251.869 217.407 251.859 217.437Z" fill="#263238"/>
<path d="M252.512 217.258C252.512 217.288 252.477 217.333 252.402 217.358C252.327 217.383 252.262 217.388 252.252 217.358C252.242 217.328 252.292 217.283 252.362 217.258C252.432 217.233 252.502 217.233 252.512 217.258Z" fill="#263238"/>
<path d="M264.595 216.619L264.266 215.886L272.101 211.951L273.482 214.943L272.984 215.198C270.844 216.31 262.042 220.709 260.376 220.928C258.536 221.192 264.595 216.619 264.595 216.619Z" fill="#455A64"/>
<path d="M273.512 214.729L273.382 214.809L272.998 215.009L271.582 215.727C270.385 216.32 268.72 217.123 266.859 217.971C264.999 218.819 263.294 219.542 262.057 220.056L260.586 220.649L260.187 220.804C260.141 220.825 260.092 220.84 260.042 220.849L260.177 220.784L260.571 220.609L262.027 219.986C263.259 219.457 264.954 218.719 266.814 217.871C268.675 217.024 270.345 216.236 271.552 215.657L272.979 214.974L273.372 214.789L273.512 214.729Z" fill="#263238"/>
<path d="M262.914 219.801C262.742 219.591 262.546 219.4 262.331 219.233C262.097 219.094 261.848 218.984 261.588 218.903C261.874 218.9 262.155 218.984 262.392 219.144C262.629 219.305 262.812 219.534 262.914 219.801Z" fill="#263238"/>
<path d="M264.715 217.546C264.715 217.546 264.526 217.487 264.326 217.357C264.127 217.227 263.982 217.103 263.997 217.078C264.012 217.053 264.187 217.137 264.386 217.267C264.586 217.397 264.73 217.521 264.715 217.546Z" fill="#263238"/>
<path d="M265.204 216.939C265.204 216.964 265.035 216.939 264.84 216.879C264.646 216.819 264.501 216.744 264.506 216.714C264.632 216.702 264.759 216.723 264.875 216.774C265.065 216.819 265.214 216.889 265.204 216.939Z" fill="#263238"/>
<path d="M265.274 215.98C265.274 216.01 265.11 216.115 264.88 216.225C264.748 216.304 264.6 216.354 264.446 216.369C264.446 216.34 264.611 216.235 264.835 216.125C264.97 216.046 265.119 215.997 265.274 215.98Z" fill="#263238"/>
<path d="M265.174 215.393C265.174 215.393 265.03 215.592 264.77 215.737C264.623 215.836 264.449 215.889 264.271 215.886C264.414 215.79 264.566 215.708 264.725 215.642C264.97 215.507 265.149 215.368 265.174 215.393Z" fill="#263238"/>
<path d="M264.151 216.979C263.999 217.083 263.831 217.16 263.653 217.208C263.457 217.265 263.257 217.307 263.054 217.333C262.932 217.348 262.808 217.348 262.685 217.333C262.608 217.327 262.537 217.291 262.486 217.233C262.463 217.197 262.45 217.156 262.45 217.113C262.45 217.071 262.463 217.029 262.486 216.994C262.637 216.81 262.848 216.685 263.082 216.639C263.316 216.594 263.558 216.631 263.767 216.744C263.891 216.809 264 216.899 264.087 217.008C264.146 217.088 264.171 217.138 264.166 217.143C264.044 217.006 263.896 216.893 263.732 216.809C263.557 216.727 263.361 216.697 263.169 216.724C263.055 216.736 262.944 216.77 262.843 216.825C262.742 216.88 262.653 216.954 262.58 217.043C262.526 217.138 262.58 217.218 262.715 217.233C262.83 217.243 262.945 217.243 263.059 217.233C263.258 217.213 263.454 217.178 263.648 217.128C263.932 217.048 264.151 216.964 264.151 216.979Z" fill="#263238"/>
<path d="M264.012 217.063C263.901 216.984 263.823 216.867 263.793 216.734C263.749 216.593 263.739 216.445 263.763 216.3C263.771 216.204 263.804 216.112 263.858 216.033C263.912 215.953 263.986 215.889 264.072 215.846C264.197 215.806 264.486 216.06 264.506 216.155C264.526 216.25 264.361 216.2 264.351 216.28C264.335 216.421 264.302 216.56 264.252 216.694C264.215 216.822 264.146 216.939 264.052 217.033C264.052 217.033 264.112 216.898 264.182 216.674C264.217 216.541 264.242 216.406 264.257 216.27C264.257 216.13 264.257 215.916 264.097 215.951C263.937 215.986 263.892 216.18 263.858 216.32C263.827 216.449 263.827 216.584 263.858 216.714C263.899 216.834 263.95 216.951 264.012 217.063Z" fill="#263238"/>
<path d="M272.366 212.63C272.366 212.63 272.126 212.715 271.787 212.919C271.344 213.184 270.983 213.568 270.745 214.026C270.514 214.489 270.416 215.007 270.461 215.522C270.491 215.921 270.585 216.151 270.565 216.161C270.533 216.111 270.508 216.058 270.491 216.001C270.441 215.848 270.406 215.692 270.386 215.532C270.314 215.001 270.406 214.461 270.65 213.983C270.893 213.506 271.276 213.114 271.747 212.859C271.888 212.781 272.037 212.718 272.191 212.67C272.247 212.648 272.306 212.635 272.366 212.63Z" fill="#263238"/>
<path d="M269.228 215.891C268.525 216.38 267.739 216.738 266.909 216.948C266.909 216.918 267.433 216.719 268.071 216.45C268.709 216.18 269.213 215.866 269.228 215.891Z" fill="#263238"/>
<path d="M270.779 215.178C270.804 215.178 270.779 215.303 270.779 215.447C270.779 215.592 270.779 215.712 270.779 215.722C270.779 215.732 270.68 215.612 270.68 215.447C270.68 215.283 270.754 215.163 270.779 215.178Z" fill="#263238"/>
<path d="M271.034 214.18C271.059 214.18 271.034 214.295 271.004 214.415C270.974 214.535 270.899 214.624 270.874 214.614C270.85 214.604 270.874 214.5 270.904 214.38C270.934 214.26 271.004 214.17 271.034 214.18Z" fill="#263238"/>
<path d="M271.722 213.448C271.722 213.478 271.622 213.522 271.522 213.617C271.423 213.712 271.368 213.812 271.343 213.802C271.318 213.792 271.343 213.652 271.453 213.537C271.562 213.423 271.717 213.448 271.722 213.448Z" fill="#263238"/>
<path d="M272.246 213.038C272.246 213.038 272.246 213.118 272.186 213.173C272.126 213.228 272.071 213.258 272.051 213.238C272.031 213.218 272.051 213.158 272.111 213.103C272.171 213.048 272.226 213.018 272.246 213.038Z" fill="#263238"/>
<path d="M262.436 111.531L260.98 93.7273L268.46 93.862C268.46 93.862 268.804 91.2338 267.702 85.4787C267.024 81.9478 264.675 79.7834 262.037 78.4968V78.4469L261.807 78.387C259.636 77.412 257.316 76.8069 254.945 76.5967L245.744 76.7014C245.744 76.7014 238.717 75.8037 234.842 80.8357C233.346 82.7657 228.703 95.9765 228.703 95.9765L239.75 101.293L238.717 93.9667C238.717 93.9667 238.927 99.278 239.605 100.949C239.979 101.886 241.101 104.799 241.101 104.799L240.956 113.586L262.436 111.531Z" fill="#427CAF"/>
<path d="M257.365 91.1439L255.998 96.9589H268.88L268.032 87.2041L257.365 91.1439Z" fill="#427CAF"/>
<path d="M268.88 96.9591C268.317 96.8554 267.746 96.7986 267.174 96.7895C266.117 96.7297 264.681 96.6748 263.045 96.6848C261.409 96.6947 259.968 96.7646 258.911 96.8444C258.339 96.8643 257.77 96.9344 257.21 97.0538C257.781 97.0993 258.355 97.0993 258.926 97.0538C259.978 97.0189 261.419 96.979 263.045 96.974C264.671 96.969 266.112 96.974 267.169 96.999C267.74 97.0309 268.312 97.0176 268.88 96.9591Z" fill="#263238"/>
<path d="M256.806 87.1592C256.744 87.6554 256.731 88.1565 256.766 88.6553C256.766 89.5679 256.806 90.8247 256.861 92.2161C256.916 93.6075 256.98 94.8692 257.04 95.7769C257.043 96.2797 257.096 96.781 257.2 97.273C257.261 96.7767 257.274 96.2757 257.24 95.7769C257.24 94.8642 257.2 93.6025 257.145 92.2111C257.09 90.8197 257.025 89.563 256.966 88.6503C256.963 88.1491 256.91 87.6495 256.806 87.1592Z" fill="#263238"/>
<g opacity="0.3">
<path d="M245.086 92.1963C245.086 92.1963 247.949 113.426 255.998 112.863C255.998 112.863 259.623 112.823 260.785 110.414V109.467L245.086 92.1963Z" fill="black"/>
</g>
<g opacity="0.3">
<path d="M256.806 88.4111L255.265 98.8192L256.262 100.644L257.908 97.0737L257.21 97.0538L256.806 88.4111Z" fill="black"/>
</g>
<path d="M241.056 104.809C240.961 104.654 240.887 104.486 240.837 104.31C240.712 103.986 240.548 103.512 240.338 102.919C239.839 101.373 239.427 99.7991 239.106 98.2061C238.786 96.6122 238.583 94.9971 238.498 93.3736C238.468 92.7502 238.458 92.2465 238.468 91.8775C238.455 91.6972 238.467 91.516 238.503 91.3389C238.543 91.3389 238.573 92.1069 238.677 93.3337C238.818 94.9425 239.046 96.5424 239.361 98.1263C239.73 99.9815 240.173 101.642 240.513 102.834C240.672 103.388 240.807 103.861 240.917 104.25C240.985 104.43 241.032 104.618 241.056 104.809Z" fill="#263238"/>
<path d="M244.308 110.908C244.238 110.908 244.038 110.474 243.864 109.911C243.714 109.565 243.647 109.189 243.669 108.813C243.889 109.118 244.041 109.467 244.113 109.836C244.256 110.175 244.323 110.541 244.308 110.908Z" fill="#263238"/>
<path d="M245.42 110.828C245.043 109.827 245.027 108.727 245.375 107.716C245.414 108.234 245.414 108.754 245.375 109.272C245.429 109.789 245.444 110.309 245.42 110.828Z" fill="#263238"/>
<path d="M239.974 101.537C239.939 101.597 237.371 100.38 234.234 98.8143C231.097 97.2484 228.579 95.9218 228.609 95.857C228.639 95.7921 231.212 97.014 234.349 98.5799C237.486 100.146 240.004 101.472 239.974 101.537Z" fill="#263238"/>
<path d="M244.503 78.4217C244.558 75.8982 244.573 73.2451 244.573 73.2451C244.573 73.2451 241.336 72.6217 240.773 68.3627C240.234 64.3032 241.74 54.7729 241.74 54.7729C246.468 52.9875 251.38 54.6083 254.617 58.4384L253.814 78.9204C253.719 81.2992 251.6 83.1145 249.056 82.9949C246.483 82.8702 244.448 80.8255 244.503 78.4217Z" fill="#B78876"/>
<path d="M241.491 62.388C241.486 62.5278 241.535 62.664 241.628 62.7688C241.721 62.8735 241.85 62.9389 241.989 62.9516C242.06 62.9584 242.131 62.9508 242.199 62.9291C242.267 62.9074 242.33 62.8722 242.383 62.8255C242.437 62.7788 242.48 62.7217 242.511 62.6577C242.542 62.5936 242.56 62.5239 242.563 62.4529C242.567 62.3136 242.518 62.178 242.425 62.074C242.332 61.9701 242.203 61.9058 242.064 61.8943C241.993 61.8835 241.92 61.8882 241.851 61.9081C241.782 61.928 241.718 61.9625 241.664 62.0094C241.609 62.0563 241.566 62.1144 241.536 62.1798C241.506 62.2451 241.49 62.3162 241.491 62.388Z" fill="#263238"/>
<path d="M241.291 61.6755C241.356 61.7453 241.79 61.4511 242.364 61.471C242.937 61.4909 243.361 61.7902 243.431 61.7204C243.501 61.6505 243.401 61.5608 243.216 61.4161C242.967 61.2352 242.667 61.136 242.359 61.1319C242.055 61.1203 241.755 61.2078 241.506 61.3812C241.321 61.5159 241.256 61.6406 241.291 61.6755Z" fill="#263238"/>
<path d="M247.43 62.7572C247.425 62.8973 247.473 63.0342 247.566 63.1392C247.659 63.2442 247.789 63.3093 247.929 63.3207C248 63.3316 248.073 63.3267 248.143 63.3066C248.212 63.2864 248.276 63.2514 248.331 63.204C248.385 63.1565 248.429 63.0978 248.459 63.0319C248.488 62.9659 248.503 62.8943 248.502 62.822C248.508 62.6824 248.459 62.5461 248.366 62.4419C248.273 62.3377 248.143 62.2737 248.004 62.2635C247.933 62.2527 247.86 62.2574 247.791 62.2772C247.722 62.2971 247.658 62.3317 247.603 62.3786C247.549 62.4255 247.505 62.4836 247.475 62.5489C247.445 62.6143 247.43 62.6853 247.43 62.7572Z" fill="#263238"/>
<path d="M247.39 62.0442C247.455 62.1191 247.889 61.8248 248.462 61.8398C249.036 61.8547 249.459 62.1589 249.534 62.0891C249.609 62.0193 249.499 61.9295 249.315 61.7899C249.069 61.6042 248.77 61.5028 248.462 61.5007C248.157 61.4915 247.857 61.5788 247.604 61.75C247.425 61.8847 247.36 62.0093 247.39 62.0442Z" fill="#263238"/>
<path d="M245.156 66.3283C244.85 66.2231 244.531 66.1577 244.208 66.1338C244.059 66.1338 243.919 66.079 243.899 65.9792C243.887 65.8234 243.926 65.6677 244.009 65.5354L244.478 64.4133C244.914 63.4596 245.272 62.4723 245.55 61.4609C245.039 62.3773 244.602 63.3328 244.243 64.3185C244.089 64.7125 243.934 65.0915 243.789 65.4506C243.693 65.6288 243.661 65.8351 243.7 66.0341C243.719 66.0882 243.751 66.137 243.793 66.1768C243.834 66.2166 243.884 66.2462 243.939 66.2635C244.022 66.2875 244.107 66.3009 244.193 66.3034C244.512 66.3524 244.835 66.3608 245.156 66.3283Z" fill="#263238"/>
<path d="M244.572 73.2455C246.567 73.3254 248.546 72.8506 250.287 71.874C250.287 71.874 248.836 74.7516 244.602 74.2479L244.572 73.2455Z" fill="#A36957"/>
<path d="M249.266 60.3439C249.146 60.5284 248.697 60.4486 248.198 60.3439C247.7 60.2391 247.261 60.1544 247.201 59.9399C247.141 59.7255 247.665 59.4412 248.333 59.5759C249.001 59.7105 249.385 60.1843 249.266 60.3439Z" fill="#263238"/>
<path d="M243.445 59.4962C243.4 59.7106 242.921 59.7904 242.373 59.8153C241.824 59.8403 241.34 59.8153 241.276 59.5959C241.211 59.3765 241.675 59.0673 242.338 59.0373C243.001 59.0074 243.49 59.2917 243.445 59.4962Z" fill="#263238"/>
<path d="M245.166 67.7293C245.103 67.7143 245.037 67.721 244.978 67.7481C244.92 67.7752 244.872 67.8213 244.842 67.8789C244.814 67.9297 244.799 67.9871 244.8 68.0454C244.8 68.1036 244.816 68.1607 244.846 68.2109C244.875 68.2611 244.917 68.3028 244.968 68.3317C245.018 68.3607 245.076 68.3759 245.134 68.3759C245.192 68.3759 245.249 68.3607 245.3 68.3317C245.351 68.3028 245.393 68.2611 245.422 68.2109C245.452 68.1607 245.467 68.1036 245.468 68.0454C245.469 67.9871 245.454 67.9297 245.426 67.8789C245.39 67.8119 245.332 67.7591 245.263 67.7292C245.193 67.6992 245.115 67.694 245.042 67.7143" fill="#A36957"/>
<path d="M245.3 67.7891C245.3 67.7642 245.205 67.6196 244.951 67.6744C244.875 67.6943 244.805 67.7337 244.749 67.7889C244.693 67.844 244.653 67.9129 244.632 67.9886C244.605 68.0841 244.607 68.1854 244.638 68.2796C244.67 68.3737 244.728 68.4565 244.806 68.5173C244.889 68.5741 244.988 68.6045 245.088 68.6045C245.189 68.6045 245.287 68.5741 245.37 68.5173C245.436 68.4726 245.488 68.4099 245.52 68.3365C245.552 68.2632 245.562 68.1823 245.549 68.1033C245.5 67.839 245.305 67.7991 245.295 67.834C245.285 67.8689 245.365 67.9587 245.35 68.1133C245.347 68.1515 245.334 68.1883 245.313 68.2205C245.292 68.2526 245.264 68.2792 245.23 68.2978C245.192 68.3201 245.148 68.3319 245.103 68.3319C245.058 68.3319 245.015 68.3201 244.976 68.2978C244.941 68.2683 244.915 68.2303 244.899 68.1875C244.883 68.1446 244.879 68.0985 244.886 68.0535C244.892 68.0141 244.907 67.9767 244.931 67.9445C244.954 67.9123 244.985 67.8864 245.021 67.8689C245.16 67.7841 245.285 67.824 245.3 67.7891Z" fill="#263238"/>
<path d="M252.682 63.4407C252.183 64.6076 250.946 65.5103 251.116 66.772C251.226 67.5849 251.749 68.343 251.649 69.1609C251.52 70.1583 250.458 70.8964 250.303 71.9187C250.118 73.1705 251.34 74.143 251.824 75.3099C252.537 77.0155 251.63 78.9306 251.605 80.7957C251.634 82.2118 252.176 83.5692 253.129 84.6164C254.083 85.6637 255.384 86.3296 256.791 86.491C257.928 86.5858 259.21 86.2417 259.783 85.2642C260.282 84.4563 260.172 83.4289 260.462 82.5362C260.901 81.1997 262.172 80.2222 262.457 78.8458C262.955 76.3523 259.913 74.2577 260.113 71.7043C260.197 70.6121 260.871 69.6646 261.155 68.6073C261.336 67.9125 261.35 67.1847 261.196 66.4834C261.041 65.7822 260.723 65.1274 260.267 64.5727C259.514 63.68 258.427 63.0766 257.774 62.1191C257.051 61.0169 257.026 59.6255 256.776 58.3239C256.441 56.7418 255.711 55.2704 254.653 54.0473C253.595 52.8241 252.244 51.8892 250.727 51.3298C249.21 50.7704 247.575 50.6048 245.977 50.8485C244.378 51.0922 242.867 51.7373 241.586 52.7234C241.586 52.7234 240.862 56.0099 244.239 56.5635C247.615 57.117 249.176 56.4787 249.555 57.8302C249.466 58.3869 249.509 58.9569 249.683 59.4935C249.856 60.0301 250.154 60.5179 250.552 60.9172C251.929 62.4034 253.24 62.0842 252.682 63.4407Z" fill="#263238"/>
<path d="M258.043 86.2369C257.939 86.2405 257.835 86.2304 257.733 86.207C257.441 86.1551 257.154 86.0767 256.876 85.9726C255.846 85.5778 254.943 84.9107 254.262 84.0426C253.785 83.4436 253.411 82.7694 253.155 82.0478C252.864 81.2258 252.711 80.3614 252.702 79.4894C252.691 78.5283 252.812 77.5702 253.061 76.6417C253.197 76.1514 253.363 75.67 253.559 75.2005C253.765 74.7331 253.947 74.2554 254.103 73.7692C254.24 73.2901 254.24 72.7821 254.103 72.303C253.957 71.8313 253.768 71.3739 253.539 70.9365C253.308 70.5027 253.113 70.0507 252.956 69.585C252.802 69.1241 252.766 68.6321 252.851 68.1537C253.051 67.2161 253.619 66.5179 253.958 65.8048C254.281 65.1446 254.435 64.4147 254.407 63.6803C254.362 62.6056 253.972 61.574 253.295 60.7379C253.033 60.445 252.751 60.1701 252.452 59.915C252.802 60.1115 253.114 60.3681 253.375 60.6731C254.101 61.5079 254.529 62.5605 254.592 63.6653C254.633 64.4317 254.482 65.1963 254.153 65.8896C253.809 66.6277 253.255 67.3308 253.086 68.1886C252.916 69.0464 253.32 69.9491 253.764 70.8168C254.006 71.2668 254.203 71.7395 254.352 72.2282C254.5 72.7499 254.5 73.3023 254.352 73.824C254.186 74.3272 253.995 74.8215 253.779 75.3052C253.583 75.7646 253.416 76.236 253.28 76.7166C253.032 77.6215 252.91 78.5561 252.916 79.4944C252.901 81.0922 253.416 82.6499 254.382 83.9229C255.028 84.7802 255.888 85.4526 256.876 85.8729C257.619 86.1621 258.048 86.207 258.043 86.2369Z" fill="#455A64"/>
<path d="M257.543 61.0714C257.3 61.1343 257.051 61.1711 256.8 61.1811C256.116 61.2543 255.425 61.2359 254.746 61.1263C254.231 61.05 253.736 60.8718 253.291 60.602C252.846 60.3323 252.459 59.9764 252.152 59.5553C251.867 59.0225 251.64 58.4608 251.474 57.8797C251.261 57.2992 250.861 56.8061 250.337 56.4783C249.245 55.7851 247.963 55.7003 246.846 55.5656C245.816 55.5143 244.815 55.202 243.939 54.658C243.352 54.269 242.927 53.6781 242.747 52.9973C242.703 52.8128 242.691 52.6222 242.712 52.4338C242.712 52.3041 242.742 52.2393 242.752 52.2393C242.758 52.4863 242.789 52.732 242.847 52.9724C243.053 53.6089 243.477 54.1526 244.043 54.5084C244.904 55.0104 245.875 55.2914 246.871 55.3263C247.988 55.4559 249.315 55.5208 250.482 56.2589C251.053 56.6175 251.488 57.1562 251.719 57.7899C251.875 58.3563 252.09 58.9046 252.362 59.4257C252.943 60.2225 253.813 60.7597 254.786 60.9218C255.443 61.044 256.113 61.0892 256.78 61.0564C257.035 61.0421 257.29 61.0471 257.543 61.0714Z" fill="#455A64"/>
<path d="M256.307 57.0121C256.119 57.075 255.921 57.1037 255.723 57.0969C254.794 57.1032 253.899 56.7451 253.23 56.0995C252.925 55.7936 252.664 55.446 252.457 55.0672C252.008 54.3091 251.574 53.3765 250.641 52.9876C249.743 52.6861 248.786 52.6024 247.849 52.7432C247.058 52.8543 246.256 52.8543 245.465 52.7432C244.915 52.6669 244.397 52.4389 243.969 52.0849C243.858 51.9885 243.761 51.8778 243.679 51.7557C243.62 51.6693 243.595 51.6244 243.605 51.6211C243.605 51.6211 243.744 51.7807 244.034 52.0051C244.46 52.3084 244.955 52.5004 245.475 52.5637C246.251 52.6512 247.036 52.6378 247.809 52.5238C248.787 52.364 249.789 52.4497 250.726 52.7731C251.208 52.9895 251.62 53.3347 251.918 53.7705C252.181 54.1593 252.422 54.5622 252.641 54.9774C252.838 55.3399 253.081 55.6752 253.364 55.9748C253.615 56.2282 253.902 56.4418 254.217 56.6082C254.681 56.8504 255.191 56.9915 255.713 57.0221C256.097 57.0171 256.302 56.9872 256.307 57.0121Z" fill="#455A64"/>
<path d="M259.529 85.1596C259.504 85.1596 259.663 84.8304 259.848 84.212C260.098 83.3439 260.209 82.4418 260.177 81.539C260.141 80.2026 259.776 78.8957 259.115 77.7338C258.751 77.0805 258.197 76.497 257.743 75.7789C257.503 75.413 257.334 75.0053 257.245 74.577C257.166 74.1261 257.204 73.6626 257.354 73.2305C257.634 72.3677 258.132 71.6446 258.242 70.8516C258.352 70.0587 257.973 69.3555 257.594 68.6922C257.398 68.3695 257.22 68.0365 257.06 67.6948C256.914 67.3634 256.818 67.0121 256.776 66.6525C256.729 66.0188 256.749 65.3819 256.836 64.7524C256.995 63.8626 256.912 62.9462 256.596 62.0993C256.455 61.8026 256.255 61.5379 256.008 61.3213C256.008 61.3213 256.033 61.3213 256.068 61.3512C256.127 61.3805 256.181 61.4193 256.227 61.4659C256.422 61.6284 256.581 61.8307 256.691 62.0594C257.052 62.9136 257.164 63.8522 257.015 64.7674C256.946 65.3851 256.938 66.0082 256.99 66.6276C257.113 67.3243 257.389 67.9852 257.798 68.5625C258.011 68.8996 258.193 69.2551 258.342 69.6248C258.499 70.0239 258.55 70.4567 258.491 70.8815C258.372 71.7543 257.858 72.4924 257.599 73.3053C257.463 73.6975 257.427 74.1175 257.494 74.5271C257.581 74.9233 257.74 75.3003 257.963 75.6392C258.387 76.3324 258.96 76.9259 259.324 77.6091C259.992 78.8102 260.349 80.1596 260.362 81.534C260.377 82.4539 260.236 83.3698 259.943 84.242C259.863 84.478 259.766 84.708 259.653 84.9302C259.623 85.0122 259.581 85.0895 259.529 85.1596Z" fill="#455A64"/>
<path d="M239.216 178.084C239.216 178.084 235.855 146.247 235.66 134.482C235.466 122.717 240.952 111.108 240.952 111.108L262.436 110.215C262.436 110.215 266.685 122.149 266.76 127.171C266.909 136.916 264.172 146.536 264.486 154.266L265.204 178.104" fill="#263238"/>
<path d="M265.927 138.94C265.815 139.038 265.696 139.128 265.573 139.21L265.378 139.344L265.169 139.549C264.984 139.709 264.817 139.887 264.67 140.082C263.977 140.93 263.473 142.451 262.989 144.341C262.742 145.39 262.377 146.407 261.902 147.374C261.758 147.638 261.591 147.89 261.403 148.127C261.314 148.246 261.229 148.376 261.124 148.491L260.795 148.82C260.323 149.26 259.776 149.612 259.179 149.857C257.977 150.386 256.616 150.635 255.379 151.259C254.112 151.94 253.133 153.056 252.621 154.4C252.013 155.752 251.624 157.168 251.125 158.495C250.626 159.821 249.953 161.088 248.881 161.896C247.856 162.608 246.638 162.993 245.39 162.998C244.233 163.068 243.161 163.033 242.198 163.178C241.332 163.268 240.504 163.58 239.794 164.085C239.276 164.49 238.888 165.038 238.677 165.661C238.543 166.054 238.514 166.475 238.592 166.883C238.652 167.162 238.727 167.297 238.712 167.302C238.632 167.177 238.574 167.038 238.543 166.893C238.437 166.477 238.451 166.04 238.582 165.631C238.781 164.977 239.172 164.399 239.705 163.971C240.432 163.422 241.293 163.078 242.198 162.973C243.195 162.814 244.258 162.834 245.4 162.759C246.612 162.751 247.792 162.375 248.786 161.682C249.794 160.801 250.538 159.658 250.935 158.38C251.434 157.069 251.798 155.647 252.432 154.271C252.968 152.871 253.992 151.711 255.314 151.004C256.601 150.366 257.962 150.121 259.134 149.613C259.708 149.375 260.235 149.038 260.69 148.615L261.004 148.301C261.104 148.191 261.189 148.067 261.279 147.952C261.455 147.725 261.61 147.483 261.742 147.229C262.22 146.276 262.59 145.272 262.845 144.237C263.343 142.352 263.887 140.811 264.62 139.958C264.766 139.763 264.933 139.586 265.119 139.429C265.199 139.359 265.268 139.29 265.338 139.235L265.543 139.105C265.667 139.042 265.795 138.987 265.927 138.94Z" fill="#FAFAFA"/>
<path d="M266.057 124.208C266.079 124.348 266.089 124.49 266.087 124.632C266.085 125.044 266.035 125.454 265.937 125.854C265.507 127.313 264.664 128.615 263.508 129.604C262.746 130.305 261.91 130.922 261.015 131.444C260.052 132.013 258.99 132.556 257.898 133.175C256.751 133.79 255.682 134.542 254.716 135.414C253.725 136.397 252.909 137.543 252.302 138.8C251.691 140.075 250.992 141.306 250.213 142.486C249.816 143.035 249.358 143.537 248.846 143.982C248.342 144.411 247.788 144.778 247.195 145.074C246.124 145.6 245.007 146.029 243.859 146.356C242.792 146.685 241.794 146.979 240.927 147.353C240.139 147.666 239.39 148.068 238.692 148.55C238.168 148.914 237.696 149.349 237.291 149.842C236.952 150.269 236.669 150.739 236.448 151.238C236.484 151.1 236.53 150.965 236.588 150.834C236.751 150.457 236.961 150.102 237.211 149.777C237.609 149.263 238.08 148.809 238.608 148.43C239.308 147.931 240.062 147.513 240.857 147.184C241.818 146.792 242.798 146.451 243.794 146.161C244.926 145.827 246.027 145.397 247.086 144.875C247.647 144.582 248.174 144.227 248.657 143.817C249.149 143.379 249.59 142.887 249.973 142.351C250.742 141.177 251.434 139.955 252.043 138.691C252.669 137.405 253.512 136.237 254.536 135.239C255.52 134.354 256.608 133.594 257.778 132.975C258.875 132.362 259.937 131.828 260.9 131.265C261.792 130.76 262.628 130.162 263.393 129.479C264.539 128.52 265.39 127.256 265.847 125.834C265.975 125.301 266.045 124.756 266.057 124.208Z" fill="#FAFAFA"/>
<path d="M235.77 136.148C235.751 136.117 235.735 136.083 235.725 136.048C235.688 135.952 235.656 135.854 235.631 135.754C235.545 135.357 235.562 134.945 235.681 134.557C235.96 133.559 237.062 132.278 238.837 131.644C239.725 131.34 240.728 131.146 241.775 130.886C242.644 130.742 243.467 130.392 244.174 129.866C244.881 129.339 245.452 128.651 245.839 127.859C246.123 127.278 246.371 126.68 246.582 126.069C246.972 124.741 247.502 123.459 248.163 122.244C248.921 121.049 250.07 120.155 251.415 119.715C252.638 119.318 253.886 119.002 255.15 118.768C256.278 118.551 257.371 118.178 258.397 117.661C259.265 117.164 260.015 116.483 260.591 115.666C261.443 114.485 261.928 113.08 261.987 111.626C261.99 111.092 261.955 110.559 261.883 110.03C262.033 110.548 262.102 111.087 262.087 111.626C262.068 113.112 261.598 114.557 260.741 115.77C260.157 116.615 259.392 117.319 258.501 117.83C257.462 118.367 256.353 118.755 255.205 118.982C253.952 119.22 252.716 119.538 251.505 119.935C250.214 120.358 249.11 121.216 248.383 122.363C247.732 123.562 247.209 124.826 246.822 126.134C246.606 126.756 246.351 127.364 246.059 127.954C245.763 128.521 245.387 129.041 244.942 129.5C244.066 130.299 242.988 130.842 241.825 131.071C240.767 131.34 239.77 131.51 238.897 131.799C237.167 132.387 236.07 133.599 235.775 134.567C235.654 134.94 235.622 135.336 235.681 135.724C235.723 135.862 235.753 136.004 235.77 136.148Z" fill="#FAFAFA"/>
<path d="M264.212 163.078C264.232 163.182 264.244 163.287 264.247 163.392C264.256 163.694 264.225 163.996 264.152 164.29C263.839 165.371 263.176 166.318 262.267 166.983C261.66 167.466 260.989 167.863 260.272 168.16C259.509 168.484 258.666 168.743 257.779 169.018C256.857 169.287 255.956 169.62 255.081 170.015C254.172 170.449 253.357 171.058 252.682 171.806C251.954 172.564 251.325 173.396 250.627 174.135C249.959 174.849 249.184 175.455 248.328 175.93C246.872 176.724 245.244 177.149 243.585 177.167C242.475 177.179 241.371 176.995 240.324 176.623C240.04 176.525 239.763 176.407 239.496 176.269C239.399 176.229 239.307 176.177 239.222 176.114C239.322 176.142 239.421 176.177 239.516 176.219C239.79 176.336 240.069 176.439 240.354 176.528C241.399 176.856 242.491 177.009 243.585 176.982C245.207 176.94 246.795 176.507 248.213 175.72C249.042 175.251 249.794 174.657 250.443 173.96C251.126 173.232 251.749 172.404 252.492 171.626C253.207 170.85 254.068 170.223 255.026 169.781C255.914 169.384 256.829 169.051 257.764 168.783C258.641 168.514 259.479 168.285 260.257 167.956C260.953 167.671 261.607 167.293 262.202 166.833C263.096 166.202 263.762 165.3 264.102 164.26C264.176 163.87 264.213 163.475 264.212 163.078Z" fill="#FAFAFA"/>
<path d="M261.763 96.9784L257.603 97.0782C257.443 97.9169 257.125 98.7174 256.666 99.4371C253.175 93.4027 250.497 85.3236 249.828 82.077C249.928 81.7529 250.043 81.3938 250.188 80.9948C250.291 80.3888 250.273 79.7682 250.133 79.1695C250.013 78.4464 249.813 77.4739 249.754 77.0251C249.569 75.6487 249.345 75.4342 248.866 75.5888C248.218 75.8033 249.135 79.4438 248.602 79.5236C248.312 79.5635 247.963 78.3167 247.864 77.2944C247.764 76.272 247.295 73.1202 246.961 72.9107C246.462 72.6015 246.028 73.0903 246.158 74.1076C246.288 75.125 246.442 78.217 245.904 78.2619C245.365 78.3068 244.906 73.0803 244.906 73.0803C244.906 73.0803 244.991 71.9432 244.363 71.9682C243.235 72.018 244.118 77.5238 244.213 78.0474C244.283 78.4065 243.714 78.4763 243.644 78.0824C243.575 77.6884 243.315 72.8609 242.148 72.9008C241.261 72.9008 242.832 77.434 242.333 78.4813C241.834 79.5286 241.495 74.9305 240.652 74.9904C240.338 75.0153 240.104 75.0751 240.682 77.6734C241.236 79.7378 241.902 81.7706 242.677 83.7627C244.013 90.969 249.878 114.024 259.07 109.805C264.216 107.441 266.301 96.9784 266.301 96.9784H261.763Z" fill="#B78876"/>
<path d="M244.034 78.3972C244.073 78.4071 244.114 78.4071 244.153 78.3972C244.214 78.3788 244.265 78.3396 244.299 78.2866C244.333 78.2336 244.347 78.1702 244.338 78.108C244.338 77.7988 244.278 77.3499 244.208 76.7664C244.091 76.0632 244.015 75.3539 243.979 74.6419C243.979 74.223 243.979 73.7742 244.004 73.3004C244.011 73.0595 244.036 72.8195 244.079 72.5823C244.119 72.3578 244.268 72.0836 244.443 72.1284H244.473C244.647 72.1284 244.787 72.2581 244.842 72.4676C244.903 72.6846 244.927 72.9107 244.911 73.1358C245.014 74.5325 245.192 75.9226 245.445 77.3001C245.485 77.4846 245.525 77.6741 245.585 77.8636C245.611 77.9606 245.645 78.0556 245.684 78.1479C245.71 78.1992 245.738 78.2492 245.769 78.2975C245.792 78.3339 245.822 78.3646 245.859 78.3871C245.895 78.4097 245.936 78.4233 245.979 78.4271C246.051 78.4191 246.12 78.3898 246.176 78.3427C246.232 78.2956 246.273 78.233 246.293 78.1628C246.336 78.0653 246.368 77.9632 246.388 77.8586C246.427 77.6576 246.453 77.4544 246.467 77.2502C246.513 76.4192 246.501 75.586 246.433 74.7566C246.369 74.3425 246.353 73.9227 246.383 73.5049C246.401 73.3244 246.488 73.1581 246.627 73.0411C246.659 73.0221 246.695 73.01 246.732 73.0057C246.769 73.0014 246.806 73.005 246.841 73.0161C246.884 73.0263 246.924 73.0431 246.961 73.066C246.986 73.085 247.006 73.111 247.016 73.1408C247.173 73.5452 247.288 73.9647 247.36 74.3926C247.45 74.8314 247.525 75.2853 247.595 75.7391C247.664 76.1929 247.729 76.6517 247.784 77.1155C247.827 77.5941 247.903 78.0691 248.013 78.5368C248.072 78.776 248.147 79.0109 248.238 79.24C248.289 79.3683 248.359 79.4877 248.447 79.5941C248.481 79.6383 248.527 79.6721 248.579 79.6915C248.631 79.7109 248.687 79.7152 248.742 79.7038C248.792 79.6872 248.837 79.6578 248.873 79.6184C248.909 79.5791 248.934 79.5312 248.946 79.4794C249.005 79.2246 249.024 78.962 249.001 78.7014C249.001 78.4521 248.971 78.2027 248.946 77.9633C248.911 77.5444 248.871 77.1305 248.856 76.7215C248.844 76.5206 248.844 76.3191 248.856 76.1181C248.866 76.0292 248.888 75.9419 248.921 75.8588C248.931 75.8314 248.947 75.806 248.966 75.784H249.031C249.36 75.6493 249.47 76.1081 249.559 76.4772C249.649 76.8462 249.684 77.2651 249.764 77.6591C249.894 78.4421 250.063 79.2251 250.148 79.9731C250.206 80.3313 250.192 80.6974 250.108 81.0503C249.988 81.4094 249.869 81.7635 249.754 82.1176V82.1525V82.1824C250.338 84.6325 251.083 87.0415 251.983 89.3938C252.771 91.5232 253.564 93.3834 254.257 94.8796C254.95 96.3757 255.579 97.5476 256.008 98.3356L256.506 99.2283C256.56 99.3347 256.626 99.435 256.701 99.5275C256.659 99.4168 256.607 99.3099 256.546 99.2083L256.048 98.2957C255.639 97.4928 255.05 96.3009 254.372 94.8048C253.694 93.3086 252.926 91.4484 252.158 89.319C251.279 86.9702 250.549 84.5683 249.973 82.1276V82.1974C250.088 81.8483 250.203 81.4942 250.322 81.1401C250.426 80.7515 250.447 80.3453 250.382 79.9482C250.293 79.1652 250.128 78.4072 249.998 77.6192C249.924 77.2302 249.874 76.8313 249.794 76.4223C249.789 76.2122 249.753 76.004 249.689 75.8039C249.632 75.6823 249.535 75.5837 249.415 75.5246C249.287 75.4828 249.149 75.4828 249.021 75.5246H248.941C248.899 75.5382 248.86 75.5602 248.826 75.5895C248.771 75.6365 248.728 75.6964 248.702 75.764C248.656 75.872 248.627 75.9864 248.617 76.1032C248.602 76.319 248.602 76.5356 248.617 76.7515C248.617 77.1704 248.677 77.5893 248.712 78.0082C248.712 78.2526 248.752 78.5069 248.762 78.7313C248.781 78.9563 248.77 79.1829 248.727 79.4046C248.727 79.4545 248.687 79.4445 248.727 79.4694L248.697 79.4395C248.633 79.358 248.583 79.2672 248.547 79.1702C248.46 78.9545 248.388 78.7328 248.333 78.5069C248.223 78.0528 248.148 77.591 248.108 77.1255C248.055 76.6567 247.99 76.1929 247.914 75.7341C247.844 75.2753 247.764 74.8265 247.674 74.3776C247.599 73.9208 247.472 73.474 247.295 73.0461C247.261 72.9746 247.208 72.9141 247.141 72.8715C247.083 72.8378 247.021 72.811 246.956 72.7917C246.885 72.7731 246.811 72.7687 246.738 72.779C246.665 72.7893 246.595 72.8139 246.532 72.8516C246.429 72.9284 246.344 73.0257 246.28 73.1372C246.217 73.2488 246.177 73.3722 246.163 73.4999C246.131 73.7265 246.131 73.9565 246.163 74.1831C246.163 74.3976 246.213 74.607 246.228 74.8165C246.297 75.6325 246.312 76.4522 246.273 77.2701C246.261 77.4644 246.236 77.6577 246.198 77.8486C246.184 77.9378 246.159 78.0249 246.123 78.108C246.11 78.1408 246.092 78.1712 246.068 78.1977C246.068 78.2426 246.034 78.1977 246.039 78.2576C246.039 78.2077 246.039 78.2576 246.039 78.1927C246.017 78.1591 245.997 78.1241 245.979 78.088C245.944 78.0082 245.914 77.9185 245.884 77.8337C245.829 77.6541 245.789 77.4696 245.749 77.2901C245.489 75.9245 245.301 74.5461 245.186 73.1608C245.201 72.91 245.172 72.6586 245.101 72.4177C245.068 72.292 245.001 72.178 244.906 72.0885C244.858 72.0414 244.8 72.0047 244.736 71.9807C244.673 71.9567 244.605 71.9459 244.537 71.9489H244.567C244.483 71.9366 244.397 71.9494 244.32 71.9857C244.242 72.0221 244.178 72.0804 244.133 72.1534C244.059 72.2723 244.009 72.4044 243.984 72.5424C243.942 72.7896 243.919 73.0397 243.914 73.2904C243.914 73.7891 243.914 74.223 243.914 74.6469C243.961 75.3634 244.053 76.0762 244.188 76.7814C244.273 77.3599 244.338 77.8087 244.368 78.113C244.377 78.1662 244.368 78.2212 244.342 78.2684C244.316 78.3157 244.274 78.3524 244.223 78.3723C244.074 78.3872 244.029 78.3922 244.034 78.3972Z" fill="#A36957"/>
<path d="M211.553 103.846C210.58 103.825 209.608 103.938 208.665 104.18C206.087 104.859 201.644 107.552 201.459 110.878H204.691C204.691 110.878 202.88 114.728 203.409 114.369C204.79 113.441 207.533 110.654 207.533 110.654L211.553 103.846Z" fill="#B78876"/>
<path d="M255.603 45.8811C255.529 45.8811 255.239 43.218 254.95 39.8966C254.661 36.5752 254.481 33.9121 254.551 33.9121C254.621 33.9121 254.915 36.5752 255.205 39.8966C255.494 43.218 255.673 45.8811 255.603 45.8811Z" fill="#263238"/>
<path d="M269.772 34.1166C269.827 34.1565 267.647 37.3233 264.9 41.1883C262.152 45.0533 259.873 48.1702 259.813 48.1104C259.753 48.0505 261.937 44.9037 264.685 41.0387C267.433 37.1737 269.712 34.0767 269.772 34.1166Z" fill="#263238"/>
<path d="M275.657 48.4698C275.657 48.5396 273.124 49.1231 269.972 49.7714C266.82 50.4197 264.246 50.8885 264.232 50.8187C264.217 50.7489 266.76 50.1654 269.917 49.5171C273.074 48.8687 275.622 48.4 275.657 48.4698Z" fill="#263238"/>
<path d="M106.061 116.968L88.4064 207.633L86.1123 219.502L203.808 218.934C209.094 218.909 213.782 214.216 215.472 207.244L236.348 121.65C237.64 116.359 234.807 110.853 230.798 110.858L111.646 110.983C109.053 110.978 106.729 113.432 106.061 116.968Z" fill="#427CAF"/>
<g opacity="0.5">
<path d="M106.061 116.968L88.4064 207.633L86.1123 219.502L203.808 218.934C209.094 218.909 213.782 214.216 215.472 207.244L236.348 121.65C237.64 116.359 234.807 110.853 230.798 110.858L111.646 110.983C109.053 110.978 106.729 113.432 106.061 116.968Z" fill="black"/>
</g>
<path d="M192.532 201.479L180.064 101.034C179.566 96.9194 176.279 93.8474 172.404 93.8624L145.075 93.9471C144.059 93.9586 143.057 94.1767 142.128 94.5883C141.2 94.9998 140.365 95.5962 139.674 96.3409L126.707 110.14L50.7042 110.549C46.0612 110.574 42.4905 114.973 43.1039 119.91L54.6789 212.745C55.1776 216.854 58.4641 219.921 62.3291 219.916L194.811 219.652C209.563 219.956 210.974 215.602 210.974 215.602C194.038 219.348 192.532 201.504 192.532 201.479Z" fill="#427CAF"/>
<g opacity="0.5">
<path d="M135.405 181.392L130.936 186.189L96.5254 155.229L100.994 150.432L135.405 181.392Z" fill="white"/>
<path d="M129.066 149.369L134.003 153.813L102.869 187.251L97.9268 182.808L129.066 149.369Z" fill="white"/>
</g>
<path d="M211.448 51.7566C211.286 51.6886 211.148 51.576 211.048 51.4321C210.948 51.2881 210.891 51.1187 210.884 50.9437L210.685 46.3157C210.678 46.1719 210.704 46.0284 210.762 45.8966C210.82 45.7649 210.908 45.6484 211.019 45.5565C211.13 45.4645 211.26 45.3997 211.401 45.367C211.541 45.3343 211.687 45.3347 211.827 45.3681C212.213 45.4514 212.612 45.4551 213 45.3787C213.387 45.3024 213.755 45.1478 214.081 44.9243C214.381 44.7344 214.639 44.4852 214.838 44.1918C215.038 43.8985 215.176 43.5673 215.243 43.2187C215.288 42.8657 215.262 42.5073 215.166 42.1646C215.07 41.822 214.906 41.5021 214.684 41.2239C214.451 40.9073 214.157 40.64 213.82 40.4372C213.482 40.2344 213.109 40.1001 212.719 40.0419C211.935 39.9983 211.158 40.2207 210.516 40.6733C209.873 41.1258 209.402 41.7819 209.179 42.5355C209.104 42.7638 208.944 42.9546 208.733 43.0681C208.521 43.1816 208.274 43.209 208.042 43.1448C207.811 43.0805 207.613 42.9294 207.49 42.723C207.368 42.5166 207.329 42.2708 207.383 42.0368C207.722 40.8515 208.46 39.8193 209.47 39.1136C210.481 38.4079 211.704 38.0718 212.934 38.1618C213.574 38.247 214.19 38.4601 214.746 38.7882C215.302 39.1163 215.786 39.5528 216.17 40.0718C216.544 40.5529 216.817 41.1039 216.974 41.6924C217.131 42.2809 217.168 42.8949 217.083 43.498C216.97 44.1002 216.734 44.6728 216.391 45.1806C216.048 45.6883 215.605 46.1205 215.088 46.4503C214.34 46.9541 213.466 47.239 212.565 47.2732L212.719 50.844C212.725 51.0008 212.691 51.1567 212.621 51.2969C212.55 51.4372 212.446 51.5575 212.316 51.6465C212.187 51.7355 212.037 51.7904 211.881 51.8062C211.725 51.822 211.567 51.798 211.423 51.7367L211.448 51.7566Z" fill="#427CAF"/>
<path d="M212.814 53.6517C212.825 53.8023 212.79 53.9526 212.715 54.0837C212.64 54.2147 212.528 54.3206 212.393 54.3878C212.258 54.4551 212.106 54.4808 211.956 54.4616C211.806 54.4424 211.666 54.3793 211.552 54.2801C211.438 54.1809 211.356 54.0502 211.317 53.9045C211.277 53.7588 211.282 53.6047 211.33 53.4616C211.378 53.3185 211.467 53.1929 211.587 53.1006C211.707 53.0084 211.851 52.9537 212.001 52.9435C212.101 52.936 212.202 52.9485 212.297 52.9802C212.392 53.0118 212.48 53.062 212.556 53.1279C212.631 53.1937 212.693 53.2739 212.737 53.3639C212.782 53.4538 212.808 53.5516 212.814 53.6517Z" fill="#427CAF"/>
<path d="M195.424 45.228C195.446 45.1294 195.461 45.0294 195.469 44.9288C195.469 44.7094 195.524 44.4301 195.564 44.0361C195.613 43.5524 195.695 43.0726 195.808 42.5998C195.873 42.3206 195.908 42.0114 196.008 41.6972C196.108 41.383 196.207 41.0439 196.317 40.6998C196.894 38.9948 197.736 37.391 198.811 35.9471C200.219 34.0772 202.005 32.5242 204.052 31.3888C205.217 30.7319 206.458 30.2194 207.747 29.8628C209.139 29.494 210.572 29.3062 212.011 29.3042C212.77 29.2921 213.528 29.3321 214.281 29.4239C214.665 29.4638 215.044 29.5636 215.428 29.6284C215.816 29.6949 216.199 29.7882 216.575 29.9077C218.146 30.347 219.642 31.0248 221.008 31.9175C224.046 33.888 226.36 36.7939 227.601 40.1961C228.269 42.0184 228.607 43.9454 228.598 45.8863C228.619 47.8859 228.266 49.8716 227.556 51.7412L227.332 52.3097L227.302 52.3845L227.332 52.4593C228.583 55.3369 229.825 58.1646 230.997 60.9025L231.207 60.6631L223.726 57.7955L223.636 57.7606L223.561 57.8304C221.583 59.7478 219.16 61.1459 216.51 61.8999C214.245 62.5233 211.874 62.6594 209.553 62.2992C207.232 61.939 205.014 61.0907 203.045 59.8103C201.432 58.7526 200.01 57.4289 198.84 55.8954C197.145 53.6571 196.047 51.0246 195.649 48.2452C195.589 47.7465 195.539 47.3276 195.494 46.9486C195.449 46.5696 195.494 46.2604 195.469 45.996C195.444 45.7317 195.469 45.5572 195.469 45.4126C195.494 45.4088 195.517 45.3957 195.532 45.3761C195.548 45.3564 195.556 45.3315 195.554 45.3064C195.552 45.2814 195.54 45.2579 195.522 45.2408C195.504 45.2237 195.479 45.2142 195.454 45.2142C195.429 45.2142 195.405 45.2237 195.386 45.2408C195.368 45.2579 195.357 45.2814 195.355 45.3064C195.353 45.3315 195.361 45.3564 195.376 45.3761C195.392 45.3957 195.414 45.4088 195.439 45.4126C195.439 45.5572 195.439 45.7517 195.439 45.996C195.439 46.2404 195.439 46.5795 195.439 46.9586C195.439 47.3376 195.524 47.7714 195.574 48.2652C195.738 49.4647 196.024 50.6444 196.427 51.7861C196.998 53.2937 197.766 54.7191 198.711 56.0251C199.885 57.5859 201.317 58.9351 202.945 60.0148C204.938 61.3272 207.188 62.2007 209.545 62.5773C211.901 62.9539 214.311 62.825 216.614 62.1991C219.297 61.4373 221.75 60.0259 223.756 58.0897L223.591 58.1247L231.072 61.0072L231.446 61.1518L231.282 60.7678C230.095 58.0299 228.868 55.2072 227.621 52.3247V52.4693L227.85 51.8858C228.578 49.9755 228.94 47.9454 228.918 45.9013C228.933 43.9191 228.596 41.95 227.92 40.0863C226.653 36.6164 224.287 33.6552 221.183 31.6532C219.782 30.7396 218.247 30.0498 216.634 29.6085C216.253 29.4877 215.863 29.396 215.467 29.3342C215.078 29.2643 214.694 29.1646 214.305 29.1297C213.543 29.035 212.775 28.9917 212.006 29C210.544 29.0062 209.089 29.2041 207.678 29.5885C206.371 29.9595 205.114 30.4852 203.932 31.1545C201.865 32.3177 200.068 33.9071 198.661 35.8174C197.589 37.2853 196.759 38.915 196.202 40.6449C196.098 41.004 195.998 41.3481 195.908 41.6423C195.829 41.943 195.766 42.2476 195.719 42.5549C195.612 43.0309 195.542 43.5144 195.509 44.0012C195.479 44.3852 195.459 44.6794 195.444 44.8989C195.423 45.0073 195.417 45.1179 195.424 45.228Z" fill="#263238"/>
</svg>
